{
.appVersion = "1296";
classes = (
{
code = "ka_kannada.below kha_kannada.below ga_kannada.below gha_kannada.below nga_kannada.below ca_kannada.below cha_kannada.below ja_kannada.below jha_kannada.below nya_kannada.below tta_kannada.below ttha_kannada.below dda_kannada.below ddha_kannada.below nna_kannada.below ta_kannada.below tha_kannada.below da_kannada.below dha_kannada.below na_kannada.below pa_kannada.below pha_kannada.below ba_kannada.below bha_kannada.below ma_kannada.below ya_kannada.below ra_kannada.below rra_kannada.below la_kannada.below lla_kannada.below va_kannada.below sha_kannada.below ssa_kannada.below sa_kannada.below ha_kannada.below llla_kannada.below k_ssa_kannada.below j_nya_kannada.below";
name = BelowBaseConsonant_Filter;
},
{
code = "ka_kannada.base kha_kannada.base ga_kannada.base gha_kannada.base nga_kannada.base ca_kannada.base cha_kannada.base ja_kannada.base jha_kannada.base nya_kannada.base tta_kannada.base ttha_kannada.base dda_kannada.base ddha_kannada.base nna_kannada.base ta_kannada.base tha_kannada.base da_kannada.base dha_kannada.base na_kannada.base pa_kannada.base pha_kannada.base ba_kannada.base bha_kannada.base ma_kannada.base ya_kannada.base ra_kannada.base rra_kannada.base la_kannada.base lla_kannada.base va_kannada.base sha_kannada.base ssa_kannada.base sa_kannada.base ha_kannada.base llla_kannada.base k_ssa_kannada.base j_nya_kannada.base";
name = OT_baseVariants;
},
{

glyphs = (
{
glyphname = .notdef;
layers = (
{
layerId = "59995968-E459-46B5-A8B1-181090AA0B10";
paths = (
{
closed = 1;
nodes = (
"505 0 LINE",
"505 714 LINE",
"94 714 LINE",
"94 0 LINE"
);
},
{
closed = 1;
nodes = (
"145 663 LINE",
"454 663 LINE",
"454 51 LINE",
"145 51 LINE"
);
}
);
width = 600;
},
{
layerId = "389B3055-E02B-410E-AE74-C99A384F2C74";
paths = (
{
closed = 1;
nodes = (
"496 0 LINE",
"496 714 LINE",
"85 714 LINE",
"85 0 LINE"
);
},
{
closed = 1;
nodes = (
"136 663 LINE",
"445 663 LINE",
"445 51 LINE",
"136 51 LINE"
);
}
);
width = 582;
},
{
layerId = "56938CB9-64C5-480A-8326-19BB97D61A51";
paths = (
{
closed = 1;
nodes = (
"506 0 LINE",
"506 714 LINE",
"95 714 LINE",
"95 0 LINE"
);
},
{
closed = 1;
nodes = (
"146 663 LINE",
"455 663 LINE",
"455 51 LINE",
"146 51 LINE"
);
}
);
width = 601;
},
{
layerId = "A6FB1343-85A8-49E5-AB18-F683E718EB6E";
paths = (
{
closed = 1;
nodes = (
"500 0 LINE",
"500 714 LINE",
"89 714 LINE",
"89 0 LINE"
);
},
{
closed = 1;
nodes = (
"140 663 LINE",
"449 663 LINE",
"449 51 LINE",
"140 51 LINE"
);
}
);
width = 589;
}
);
script = "";
category = Separator;
subCategory = Other;
userData = {
com.schriftgestaltung.Glyphs.ColorIndex = 6;
com.typemytype.robofont.layerData = {
background = {
anchors = (
);
components = (
);
contours = (
{
points = (
{
segmentType = line;
smooth = 0;
x = 505;
y = 0;
},
{
segmentType = line;
smooth = 0;
x = 505;
y = 714;
},
{
segmentType = line;
smooth = 0;
x = 94;
y = 714;
},
{
segmentType = line;
smooth = 0;
x = 94;
y = 0;
}
);
},
{
points = (
{
segmentType = line;
smooth = 0;
x = 145;
y = 663;
},
{
segmentType = line;
smooth = 0;
x = 454;
y = 663;
},
{
segmentType = line;
smooth = 0;
x = 454;
y = 51;
},
{
segmentType = line;
smooth = 0;
x = 145;
y = 51;
}
);
}
);
lib = {
};
name = .notdef;
unicodes = (
);
width = 1229;
};
};
};
},
{
glyphname = spacingCandrabindu_kannada;
layers = (
{
layerId = "59995968-E459-46B5-A8B1-181090AA0B10";
paths = (
{
closed = 1;
nodes = (
"429 54 OFFCURVE",
"502 144 OFFCURVE",
"508 327 CURVE",
"486 328 LINE",
"480 164 OFFCURVE",
"424 79 OFFCURVE",
"279 79 CURVE SMOOTH",
"134 79 OFFCURVE",
"78 164 OFFCURVE",
"72 328 CURVE",
"50 327 LINE",
"56 144 OFFCURVE",
"129 54 OFFCURVE",
"279 54 CURVE SMOOTH"
);
},
{
closed = 1;
nodes = (
"297 260 OFFCURVE",
"309 273 OFFCURVE",
"309 290 CURVE SMOOTH",
"309 306 OFFCURVE",
"297 319 OFFCURVE",
"279 319 CURVE SMOOTH",
"261 319 OFFCURVE",
"249 306 OFFCURVE",
"249 290 CURVE SMOOTH",
"249 273 OFFCURVE",
"261 260 OFFCURVE",
"279 260 CURVE SMOOTH"
);
}
);
width = 558;
},
{
layerId = "389B3055-E02B-410E-AE74-C99A384F2C74";
paths = (
{
closed = 1;
nodes = (
"465 2 OFFCURVE",
"558 77 OFFCURVE",
"567 342 CURVE",
"508 343 LINE",
"498 241 OFFCURVE",
"428 178 OFFCURVE",
"303 178 CURVE SMOOTH",
"178 178 OFFCURVE",
"104 240 OFFCURVE",
"98 343 CURVE",
"39 342 LINE",
"44 77 OFFCURVE",
"140 2 OFFCURVE",
"303 2 CURVE SMOOTH"
);
},
{
closed = 1;
nodes = (
"347 225 OFFCURVE",
"382 252 OFFCURVE",
"382 301 CURVE SMOOTH",
"382 347 OFFCURVE",
"348 377 OFFCURVE",
"307 377 CURVE SMOOTH",
"264 377 OFFCURVE",
"230 348 OFFCURVE",
"230 301 CURVE SMOOTH",
"230 253 OFFCURVE",
"265 225 OFFCURVE",
"307 225 CURVE SMOOTH"
);
}
);
width = 606;
},
{
layerId = "56938CB9-64C5-480A-8326-19BB97D61A51";
paths = (
{
closed = 1;
nodes = (
"440 28 OFFCURVE",
"530 103 OFFCURVE",
"539 327 CURVE",
"487 328 LINE",
"479 182 OFFCURVE",
"407 119 OFFCURVE",
"292 119 CURVE SMOOTH",
"177 119 OFFCURVE",
"101 181 OFFCURVE",
"97 328 CURVE",
"45 327 LINE",
"50 103 OFFCURVE",
"143 28 OFFCURVE",
"292 28 CURVE SMOOTH"
);
},
{
closed = 1;
nodes = (
"326 238 OFFCURVE",
"349 261 OFFCURVE",
"349 293 CURVE SMOOTH",
"349 325 OFFCURVE",
"325 349 OFFCURVE",
"292 349 CURVE SMOOTH",
"258 349 OFFCURVE",
"235 325 OFFCURVE",
"235 293 CURVE SMOOTH",
"235 261 OFFCURVE",
"257 238 OFFCURVE",
"292 238 CURVE SMOOTH"
);
}
);
width = 584;
},
{
layerId = "A6FB1343-85A8-49E5-AB18-F683E718EB6E";
paths = (
{
closed = 1;
nodes = (
"456 12 OFFCURVE",
"547 87 OFFCURVE",
"556 336 CURVE",
"500 337 LINE",
"491 219 OFFCURVE",
"420 156 OFFCURVE",
"299 156 CURVE SMOOTH",
"178 156 OFFCURVE",
"102 218 OFFCURVE",
"97 337 CURVE",
"41 336 LINE",
"46 87 OFFCURVE",
"141 12 OFFCURVE",
"299 12 CURVE SMOOTH"
);
},
{
closed = 1;
nodes = (
"339 230 OFFCURVE",
"369 255 OFFCURVE",
"369 298 CURVE SMOOTH",
"369 339 OFFCURVE",
"339 366 OFFCURVE",
"301 366 CURVE SMOOTH",
"262 366 OFFCURVE",
"232 339 OFFCURVE",
"232 298 CURVE SMOOTH",
"232 256 OFFCURVE",
"262 230 OFFCURVE",
"301 230 CURVE SMOOTH"
);
}
);
width = 587;
}
);
unicode = 0C80;
script = kannada;
category = Letter;
subCategory = Other;
},
{
glyphname = candrabindu_kannada;
layers = (
{
anchors = (
{
name = _top;
position = "{-297, 233}";
}
);
layerId = "59995968-E459-46B5-A8B1-181090AA0B10";
paths = (
{
closed = 1;
nodes = (
"-216 618 OFFCURVE",
"-155 671 OFFCURVE",
"-136 778 CURVE",
"-155 782 LINE",
"-175 688 OFFCURVE",
"-225 642 OFFCURVE",
"-297 642 CURVE SMOOTH",
"-369 642 OFFCURVE",
"-419 688 OFFCURVE",
"-439 782 CURVE",
"-458 778 LINE",
"-439 671 OFFCURVE",
"-378 618 OFFCURVE",
"-297 618 CURVE SMOOTH"
);
},
{
closed = 1;
nodes = (
"-281 740 OFFCURVE",
"-267 751 OFFCURVE",
"-267 771 CURVE SMOOTH",
"-267 790 OFFCURVE",
"-281 802 OFFCURVE",
"-297 802 CURVE SMOOTH",
"-315 802 OFFCURVE",
"-329 790 OFFCURVE",
"-329 771 CURVE SMOOTH",
"-329 751 OFFCURVE",
"-315 740 OFFCURVE",
"-297 740 CURVE SMOOTH"
);
}
);
width = 0;
},
{
anchors = (
{
name = _top;
position = "{-297, 276}";
}
);
layerId = "389B3055-E02B-410E-AE74-C99A384F2C74";
paths = (
{
closed = 1;
nodes = (
"-160 585 OFFCURVE",
"-101 679 OFFCURVE",
"-87 816 CURVE",
"-141 830 LINE",
"-162 762 OFFCURVE",
"-200 712 OFFCURVE",
"-293 712 CURVE SMOOTH",
"-386 712 OFFCURVE",
"-427 762 OFFCURVE",
"-448 830 CURVE",
"-502 816 LINE",
"-488 679 OFFCURVE",
"-426 585 OFFCURVE",
"-293 585 CURVE SMOOTH"
);
},
{
closed = 1;
nodes = (
"-252 732 OFFCURVE",
"-225 754 OFFCURVE",
"-225 792 CURVE SMOOTH",
"-225 828 OFFCURVE",
"-250 852 OFFCURVE",
"-293 852 CURVE SMOOTH",
"-338 852 OFFCURVE",
"-364 829 OFFCURVE",
"-364 792 CURVE SMOOTH",
"-364 754 OFFCURVE",
"-337 732 OFFCURVE",
"-293 732 CURVE SMOOTH"
);
}
);
width = 0;
},
{
anchors = (
{
name = _top;
position = "{-297, 267}";
}
);
layerId = "56938CB9-64C5-480A-8326-19BB97D61A51";
paths = (
{
closed = 1;
nodes = (
"-181 597 OFFCURVE",
"-135 668 OFFCURVE",
"-109 769 CURVE",
"-145 785 LINE",
"-174 718 OFFCURVE",
"-207 671 OFFCURVE",
"-297 671 CURVE SMOOTH",
"-387 671 OFFCURVE",
"-420 718 OFFCURVE",
"-449 785 CURVE",
"-484 769 LINE",
"-459 668 OFFCURVE",
"-407 597 OFFCURVE",
"-297 597 CURVE SMOOTH"
);
},
{
closed = 1;
nodes = (
"-273 727 OFFCURVE",
"-251 743 OFFCURVE",
"-251 773 CURVE SMOOTH",
"-251 801 OFFCURVE",
"-272 819 OFFCURVE",
"-297 819 CURVE SMOOTH",
"-323 819 OFFCURVE",
"-345 801 OFFCURVE",
"-345 773 CURVE SMOOTH",
"-345 744 OFFCURVE",
"-323 727 OFFCURVE",
"-297 727 CURVE SMOOTH"
);
}
);
width = 0;
},
{
anchors = (
{
name = _top;
position = "{-297, 271}";
}
);
layerId = "A6FB1343-85A8-49E5-AB18-F683E718EB6E";
paths = (
{
closed = 1;
nodes = (
"-168 592 OFFCURVE",
"-113 676 OFFCURVE",
"-96 801 CURVE",
"-143 816 LINE",
"-168 753 OFFCURVE",
"-202 706 OFFCURVE",
"-295 706 CURVE SMOOTH",
"-388 706 OFFCURVE",
"-424 753 OFFCURVE",
"-449 816 CURVE",
"-496 801 LINE",
"-481 678 OFFCURVE",
"-422 592 OFFCURVE",
"-295 592 CURVE SMOOTH"
);
},
{
closed = 1;
nodes = (
"-258 732 OFFCURVE",
"-234 751 OFFCURVE",
"-234 786 CURVE SMOOTH",
"-234 819 OFFCURVE",
"-256 840 OFFCURVE",
"-295 840 CURVE SMOOTH",
"-336 840 OFFCURVE",
"-359 820 OFFCURVE",
"-359 786 CURVE SMOOTH",
"-359 752 OFFCURVE",
"-335 732 OFFCURVE",
"-295 732 CURVE SMOOTH"
);
}
);
width = 0;
}
);
unicode = 0C81;
script = kannada;
category = Mark;
subCategory = Nonspacing;
},
{
glyphname = anusvara_kannada;
layers = (
{
layerId = "59995968-E459-46B5-A8B1-181090AA0B10";
paths = (
{
closed = 1;
nodes = (
"415 -7 OFFCURVE",
"515 87 OFFCURVE",
"515 252 CURVE SMOOTH",
"515 417 OFFCURVE",
"415 510 OFFCURVE",
"284 510 CURVE SMOOTH",
"154 510 OFFCURVE",
"54 417 OFFCURVE",
"54 252 CURVE SMOOTH",
"54 87 OFFCURVE",
"154 -7 OFFCURVE",
"284 -7 CURVE SMOOTH"
);
},
{
closed = 1;
nodes = (
"164 18 OFFCURVE",
"76 109 OFFCURVE",
"76 252 CURVE SMOOTH",
"76 393 OFFCURVE",
"164 486 OFFCURVE",
"284 486 CURVE SMOOTH",
"406 486 OFFCURVE",
"492 393 OFFCURVE",
"492 252 CURVE SMOOTH",
"492 109 OFFCURVE",
"406 18 OFFCURVE",
"284 18 CURVE SMOOTH"
);
}
);
width = 569;
},
{
layerId = "389B3055-E02B-410E-AE74-C99A384F2C74";
paths = (
{
closed = 1;
nodes = (
"458 -12 OFFCURVE",
"554 100 OFFCURVE",
"554 274 CURVE SMOOTH",
"554 448 OFFCURVE",
"458 564 OFFCURVE",
"300 564 CURVE SMOOTH",
"142 564 OFFCURVE",
"44 448 OFFCURVE",
"44 274 CURVE SMOOTH",
"44 100 OFFCURVE",
"142 -12 OFFCURVE",
"300 -12 CURVE SMOOTH"
);
},
{
closed = 1;
nodes = (
"180 167 OFFCURVE",
"98 202 OFFCURVE",
"98 274 CURVE SMOOTH",
"98 346 OFFCURVE",
"180 385 OFFCURVE",
"300 385 CURVE SMOOTH",
"420 385 OFFCURVE",
"500 346 OFFCURVE",
"500 274 CURVE SMOOTH",
"500 202 OFFCURVE",
"420 167 OFFCURVE",
"300 167 CURVE SMOOTH"
);
}
);
width = 598;
},
{
layerId = "56938CB9-64C5-480A-8326-19BB97D61A51";
paths = (
{
closed = 1;
nodes = (
"445 -12 OFFCURVE",
"555 92 OFFCURVE",
"555 273 CURVE SMOOTH",
"555 455 OFFCURVE",
"445 559 OFFCURVE",
"303 559 CURVE SMOOTH",
"161 559 OFFCURVE",
"50 455 OFFCURVE",
"50 273 CURVE SMOOTH",
"50 92 OFFCURVE",
"161 -12 OFFCURVE",
"303 -12 CURVE SMOOTH"
);
},
{
closed = 1;
nodes = (
"182 79 OFFCURVE",
"101 151 OFFCURVE",
"101 273 CURVE SMOOTH",
"101 395 OFFCURVE",
"182 468 OFFCURVE",
"303 468 CURVE SMOOTH",
"424 468 OFFCURVE",
"504 394 OFFCURVE",
"504 273 CURVE SMOOTH",
"504 152 OFFCURVE",
"424 79 OFFCURVE",
"303 79 CURVE SMOOTH"
);
}
);
width = 605;
},
{
layerId = "A6FB1343-85A8-49E5-AB18-F683E718EB6E";
paths = (
{
closed = 1;
nodes = (
"454 -12 OFFCURVE",
"556 97 OFFCURVE",
"556 275 CURVE SMOOTH",
"556 452 OFFCURVE",
"454 564 OFFCURVE",
"302 564 CURVE SMOOTH",
"149 564 OFFCURVE",
"46 452 OFFCURVE",
"46 275 CURVE SMOOTH",
"46 97 OFFCURVE",
"149 -12 OFFCURVE",
"302 -12 CURVE SMOOTH"
);
},
{
closed = 1;
nodes = (
"181 134 OFFCURVE",
"100 183 OFFCURVE",
"100 275 CURVE SMOOTH",
"100 366 OFFCURVE",
"181 417 OFFCURVE",
"302 417 CURVE SMOOTH",
"422 417 OFFCURVE",
"502 365 OFFCURVE",
"502 275 CURVE SMOOTH",
"502 184 OFFCURVE",
"422 134 OFFCURVE",
"302 134 CURVE SMOOTH"
);
}
);
width = 602;
}
);
unicode = 0C82;
script = kannada;
category = Mark;
subCategory = "Spacing Combining";
},
{
glyphname = visarga_kannada;
layers = (
{
layerId = "59995968-E459-46B5-A8B1-181090AA0B10";
paths = (
{
closed = 1;
nodes = (
"282 395 CURVE SMOOTH",
"282 461 OFFCURVE",
"231 510 OFFCURVE",
"168 510 CURVE SMOOTH",
"105 510 OFFCURVE",
"54 461 OFFCURVE",
"54 395 CURVE SMOOTH",
"54 329 OFFCURVE",
"105 280 OFFCURVE",
"168 280 CURVE SMOOTH",
"231 280 OFFCURVE",
"282 329 OFFCURVE"
);
},
{
closed = 1;
nodes = (
"282 108 CURVE SMOOTH",
"282 175 OFFCURVE",
"231 224 OFFCURVE",
"168 224 CURVE SMOOTH",
"105 224 OFFCURVE",
"54 175 OFFCURVE",
"54 108 CURVE SMOOTH",
"54 42 OFFCURVE",
"105 -7 OFFCURVE",
"168 -7 CURVE SMOOTH",
"231 -7 OFFCURVE",
"282 42 OFFCURVE"
);
},
{
closed = 1;
nodes = (
"76 108 CURVE SMOOTH",
"76 164 OFFCURVE",
"115 199 OFFCURVE",
"168 199 CURVE SMOOTH",
"221 199 OFFCURVE",
"260 164 OFFCURVE",
"260 108 CURVE SMOOTH",
"260 53 OFFCURVE",
"221 18 OFFCURVE",
"168 18 CURVE SMOOTH",
"115 18 OFFCURVE",
"76 53 OFFCURVE"
);
},
{
closed = 1;
nodes = (
"76 395 CURVE SMOOTH",
"76 451 OFFCURVE",
"115 486 OFFCURVE",
"168 486 CURVE SMOOTH",
"221 486 OFFCURVE",
"260 451 OFFCURVE",
"260 395 CURVE SMOOTH",
"260 339 OFFCURVE",
"221 304 OFFCURVE",
"168 304 CURVE SMOOTH",
"115 304 OFFCURVE",
"76 339 OFFCURVE"
);
}
);
width = 336;
},
{
layerId = "389B3055-E02B-410E-AE74-C99A384F2C74";
paths = (
{
closed = 1;
nodes = (
"290 429 CURVE SMOOTH",
"290 514 OFFCURVE",
"236 564 OFFCURVE",
"171 564 CURVE SMOOTH",
"106 564 OFFCURVE",
"54 514 OFFCURVE",
"54 429 CURVE SMOOTH",
"54 345 OFFCURVE",
"106 294 OFFCURVE",
"171 294 CURVE SMOOTH",
"236 294 OFFCURVE",
"290 345 OFFCURVE"
);
},
{
closed = 1;
nodes = (
"290 123 CURVE SMOOTH",
"290 207 OFFCURVE",
"236 257 OFFCURVE",
"171 257 CURVE SMOOTH",
"106 257 OFFCURVE",
"54 207 OFFCURVE",
"54 123 CURVE SMOOTH",
"54 38 OFFCURVE",
"106 -12 OFFCURVE",
"171 -12 CURVE SMOOTH",
"236 -12 OFFCURVE",
"290 38 OFFCURVE"
);
},
{
closed = 1;
nodes = (
"97 123 CURVE SMOOTH",
"97 155 OFFCURVE",
"126 180 OFFCURVE",
"171 180 CURVE SMOOTH",
"217 180 OFFCURVE",
"246 155 OFFCURVE",
"246 123 CURVE SMOOTH",
"246 90 OFFCURVE",
"217 65 OFFCURVE",
"171 65 CURVE SMOOTH",
"126 65 OFFCURVE",
"97 90 OFFCURVE"
);
},
{
closed = 1;
nodes = (
"97 429 CURVE SMOOTH",
"97 461 OFFCURVE",
"126 486 OFFCURVE",
"171 486 CURVE SMOOTH",
"217 486 OFFCURVE",
"246 461 OFFCURVE",
"246 429 CURVE SMOOTH",
"246 397 OFFCURVE",
"217 372 OFFCURVE",
"171 372 CURVE SMOOTH",
"126 372 OFFCURVE",
"97 397 OFFCURVE"
);
}
);
width = 342;
},
{
layerId = "56938CB9-64C5-480A-8326-19BB97D61A51";
paths = (
{
closed = 1;
nodes = (
"285 426 CURVE SMOOTH",
"285 508 OFFCURVE",
"232 559 OFFCURVE",
"167 559 CURVE SMOOTH",
"102 559 OFFCURVE",
"50 508 OFFCURVE",
"50 426 CURVE SMOOTH",
"50 343 OFFCURVE",
"102 293 OFFCURVE",
"167 293 CURVE SMOOTH",
"232 293 OFFCURVE",
"285 343 OFFCURVE"
);
},
{
closed = 1;
nodes = (
"285 121 CURVE SMOOTH",
"285 204 OFFCURVE",
"232 254 OFFCURVE",
"167 254 CURVE SMOOTH",
"102 254 OFFCURVE",
"50 204 OFFCURVE",
"50 121 CURVE SMOOTH",
"50 39 OFFCURVE",
"102 -12 OFFCURVE",
"167 -12 CURVE SMOOTH",
"232 -12 OFFCURVE",
"285 39 OFFCURVE"
);
},
{
closed = 1;
nodes = (
"86 121 CURVE SMOOTH",
"86 161 OFFCURVE",
"117 190 OFFCURVE",
"167 190 CURVE SMOOTH",
"217 190 OFFCURVE",
"248 161 OFFCURVE",
"248 121 CURVE SMOOTH",
"248 82 OFFCURVE",
"217 52 OFFCURVE",
"167 52 CURVE SMOOTH",
"117 52 OFFCURVE",
"86 82 OFFCURVE"
);
},
{
closed = 1;
nodes = (
"86 426 CURVE SMOOTH",
"86 465 OFFCURVE",
"117 495 OFFCURVE",
"167 495 CURVE SMOOTH",
"217 495 OFFCURVE",
"248 465 OFFCURVE",
"248 426 CURVE SMOOTH",
"248 386 OFFCURVE",
"217 356 OFFCURVE",
"167 356 CURVE SMOOTH",
"117 356 OFFCURVE",
"86 386 OFFCURVE"
);
}
);
width = 335;
},
{
layerId = "A6FB1343-85A8-49E5-AB18-F683E718EB6E";
paths = (
{
closed = 1;
nodes = (
"288 429 CURVE SMOOTH",
"288 514 OFFCURVE",
"234 564 OFFCURVE",
"169 564 CURVE SMOOTH",
"105 564 OFFCURVE",
"52 514 OFFCURVE",
"52 429 CURVE SMOOTH",
"52 345 OFFCURVE",
"105 294 OFFCURVE",
"169 294 CURVE SMOOTH",
"234 294 OFFCURVE",
"288 345 OFFCURVE"
);
},
{
closed = 1;
nodes = (
"288 123 CURVE SMOOTH",
"288 207 OFFCURVE",
"234 257 OFFCURVE",
"169 257 CURVE SMOOTH",
"105 257 OFFCURVE",
"52 207 OFFCURVE",
"52 123 CURVE SMOOTH",
"52 38 OFFCURVE",
"105 -12 OFFCURVE",
"169 -12 CURVE SMOOTH",
"234 -12 OFFCURVE",
"288 38 OFFCURVE"
);
},
{
closed = 1;
nodes = (
"93 123 CURVE SMOOTH",
"93 157 OFFCURVE",
"122 184 OFFCURVE",
"169 184 CURVE SMOOTH",
"217 184 OFFCURVE",
"246 157 OFFCURVE",
"246 123 CURVE SMOOTH",
"246 88 OFFCURVE",
"217 62 OFFCURVE",
"169 62 CURVE SMOOTH",
"122 62 OFFCURVE",
"93 88 OFFCURVE"
);
},
{
closed = 1;
nodes = (
"93 429 CURVE SMOOTH",
"93 463 OFFCURVE",
"122 490 OFFCURVE",
"169 490 CURVE SMOOTH",
"217 490 OFFCURVE",
"246 463 OFFCURVE",
"246 429 CURVE SMOOTH",
"246 395 OFFCURVE",
"217 368 OFFCURVE",
"169 368 CURVE SMOOTH",
"122 368 OFFCURVE",
"93 395 OFFCURVE"
);
}
);
width = 338;
}
);
unicode = 0C83;
script = kannada;
category = Mark;
subCategory = "Spacing Combining";
},
{
glyphname = uni0C84;
layers = (
{
layerId = "59995968-E459-46B5-A8B1-181090AA0B10";
paths = (
{
closed = 1;
nodes = (
"69 512 LINE",
"60 459 OFFCURVE",
"56 408 OFFCURVE",
"56 359 CURVE SMOOTH",
"56 34 OFFCURVE",
"226 -154 OFFCURVE",
"525 -154 CURVE SMOOTH",
"793 -154 OFFCURVE",
"954 14 OFFCURVE",
"954 298 CURVE SMOOTH",
"954 549 OFFCURVE",
"817 707 OFFCURVE",
"597 707 CURVE SMOOTH",
"389 707 OFFCURVE",
"264 573 OFFCURVE",
"264 372 CURVE SMOOTH",
"264 201 OFFCURVE",
"362 99 OFFCURVE",
"523 99 CURVE SMOOTH",
"661 99 OFFCURVE",
"754 175 OFFCURVE",
"754 318 CURVE SMOOTH",
"754 427 OFFCURVE",
"697 499 OFFCURVE",
"597 499 CURVE SMOOTH",
"510 499 OFFCURVE",
"454 440 OFFCURVE",
"454 361 CURVE SMOOTH",
"454 319 OFFCURVE",
"472 299 OFFCURVE",
"496 299 CURVE SMOOTH",
"518 299 OFFCURVE",
"531 310 OFFCURVE",
"531 334 CURVE SMOOTH",
"531 355 OFFCURVE",
"520 369 OFFCURVE",
"499 369 CURVE SMOOTH",
"484 369 OFFCURVE",
"471 359 OFFCURVE",
"466 346 CURVE",
"475 357 LINE",
"475 432 OFFCURVE",
"529 474 OFFCURVE",
"597 474 CURVE SMOOTH",
"680 474 OFFCURVE",
"732 417 OFFCURVE",
"732 317 CURVE SMOOTH",
"732 193 OFFCURVE",
"650 124 OFFCURVE",
"523 124 CURVE SMOOTH",
"379 124 OFFCURVE",
"286 212 OFFCURVE",
"286 371 CURVE SMOOTH",
"286 561 OFFCURVE",
"405 682 OFFCURVE",
"597 682 CURVE SMOOTH",
"803 682 OFFCURVE",
"932 536 OFFCURVE",
"932 298 CURVE SMOOTH",
"932 29 OFFCURVE",
"778 -129 OFFCURVE",
"527 -129 CURVE SMOOTH",
"243 -129 OFFCURVE",
"79 46 OFFCURVE",
"79 359 CURVE SMOOTH",
"79 419 OFFCURVE",
"84 465 OFFCURVE",
"92 510 CURVE"
);
}
);
width = 1001;
},
{
layerId = "56938CB9-64C5-480A-8326-19BB97D61A51";
paths = (
{
closed = 1;
nodes = (
"64 529 LINE",
"53 468 OFFCURVE",
"48 412 OFFCURVE",
"48 359 CURVE SMOOTH",
"48 3 OFFCURVE",
"246 -173 OFFCURVE",
"530 -173 CURVE SMOOTH",
"795 -173 OFFCURVE",
"986 -24 OFFCURVE",
"986 298 CURVE SMOOTH",
"986 578 OFFCURVE",
"820 721 OFFCURVE",
"607 721 CURVE SMOOTH",
"404 721 OFFCURVE",
"255 589 OFFCURVE",
"255 374 CURVE SMOOTH",
"255 183 OFFCURVE",
"375 80 OFFCURVE",
"532 80 CURVE SMOOTH",
"712 80 OFFCURVE",
"784 187 OFFCURVE",
"784 315 CURVE SMOOTH",
"784 439 OFFCURVE",
"712 513 OFFCURVE",
"604 513 CURVE SMOOTH",
"502 513 OFFCURVE",
"438 445 OFFCURVE",
"438 360 CURVE SMOOTH",
"438 301 OFFCURVE",
"469 265 OFFCURVE",
"522 265 CURVE SMOOTH",
"569 265 OFFCURVE",
"588 287 OFFCURVE",
"588 330 CURVE SMOOTH",
"588 364 OFFCURVE",
"576 391 OFFCURVE",
"527 391 CURVE SMOOTH",
"497 391 OFFCURVE",
"476 375 OFFCURVE",
"453 355 CURVE",
"486 341 LINE",
"486 410 OFFCURVE",
"527 460 OFFCURVE",
"601 460 CURVE SMOOTH",
"673 460 OFFCURVE",
"723 411 OFFCURVE",
"723 314 CURVE SMOOTH",
"723 209 OFFCURVE",
"663 142 OFFCURVE",
"532 142 CURVE SMOOTH",
"422 142 OFFCURVE",
"311 203 OFFCURVE",
"311 373 CURVE SMOOTH",
"311 572 OFFCURVE",
"440 666 OFFCURVE",
"607 666 CURVE SMOOTH",
"796 666 OFFCURVE",
"922 536 OFFCURVE",
"922 298 CURVE SMOOTH",
"922 30 OFFCURVE",
"763 -97 OFFCURVE",
"532 -97 CURVE SMOOTH",
"288 -97 OFFCURVE",
"105 39 OFFCURVE",
"105 364 CURVE SMOOTH",
"105 421 OFFCURVE",
"109 471 OFFCURVE",
"120 525 CURVE"
);
}
);
width = 1034;
},
{
layerId = "A6FB1343-85A8-49E5-AB18-F683E718EB6E";
paths = (
{
closed = 1;
nodes = (
"62 538 LINE",
"50 475 OFFCURVE",
"44 418 OFFCURVE",
"44 362 CURVE SMOOTH",
"44 7 OFFCURVE",
"234 -183 OFFCURVE",
"536 -183 CURVE SMOOTH",
"829 -183 OFFCURVE",
"1005 -17 OFFCURVE",
"1005 301 CURVE SMOOTH",
"1005 572 OFFCURVE",
"847 729 OFFCURVE",
"614 729 CURVE SMOOTH",
"398 729 OFFCURVE",
"251 591 OFFCURVE",
"251 380 CURVE SMOOTH",
"251 184 OFFCURVE",
"368 74 OFFCURVE",
"538 74 CURVE SMOOTH",
"714 74 OFFCURVE",
"796 174 OFFCURVE",
"796 318 CURVE SMOOTH",
"796 447 OFFCURVE",
"722 523 OFFCURVE",
"608 523 CURVE SMOOTH",
"506 523 OFFCURVE",
"435 457 OFFCURVE",
"435 362 CURVE SMOOTH",
"435 295 OFFCURVE",
"476 261 OFFCURVE",
"531 261 CURVE SMOOTH",
"584 261 OFFCURVE",
"615 281 OFFCURVE",
"615 334 CURVE SMOOTH",
"615 374 OFFCURVE",
"595 402 OFFCURVE",
"541 402 CURVE SMOOTH",
"499 402 OFFCURVE",
"474 386 OFFCURVE",
"450 361 CURVE",
"495 339 LINE",
"495 411 OFFCURVE",
"539 459 OFFCURVE",
"605 459 CURVE SMOOTH",
"675 459 OFFCURVE",
"720 410 OFFCURVE",
"720 320 CURVE SMOOTH",
"720 217 OFFCURVE",
"657 156 OFFCURVE",
"537 156 CURVE SMOOTH",
"412 156 OFFCURVE",
"322 225 OFFCURVE",
"322 379 CURVE SMOOTH",
"322 558 OFFCURVE",
"435 664 OFFCURVE",
"612 664 CURVE SMOOTH",
"800 664 OFFCURVE",
"919 532 OFFCURVE",
"919 302 CURVE SMOOTH",
"919 46 OFFCURVE",
"776 -89 OFFCURVE",
"536 -89 CURVE SMOOTH",
"271 -89 OFFCURVE",
"115 64 OFFCURVE",
"115 367 CURVE SMOOTH",
"115 421 OFFCURVE",
"120 479 OFFCURVE",
"131 532 CURVE"
);
}
);
width = 1049;
},
{
layerId = "389B3055-E02B-410E-AE74-C99A384F2C74";
paths = (
{
closed = 1;
nodes = (
"60 543 LINE",
"48 479 OFFCURVE",
"42 421 OFFCURVE",
"42 364 CURVE SMOOTH",
"42 9 OFFCURVE",
"227 -189 OFFCURVE",
"540 -189 CURVE SMOOTH",
"850 -189 OFFCURVE",
"1017 -13 OFFCURVE",
"1017 303 CURVE SMOOTH",
"1017 568 OFFCURVE",
"864 734 OFFCURVE",
"618 734 CURVE SMOOTH",
"395 734 OFFCURVE",
"249 593 OFFCURVE",
"249 383 CURVE SMOOTH",
"249 185 OFFCURVE",
"364 71 OFFCURVE",
"542 71 CURVE SMOOTH",
"715 71 OFFCURVE",
"804 166 OFFCURVE",
"804 320 CURVE SMOOTH",
"804 452 OFFCURVE",
"728 529 OFFCURVE",
"611 529 CURVE SMOOTH",
"508 529 OFFCURVE",
"433 464 OFFCURVE",
"433 364 CURVE SMOOTH",
"433 292 OFFCURVE",
"481 259 OFFCURVE",
"537 259 CURVE SMOOTH",
"593 259 OFFCURVE",
"631 278 OFFCURVE",
"631 337 CURVE SMOOTH",
"631 380 OFFCURVE",
"606 408 OFFCURVE",
"549 408 CURVE SMOOTH",
"501 408 OFFCURVE",
"472 392 OFFCURVE",
"448 365 CURVE",
"501 337 LINE",
"501 411 OFFCURVE",
"547 459 OFFCURVE",
"608 459 CURVE SMOOTH",
"677 459 OFFCURVE",
"718 409 OFFCURVE",
"718 323 CURVE SMOOTH",
"718 222 OFFCURVE",
"653 165 OFFCURVE",
"540 165 CURVE SMOOTH",
"406 165 OFFCURVE",
"329 239 OFFCURVE",
"329 382 CURVE SMOOTH",
"329 549 OFFCURVE",
"432 663 OFFCURVE",
"615 663 CURVE SMOOTH",
"803 663 OFFCURVE",
"917 529 OFFCURVE",
"917 304 CURVE SMOOTH",
"917 56 OFFCURVE",
"784 -84 OFFCURVE",
"539 -84 CURVE SMOOTH",
"260 -84 OFFCURVE",
"121 79 OFFCURVE",
"121 369 CURVE SMOOTH",
"121 421 OFFCURVE",
"126 484 OFFCURVE",
"138 537 CURVE"
);
}
);
width = 1059;
}
);
unicode = 0C84;
script = kannada;
category = Punctuation;
subCategory = Other;
},
{
glyphname = a_kannada;
layers = (
{
anchors = (
{
name = top;
position = "{391, 503}";
}
);
layerId = "59995968-E459-46B5-A8B1-181090AA0B10";
paths = (
{
closed = 1;
nodes = (
"726 292 CURVE SMOOTH",
"726 405 OFFCURVE",
"670 510 OFFCURVE",
"573 510 CURVE SMOOTH",
"514 510 OFFCURVE",
"472 471 OFFCURVE",
"472 411 CURVE SMOOTH",
"472 349 OFFCURVE",
"515 307 OFFCURVE",
"571 290 CURVE",
"539 290 OFFCURVE",
"496 290 OFFCURVE",
"463 290 CURVE SMOOTH",
"375 290 LINE",
"374 266 LINE",
"636 266 LINE",
"636 291 LINE",
"573 291 OFFCURVE",
"494 334 OFFCURVE",
"494 410 CURVE SMOOTH",
"494 460 OFFCURVE",
"528 486 OFFCURVE",
"573 486 CURVE SMOOTH",
"660 486 OFFCURVE",
"704 389 OFFCURVE",
"704 294 CURVE SMOOTH",
"704 148 OFFCURVE",
"622 18 OFFCURVE",
"391 18 CURVE SMOOTH",
"161 18 OFFCURVE",
"78 145 OFFCURVE",
"78 277 CURVE SMOOTH",
"78 386 OFFCURVE",
"132 468 OFFCURVE",
"194 483 CURVE",
"193 487 LINE",
"159 468 OFFCURVE",
"142 434 OFFCURVE",
"142 391 CURVE SMOOTH",
"142 327 OFFCURVE",
"180 278 OFFCURVE",
"248 278 CURVE SMOOTH",
"315 278 OFFCURVE",
"349 327 OFFCURVE",
"349 394 CURVE SMOOTH",
"349 461 OFFCURVE",
"309 510 OFFCURVE",
"240 510 CURVE SMOOTH",
"133 510 OFFCURVE",
"56 417 OFFCURVE",
"56 275 CURVE SMOOTH",
"56 113 OFFCURVE",
"169 -7 OFFCURVE",
"392 -7 CURVE SMOOTH",
"614 -7 OFFCURVE",
"726 117 OFFCURVE"
);
},
{
closed = 1;
nodes = (
"165 394 CURVE SMOOTH",
"165 449 OFFCURVE",
"196 486 OFFCURVE",
"247 486 CURVE SMOOTH",
"296 486 OFFCURVE",
"327 449 OFFCURVE",
"327 394 CURVE SMOOTH",
"327 338 OFFCURVE",
"303 302 OFFCURVE",
"248 302 CURVE SMOOTH",
"192 302 OFFCURVE",
"165 338 OFFCURVE"
);
}
);
width = 782;
},
{
anchors = (
{
name = top;
position = "{429, 566}";
}
);
layerId = "389B3055-E02B-410E-AE74-C99A384F2C74";
paths = (
{
closed = 1;
nodes = (
"811 313 CURVE SMOOTH",
"811 449 OFFCURVE",
"737 564 OFFCURVE",
"609 564 CURVE SMOOTH",
"529 564 OFFCURVE",
"484 520 OFFCURVE",
"484 461 CURVE SMOOTH",
"484 411 OFFCURVE",
"512 377 OFFCURVE",
"555 356 CURVE",
"535 360 OFFCURVE",
"511 361 OFFCURVE",
"488 361 CURVE SMOOTH",
"413 361 LINE",
"406 246 LINE",
"676 246 LINE",
"676 357 LINE",
"625 357 OFFCURVE",
"590 372 OFFCURVE",
"590 403 CURVE SMOOTH",
"590 429 OFFCURVE",
"611 445 OFFCURVE",
"647 445 CURVE SMOOTH",
"707 445 OFFCURVE",
"738 404 OFFCURVE",
"738 342 CURVE SMOOTH",
"738 249 OFFCURVE",
"673 167 OFFCURVE",
"418 167 CURVE SMOOTH",
"182 167 OFFCURVE",
"116 231 OFFCURVE",
"116 322 CURVE SMOOTH",
"116 369 OFFCURVE",
"136 409 OFFCURVE",
"176 433 CURVE",
"152 453 LINE",
"149 443 OFFCURVE",
"145 423 OFFCURVE",
"145 405 CURVE SMOOTH",
"145 323 OFFCURVE",
"189 267 OFFCURVE",
"266 267 CURVE SMOOTH",
"349 267 OFFCURVE",
"383 326 OFFCURVE",
"383 412 CURVE SMOOTH",
"383 497 OFFCURVE",
"343 564 OFFCURVE",
"253 564 CURVE SMOOTH",
"139 564 OFFCURVE",
"48 460 OFFCURVE",
"48 308 CURVE SMOOTH",
"48 95 OFFCURVE",
"170 -12 OFFCURVE",
"420 -12 CURVE SMOOTH",
"689 -12 OFFCURVE",
"811 91 OFFCURVE"
);
},
{
closed = 1;
nodes = (
"207 416 CURVE SMOOTH",
"207 433 OFFCURVE",
"223 445 OFFCURVE",
"262 445 CURVE SMOOTH",
"304 445 OFFCURVE",
"321 433 OFFCURVE",
"321 416 CURVE SMOOTH",
"321 398 OFFCURVE",
"304 386 OFFCURVE",
"262 386 CURVE SMOOTH",
"223 386 OFFCURVE",
"207 398 OFFCURVE"
);
}
);
width = 859;
},
{
anchors = (
{
name = top;
position = "{414, 547}";
}
);
layerId = "56938CB9-64C5-480A-8326-19BB97D61A51";
paths = (
{
closed = 1;
nodes = (
"775 312 CURVE SMOOTH",
"775 447 OFFCURVE",
"714 558 OFFCURVE",
"608 558 CURVE SMOOTH",
"541 558 OFFCURVE",
"493 513 OFFCURVE",
"493 451 CURVE SMOOTH",
"493 402 OFFCURVE",
"521 364 OFFCURVE",
"567 339 CURVE",
"543 341 OFFCURVE",
"516 341 OFFCURVE",
"490 341 CURVE SMOOTH",
"397 341 LINE",
"392 263 LINE",
"678 263 LINE",
"678 337 LINE",
"613 337 OFFCURVE",
"560 368 OFFCURVE",
"560 424 CURVE SMOOTH",
"560 462 OFFCURVE",
"586 485 OFFCURVE",
"624 485 CURVE SMOOTH",
"691 485 OFFCURVE",
"730 414 OFFCURVE",
"730 312 CURVE SMOOTH",
"730 190 OFFCURVE",
"660 86 OFFCURVE",
"413 86 CURVE SMOOTH",
"177 86 OFFCURVE",
"100 181 OFFCURVE",
"100 302 CURVE SMOOTH",
"100 377 OFFCURVE",
"123 427 OFFCURVE",
"166 466 CURVE",
"160 469 LINE",
"152 457 OFFCURVE",
"147 437 OFFCURVE",
"147 411 CURVE SMOOTH",
"147 331 OFFCURVE",
"187 280 OFFCURVE",
"261 280 CURVE SMOOTH",
"335 280 OFFCURVE",
"373 336 OFFCURVE",
"373 418 CURVE SMOOTH",
"373 494 OFFCURVE",
"337 558 OFFCURVE",
"255 558 CURVE SMOOTH",
"139 558 OFFCURVE",
"54 456 OFFCURVE",
"54 304 CURVE SMOOTH",
"54 97 OFFCURVE",
"172 -12 OFFCURVE",
"413 -12 CURVE SMOOTH",
"662 -12 OFFCURVE",
"775 93 OFFCURVE"
);
},
{
closed = 1;
nodes = (
"187 418 CURVE SMOOTH",
"187 455 OFFCURVE",
"212 482 OFFCURVE",
"260 482 CURVE SMOOTH",
"308 482 OFFCURVE",
"329 452 OFFCURVE",
"329 419 CURVE SMOOTH",
"329 383 OFFCURVE",
"309 355 OFFCURVE",
"258 355 CURVE SMOOTH",
"212 355 OFFCURVE",
"187 380 OFFCURVE"
);
}
);
width = 829;
},
{
anchors = (
{
name = top;
position = "{424, 561}";
}
);
layerId = "A6FB1343-85A8-49E5-AB18-F683E718EB6E";
paths = (
{
closed = 1;
nodes = (
"799 313 CURVE SMOOTH",
"799 450 OFFCURVE",
"730 564 OFFCURVE",
"610 564 CURVE SMOOTH",
"535 564 OFFCURVE",
"488 519 OFFCURVE",
"488 459 CURVE SMOOTH",
"488 410 OFFCURVE",
"516 375 OFFCURVE",
"560 352 CURVE",
"538 354 OFFCURVE",
"514 355 OFFCURVE",
"490 355 CURVE SMOOTH",
"407 355 LINE",
"401 253 LINE",
"678 253 LINE",
"678 351 LINE",
"622 351 OFFCURVE",
"581 372 OFFCURVE",
"581 412 CURVE SMOOTH",
"581 442 OFFCURVE",
"604 461 OFFCURVE",
"640 461 CURVE SMOOTH",
"702 461 OFFCURVE",
"736 409 OFFCURVE",
"736 331 CURVE SMOOTH",
"736 228 OFFCURVE",
"669 138 OFFCURVE",
"417 138 CURVE SMOOTH",
"181 138 OFFCURVE",
"110 212 OFFCURVE",
"110 315 CURVE SMOOTH",
"110 372 OFFCURVE",
"130 414 OFFCURVE",
"171 446 CURVE",
"154 458 LINE",
"150 448 OFFCURVE",
"146 429 OFFCURVE",
"146 409 CURVE SMOOTH",
"146 327 OFFCURVE",
"189 272 OFFCURVE",
"264 272 CURVE SMOOTH",
"344 272 OFFCURVE",
"380 330 OFFCURVE",
"380 416 CURVE SMOOTH",
"380 497 OFFCURVE",
"342 564 OFFCURVE",
"254 564 CURVE SMOOTH",
"139 564 OFFCURVE",
"50 460 OFFCURVE",
"50 308 CURVE SMOOTH",
"50 95 OFFCURVE",
"171 -12 OFFCURVE",
"418 -12 CURVE SMOOTH",
"680 -12 OFFCURVE",
"799 91 OFFCURVE"
);
},
{
closed = 1;
nodes = (
"200 418 CURVE SMOOTH",
"200 442 OFFCURVE",
"219 459 OFFCURVE",
"262 459 CURVE SMOOTH",
"306 459 OFFCURVE",
"324 440 OFFCURVE",
"324 418 CURVE SMOOTH",
"324 395 OFFCURVE",
"306 376 OFFCURVE",
"261 376 CURVE SMOOTH",
"219 376 OFFCURVE",
"200 393 OFFCURVE"
);
}
);
width = 849;
}
);
leftKerningGroup = KND_a_L;
rightKerningGroup = KND_a_R;
unicode = 0C85;
script = kannada;
category = Letter;
subCategory = Other;
},
{
glyphname = aa_kannada;
layers = (
{
anchors = (
{
name = top;
position = "{381, 503}";
}
);
layerId = "59995968-E459-46B5-A8B1-181090AA0B10";
paths = (
{
closed = 1;
nodes = (
"678 157 CURVE SMOOTH",
"678 217 OFFCURVE",
"648 253 OFFCURVE",
"600 283 CURVE",
"582 272 LINE",
"627 246 OFFCURVE",
"656 211 OFFCURVE",
"656 159 CURVE SMOOTH",
"656 83 OFFCURVE",
"583 18 OFFCURVE",
"403 18 CURVE SMOOTH",
"165 18 OFFCURVE",
"80 145 OFFCURVE",
"80 277 CURVE SMOOTH",
"80 386 OFFCURVE",
"134 468 OFFCURVE",
"196 483 CURVE",
"195 487 LINE",
"161 468 OFFCURVE",
"144 434 OFFCURVE",
"144 391 CURVE SMOOTH",
"144 327 OFFCURVE",
"182 278 OFFCURVE",
"250 278 CURVE SMOOTH",
"317 278 OFFCURVE",
"351 327 OFFCURVE",
"351 394 CURVE SMOOTH",
"351 461 OFFCURVE",
"311 510 OFFCURVE",
"242 510 CURVE SMOOTH",
"135 510 OFFCURVE",
"58 417 OFFCURVE",
"58 275 CURVE SMOOTH",
"58 113 OFFCURVE",
"174 -7 OFFCURVE",
"403 -7 CURVE SMOOTH",
"589 -7 OFFCURVE",
"678 67 OFFCURVE"
);
},
{
closed = 1;
nodes = (
"167 394 CURVE SMOOTH",
"167 449 OFFCURVE",
"198 486 OFFCURVE",
"249 486 CURVE SMOOTH",
"298 486 OFFCURVE",
"329 449 OFFCURVE",
"329 394 CURVE SMOOTH",
"329 338 OFFCURVE",
"305 302 OFFCURVE",
"250 302 CURVE SMOOTH",
"194 302 OFFCURVE",
"167 338 OFFCURVE"
);
},
{
closed = 1;
nodes = (
"574 266 LINE SMOOTH",
"652 266 OFFCURVE",
"708 313 OFFCURVE",
"708 395 CURVE SMOOTH",
"708 460 OFFCURVE",
"667 510 OFFCURVE",
"599 510 CURVE SMOOTH",
"530 510 OFFCURVE",
"487 460 OFFCURVE",
"487 405 CURVE SMOOTH",
"487 336 OFFCURVE",
"537 301 OFFCURVE",
"577 276 CURVE",
"595 287 LINE",
"551 313 OFFCURVE",
"510 345 OFFCURVE",
"510 403 CURVE SMOOTH",
"510 449 OFFCURVE",
"541 486 OFFCURVE",
"599 486 CURVE SMOOTH",
"657 486 OFFCURVE",
"685 449 OFFCURVE",
"685 395 CURVE SMOOTH",
"685 327 OFFCURVE",
"646 290 OFFCURVE",
"574 290 CURVE SMOOTH",
"508 290 LINE SMOOTH",
"486 290 OFFCURVE",
"472 290 OFFCURVE",
"456 290 CURVE SMOOTH",
"367 290 LINE",
"366 266 LINE"
);
}
);
width = 762;
},
{
anchors = (
{
name = top;
position = "{391, 566}";
}
);
layerId = "389B3055-E02B-410E-AE74-C99A384F2C74";
paths = (
{
closed = 1;
nodes = (
"709 175 CURVE SMOOTH",
"709 230 OFFCURVE",
"679 272 OFFCURVE",
"633 301 CURVE",
"577 293 LINE",
"606 277 OFFCURVE",
"626 257 OFFCURVE",
"626 234 CURVE SMOOTH",
"626 188 OFFCURVE",
"561 167 OFFCURVE",
"418 167 CURVE SMOOTH",
"182 167 OFFCURVE",
"116 231 OFFCURVE",
"116 327 CURVE SMOOTH",
"116 378 OFFCURVE",
"136 421 OFFCURVE",
"176 448 CURVE",
"152 468 LINE",
"149 458 OFFCURVE",
"145 438 OFFCURVE",
"145 420 CURVE SMOOTH",
"145 338 OFFCURVE",
"189 281 OFFCURVE",
"266 281 CURVE SMOOTH",
"349 281 OFFCURVE",
"383 340 OFFCURVE",
"383 427 CURVE SMOOTH",
"383 511 OFFCURVE",
"343 579 OFFCURVE",
"253 579 CURVE SMOOTH",
"139 579 OFFCURVE",
"48 473 OFFCURVE",
"48 316 CURVE SMOOTH",
"48 98 OFFCURVE",
"180 -12 OFFCURVE",
"420 -12 CURVE SMOOTH",
"628 -12 OFFCURVE",
"709 83 OFFCURVE"
);
},
{
closed = 1;
nodes = (
"207 430 CURVE SMOOTH",
"207 447 OFFCURVE",
"223 459 OFFCURVE",
"262 459 CURVE SMOOTH",
"304 459 OFFCURVE",
"321 447 OFFCURVE",
"321 430 CURVE SMOOTH",
"321 413 OFFCURVE",
"304 400 OFFCURVE",
"262 400 CURVE SMOOTH",
"223 400 OFFCURVE",
"207 413 OFFCURVE"
);
},
{
closed = 1;
nodes = (
"603 273 LINE SMOOTH",
"696 273 OFFCURVE",
"738 338 OFFCURVE",
"738 421 CURVE SMOOTH",
"738 504 OFFCURVE",
"696 579 OFFCURVE",
"607 579 CURVE SMOOTH",
"532 579 OFFCURVE",
"483 529 OFFCURVE",
"483 463 CURVE SMOOTH",
"483 398 OFFCURVE",
"527 355 OFFCURVE",
"590 329 CURVE",
"605 353 LINE",
"578 368 OFFCURVE",
"554 386 OFFCURVE",
"554 414 CURVE SMOOTH",
"554 445 OFFCURVE",
"580 459 OFFCURVE",
"616 459 CURVE SMOOTH",
"652 459 OFFCURVE",
"676 448 OFFCURVE",
"676 423 CURVE SMOOTH",
"676 399 OFFCURVE",
"656 386 OFFCURVE",
"608 386 CURVE SMOOTH",
"529 386 LINE",
"503 388 OFFCURVE",
"476 389 OFFCURVE",
"453 389 CURVE SMOOTH",
"404 389 LINE",
"397 273 LINE"
);
}
);
width = 782;
},
{
anchors = (
{
name = top;
position = "{392, 547}";
}
);
layerId = "56938CB9-64C5-480A-8326-19BB97D61A51";
paths = (
{
closed = 1;
nodes = (
"705 176 CURVE SMOOTH",
"705 231 OFFCURVE",
"676 265 OFFCURVE",
"611 309 CURVE",
"586 280 LINE",
"633 255 OFFCURVE",
"650 229 OFFCURVE",
"650 193 CURVE SMOOTH",
"650 145 OFFCURVE",
"609 86 OFFCURVE",
"414 86 CURVE SMOOTH",
"177 86 OFFCURVE",
"100 181 OFFCURVE",
"100 302 CURVE SMOOTH",
"100 377 OFFCURVE",
"123 427 OFFCURVE",
"166 466 CURVE",
"160 469 LINE",
"152 457 OFFCURVE",
"147 437 OFFCURVE",
"147 411 CURVE SMOOTH",
"147 331 OFFCURVE",
"187 280 OFFCURVE",
"261 280 CURVE SMOOTH",
"335 280 OFFCURVE",
"373 336 OFFCURVE",
"373 418 CURVE SMOOTH",
"373 494 OFFCURVE",
"337 558 OFFCURVE",
"255 558 CURVE SMOOTH",
"139 558 OFFCURVE",
"54 456 OFFCURVE",
"54 304 CURVE SMOOTH",
"54 97 OFFCURVE",
"172 -12 OFFCURVE",
"414 -12 CURVE SMOOTH",
"645 -12 OFFCURVE",
"705 97 OFFCURVE"
);
},
{
closed = 1;
nodes = (
"187 418 CURVE SMOOTH",
"187 455 OFFCURVE",
"212 482 OFFCURVE",
"260 482 CURVE SMOOTH",
"308 482 OFFCURVE",
"329 452 OFFCURVE",
"329 419 CURVE SMOOTH",
"329 383 OFFCURVE",
"309 355 OFFCURVE",
"258 355 CURVE SMOOTH",
"212 355 OFFCURVE",
"187 380 OFFCURVE"
);
},
{
closed = 1;
nodes = (
"599 263 LINE SMOOTH",
"690 263 OFFCURVE",
"734 324 OFFCURVE",
"734 411 CURVE SMOOTH",
"734 496 OFFCURVE",
"693 558 OFFCURVE",
"606 558 CURVE SMOOTH",
"533 558 OFFCURVE",
"487 505 OFFCURVE",
"487 442 CURVE SMOOTH",
"487 376 OFFCURVE",
"527 331 OFFCURVE",
"584 308 CURVE",
"612 324 LINE",
"571 347 OFFCURVE",
"542 373 OFFCURVE",
"542 415 CURVE SMOOTH",
"542 450 OFFCURVE",
"566 482 OFFCURVE",
"610 482 CURVE SMOOTH",
"659 482 OFFCURVE",
"679 448 OFFCURVE",
"679 411 CURVE SMOOTH",
"679 372 OFFCURVE",
"657 339 OFFCURVE",
"608 339 CURVE SMOOTH",
"530 339 LINE",
"506 341 OFFCURVE",
"482 341 OFFCURVE",
"458 341 CURVE SMOOTH",
"396 341 LINE",
"391 263 LINE"
);
}
);
width = 784;
},
{
anchors = (
{
name = top;
position = "{391, 561}";
}
);
layerId = "A6FB1343-85A8-49E5-AB18-F683E718EB6E";
paths = (
{
closed = 1;
nodes = (
"709 176 CURVE SMOOTH",
"709 231 OFFCURVE",
"679 270 OFFCURVE",
"625 305 CURVE",
"581 288 LINE",
"617 269 OFFCURVE",
"635 247 OFFCURVE",
"635 219 CURVE SMOOTH",
"635 173 OFFCURVE",
"581 138 OFFCURVE",
"417 138 CURVE SMOOTH",
"181 138 OFFCURVE",
"110 213 OFFCURVE",
"110 318 CURVE SMOOTH",
"110 377 OFFCURVE",
"130 422 OFFCURVE",
"171 455 CURVE",
"154 467 LINE",
"150 457 OFFCURVE",
"146 438 OFFCURVE",
"146 417 CURVE SMOOTH",
"146 335 OFFCURVE",
"189 281 OFFCURVE",
"264 281 CURVE SMOOTH",
"344 281 OFFCURVE",
"380 339 OFFCURVE",
"380 425 CURVE SMOOTH",
"380 506 OFFCURVE",
"342 573 OFFCURVE",
"254 573 CURVE SMOOTH",
"139 573 OFFCURVE",
"50 468 OFFCURVE",
"50 313 CURVE SMOOTH",
"50 97 OFFCURVE",
"177 -12 OFFCURVE",
"418 -12 CURVE SMOOTH",
"637 -12 OFFCURVE",
"709 89 OFFCURVE"
);
},
{
closed = 1;
nodes = (
"200 427 CURVE SMOOTH",
"200 451 OFFCURVE",
"219 468 OFFCURVE",
"262 468 CURVE SMOOTH",
"306 468 OFFCURVE",
"324 449 OFFCURVE",
"324 427 CURVE SMOOTH",
"324 403 OFFCURVE",
"306 385 OFFCURVE",
"261 385 CURVE SMOOTH",
"219 385 OFFCURVE",
"200 402 OFFCURVE"
);
},
{
closed = 1;
nodes = (
"603 269 LINE SMOOTH",
"695 269 OFFCURVE",
"737 333 OFFCURVE",
"737 417 CURVE SMOOTH",
"737 502 OFFCURVE",
"696 573 OFFCURVE",
"607 573 CURVE SMOOTH",
"533 573 OFFCURVE",
"484 521 OFFCURVE",
"484 456 CURVE SMOOTH",
"484 391 OFFCURVE",
"527 347 OFFCURVE",
"588 322 CURVE",
"609 343 LINE",
"576 361 OFFCURVE",
"550 382 OFFCURVE",
"550 415 CURVE SMOOTH",
"550 447 OFFCURVE",
"576 468 OFFCURVE",
"614 468 CURVE SMOOTH",
"655 468 OFFCURVE",
"677 448 OFFCURVE",
"677 419 CURVE SMOOTH",
"677 391 OFFCURVE",
"657 370 OFFCURVE",
"609 370 CURVE SMOOTH",
"530 370 LINE",
"505 372 OFFCURVE",
"479 372 OFFCURVE",
"455 372 CURVE SMOOTH",
"402 372 LINE",
"396 269 LINE"
);
}
);
width = 783;
}
);
leftKerningGroup = KND_a_L;
rightKerningGroup = KND_aa_R;
unicode = 0C86;
script = kannada;
category = Letter;
subCategory = Other;
},
{
glyphname = i_kannada;
layers = (
{
anchors = (
{
name = top;
position = "{341, 503}";
}
);
layerId = "59995968-E459-46B5-A8B1-181090AA0B10";
paths = (
{
closed = 1;
nodes = (
"619 -64 CURVE SMOOTH",
"619 90 OFFCURVE",
"499 231 OFFCURVE",
"324 231 CURVE SMOOTH",
"227 231 OFFCURVE",
"159 183 OFFCURVE",
"159 112 CURVE SMOOTH",
"159 34 OFFCURVE",
"232 -10 OFFCURVE",
"313 -10 CURVE SMOOTH",
"492 -10 OFFCURVE",
"611 144 OFFCURVE",
"611 327 CURVE SMOOTH",
"611 427 OFFCURVE",
"563 513 OFFCURVE",
"464 513 CURVE SMOOTH",
"374 513 OFFCURVE",
"332 448 OFFCURVE",
"323 383 CURVE",
"336 383 LINE",
"328 448 OFFCURVE",
"277 513 OFFCURVE",
"190 513 CURVE SMOOTH",
"105 513 OFFCURVE",
"50 451 OFFCURVE",
"50 379 CURVE SMOOTH",
"50 333 OFFCURVE",
"71 298 OFFCURVE",
"101 269 CURVE",
"116 281 LINE",
"89 310 OFFCURVE",
"72 338 OFFCURVE",
"72 377 CURVE SMOOTH",
"72 442 OFFCURVE",
"117 488 OFFCURVE",
"190 488 CURVE SMOOTH",
"274 488 OFFCURVE",
"318 423 OFFCURVE",
"318 350 CURVE",
"341 350 LINE",
"341 435 OFFCURVE",
"384 488 OFFCURVE",
"464 488 CURVE SMOOTH",
"550 488 OFFCURVE",
"589 414 OFFCURVE",
"589 325 CURVE SMOOTH",
"589 158 OFFCURVE",
"480 15 OFFCURVE",
"314 15 CURVE SMOOTH",
"245 15 OFFCURVE",
"182 46 OFFCURVE",
"182 112 CURVE SMOOTH",
"182 174 OFFCURVE",
"242 208 OFFCURVE",
"326 208 CURVE SMOOTH",
"492 208 OFFCURVE",
"594 82 OFFCURVE",
"594 -37 CURVE SMOOTH",
"594 -81 OFFCURVE",
"577 -97 OFFCURVE",
"542 -111 CURVE",
"542 -131 OFFCURVE",
"555 -146 OFFCURVE",
"577 -146 CURVE SMOOTH",
"604 -146 OFFCURVE",
"619 -115 OFFCURVE"
);
}
);
width = 683;
},
{
anchors = (
{
name = top;
position = "{361, 566}";
}
);
layerId = "389B3055-E02B-410E-AE74-C99A384F2C74";
paths = (
{
closed = 1;
nodes = (
"668 -42 CURVE SMOOTH",
"668 124 OFFCURVE",
"521 284 OFFCURVE",
"355 284 CURVE SMOOTH",
"243 284 OFFCURVE",
"171 221 OFFCURVE",
"171 136 CURVE SMOOTH",
"171 53 OFFCURVE",
"246 -12 OFFCURVE",
"361 -12 CURVE SMOOTH",
"543 -12 OFFCURVE",
"659 162 OFFCURVE",
"659 341 CURVE SMOOTH",
"659 476 OFFCURVE",
"605 579 OFFCURVE",
"494 579 CURVE SMOOTH",
"407 579 OFFCURVE",
"355 512 OFFCURVE",
"349 425 CURVE",
"360 425 LINE",
"352 506 OFFCURVE",
"296 579 OFFCURVE",
"199 579 CURVE SMOOTH",
"100 579 OFFCURVE",
"40 509 OFFCURVE",
"40 426 CURVE SMOOTH",
"40 360 OFFCURVE",
"69 316 OFFCURVE",
"114 284 CURVE",
"150 316 LINE",
"141 326 OFFCURVE",
"136 337 OFFCURVE",
"136 351 CURVE SMOOTH",
"136 383 OFFCURVE",
"168 404 OFFCURVE",
"227 404 CURVE SMOOTH",
"287 404 OFFCURVE",
"319 378 OFFCURVE",
"326 336 CURVE",
"381 336 LINE",
"387 378 OFFCURVE",
"423 404 OFFCURVE",
"478 404 CURVE SMOOTH",
"543 404 OFFCURVE",
"579 372 OFFCURVE",
"579 314 CURVE SMOOTH",
"579 210 OFFCURVE",
"461 152 OFFCURVE",
"357 152 CURVE SMOOTH",
"307 152 OFFCURVE",
"284 162 OFFCURVE",
"284 181 CURVE SMOOTH",
"284 199 OFFCURVE",
"307 210 OFFCURVE",
"358 210 CURVE SMOOTH",
"493 210 OFFCURVE",
"569 121 OFFCURVE",
"569 34 CURVE SMOOTH",
"569 -25 OFFCURVE",
"540 -58 OFFCURVE",
"489 -77 CURVE",
"489 -131 OFFCURVE",
"522 -170 OFFCURVE",
"574 -170 CURVE SMOOTH",
"633 -170 OFFCURVE",
"668 -122 OFFCURVE"
);
}
);
width = 722;
},
{
anchors = (
{
name = top;
position = "{347, 547}";
}
);
layerId = "56938CB9-64C5-480A-8326-19BB97D61A51";
paths = (
{
closed = 1;
nodes = (
"634 -59 CURVE SMOOTH",
"634 72 OFFCURVE",
"509 262 OFFCURVE",
"317 262 CURVE SMOOTH",
"215 262 OFFCURVE",
"150 206 OFFCURVE",
"150 129 CURVE SMOOTH",
"150 49 OFFCURVE",
"217 -12 OFFCURVE",
"325 -12 CURVE SMOOTH",
"484 -12 OFFCURVE",
"626 135 OFFCURVE",
"626 337 CURVE SMOOTH",
"626 458 OFFCURVE",
"578 559 OFFCURVE",
"462 559 CURVE SMOOTH",
"388 559 OFFCURVE",
"331 512 OFFCURVE",
"324 431 CURVE",
"339 431 LINE",
"325 506 OFFCURVE",
"274 559 OFFCURVE",
"191 559 CURVE SMOOTH",
"105 559 OFFCURVE",
"44 500 OFFCURVE",
"44 420 CURVE SMOOTH",
"44 364 OFFCURVE",
"65 322 OFFCURVE",
"102 286 CURVE",
"129 309 LINE",
"106 334 OFFCURVE",
"95 356 OFFCURVE",
"95 387 CURVE SMOOTH",
"95 433 OFFCURVE",
"131 469 OFFCURVE",
"197 469 CURVE SMOOTH",
"266 469 OFFCURVE",
"305 427 OFFCURVE",
"305 364 CURVE",
"355 364 LINE",
"355 428 OFFCURVE",
"397 469 OFFCURVE",
"461 469 CURVE SMOOTH",
"540 469 OFFCURVE",
"580 409 OFFCURVE",
"580 323 CURVE SMOOTH",
"580 188 OFFCURVE",
"471 83 OFFCURVE",
"320 83 CURVE SMOOTH",
"245 83 OFFCURVE",
"209 111 OFFCURVE",
"209 150 CURVE SMOOTH",
"209 192 OFFCURVE",
"248 218 OFFCURVE",
"318 218 CURVE SMOOTH",
"458 218 OFFCURVE",
"566 104 OFFCURVE",
"566 -5 CURVE SMOOTH",
"566 -48 OFFCURVE",
"548 -73 OFFCURVE",
"513 -88 CURVE",
"513 -120 OFFCURVE",
"534 -146 OFFCURVE",
"570 -146 CURVE SMOOTH",
"608 -146 OFFCURVE",
"634 -114 OFFCURVE"
);
}
);
width = 694;
},
{
anchors = (
{
name = top;
position = "{356, 561}";
}
);
layerId = "A6FB1343-85A8-49E5-AB18-F683E718EB6E";
paths = (
{
closed = 1;
nodes = (
"656 -48 CURVE SMOOTH",
"656 102 OFFCURVE",
"517 276 OFFCURVE",
"340 276 CURVE SMOOTH",
"232 276 OFFCURVE",
"163 216 OFFCURVE",
"163 134 CURVE SMOOTH",
"163 52 OFFCURVE",
"234 -12 OFFCURVE",
"348 -12 CURVE SMOOTH",
"520 -12 OFFCURVE",
"647 151 OFFCURVE",
"647 340 CURVE SMOOTH",
"647 470 OFFCURVE",
"595 573 OFFCURVE",
"482 573 CURVE SMOOTH",
"401 573 OFFCURVE",
"346 515 OFFCURVE",
"339 430 CURVE",
"352 430 LINE",
"342 508 OFFCURVE",
"288 573 OFFCURVE",
"196 573 CURVE SMOOTH",
"103 573 OFFCURVE",
"42 507 OFFCURVE",
"42 425 CURVE SMOOTH",
"42 363 OFFCURVE",
"68 319 OFFCURVE",
"110 286 CURVE",
"143 314 LINE",
"128 330 OFFCURVE",
"121 345 OFFCURVE",
"121 365 CURVE SMOOTH",
"121 403 OFFCURVE",
"155 429 OFFCURVE",
"216 429 CURVE SMOOTH",
"279 429 OFFCURVE",
"313 398 OFFCURVE",
"317 348 CURVE",
"372 348 LINE",
"376 398 OFFCURVE",
"414 429 OFFCURVE",
"472 429 CURVE SMOOTH",
"542 429 OFFCURVE",
"580 386 OFFCURVE",
"580 317 CURVE SMOOTH",
"580 203 OFFCURVE",
"465 127 OFFCURVE",
"343 127 CURVE SMOOTH",
"283 127 OFFCURVE",
"256 145 OFFCURVE",
"256 170 CURVE SMOOTH",
"256 197 OFFCURVE",
"285 214 OFFCURVE",
"342 214 CURVE SMOOTH",
"478 214 OFFCURVE",
"567 115 OFFCURVE",
"567 20 CURVE SMOOTH",
"567 -33 OFFCURVE",
"543 -63 OFFCURVE",
"498 -81 CURVE",
"498 -126 OFFCURVE",
"527 -161 OFFCURVE",
"573 -161 CURVE SMOOTH",
"624 -161 OFFCURVE",
"656 -119 OFFCURVE"
);
}
);
width = 712;
}
);
leftKerningGroup = KND_nya_L;
rightKerningGroup = KND_i_R;
unicode = 0C87;
script = kannada;
category = Letter;
subCategory = Other;
},
{
glyphname = ii_kannada;
layers = (
{
anchors = (
{
name = top;
position = "{470, 503}";
}
);
layerId = "59995968-E459-46B5-A8B1-181090AA0B10";
paths = (
{
closed = 1;
nodes = (
"844 -12 OFFCURVE",
"858 9 OFFCURVE",
"858 42 CURVE SMOOTH",
"858 165 OFFCURVE",
"697 239 OFFCURVE",
"697 371 CURVE SMOOTH",
"697 438 OFFCURVE",
"733 472 OFFCURVE",
"781 472 CURVE SMOOTH",
"833 472 OFFCURVE",
"865 440 OFFCURVE",
"865 378 CURVE SMOOTH",
"865 297 OFFCURVE",
"804 256 OFFCURVE",
"711 256 CURVE SMOOTH",
"37 256 LINE",
"34 233 LINE",
"714 233 LINE SMOOTH",
"813 233 OFFCURVE",
"887 285 OFFCURVE",
"887 380 CURVE SMOOTH",
"887 449 OFFCURVE",
"847 496 OFFCURVE",
"781 496 CURVE SMOOTH",
"715 496 OFFCURVE",
"674 445 OFFCURVE",
"674 373 CURVE SMOOTH",
"674 241 OFFCURVE",
"827 165 OFFCURVE",
"827 67 CURVE SMOOTH",
"827 42 OFFCURVE",
"809 32 OFFCURVE",
"780 30 CURVE",
"780 6 OFFCURVE",
"794 -12 OFFCURVE",
"819 -12 CURVE SMOOTH"
);
},
{
closed = 1;
nodes = (
"527 -12 OFFCURVE",
"618 104 OFFCURVE",
"618 240 CURVE SMOOTH",
"618 352 OFFCURVE",
"552 445 OFFCURVE",
"443 484 CURVE",
"426 479 LINE",
"443 479 LINE SMOOTH",
"502 479 OFFCURVE",
"547 490 OFFCURVE",
"577 515 CURVE SMOOTH",
"603 536 OFFCURVE",
"617 568 OFFCURVE",
"617 613 CURVE",
"617 660 OFFCURVE",
"596 705 OFFCURVE",
"568 739 CURVE",
"551 727 LINE",
"567 709 OFFCURVE",
"595 671 OFFCURVE",
"595 614 CURVE",
"595 578 OFFCURVE",
"583 551 OFFCURVE",
"561 534 CURVE SMOOTH",
"535 514 OFFCURVE",
"495 503 OFFCURVE",
"445 503 CURVE SMOOTH",
"126 503 LINE",
"124 479 LINE",
"254 479 LINE",
"156 436 OFFCURVE",
"97 351 OFFCURVE",
"97 240 CURVE SMOOTH",
"97 104 OFFCURVE",
"188 -12 OFFCURVE",
"358 -12 CURVE SMOOTH"
);
},
{
closed = 1;
nodes = (
"204 12 OFFCURVE",
"119 119 OFFCURVE",
"119 242 CURVE SMOOTH",
"119 377 OFFCURVE",
"217 480 OFFCURVE",
"358 480 CURVE SMOOTH",
"494 480 OFFCURVE",
"596 377 OFFCURVE",
"596 242 CURVE SMOOTH",
"596 119 OFFCURVE",
"512 12 OFFCURVE",
"358 12 CURVE SMOOTH"
);
}
);
width = 941;
},
{
anchors = (
{
name = top;
position = "{465, 566}";
}
);
layerId = "389B3055-E02B-410E-AE74-C99A384F2C74";
paths = (
{
closed = 1;
nodes = (
"819 -12 OFFCURVE",
"861 11 OFFCURVE",
"861 71 CURVE SMOOTH",
"861 184 OFFCURVE",
"719 259 OFFCURVE",
"719 371 CURVE SMOOTH",
"719 409 OFFCURVE",
"742 433 OFFCURVE",
"780 433 CURVE SMOOTH",
"806 433 OFFCURVE",
"821 418 OFFCURVE",
"821 396 CURVE SMOOTH",
"821 359 OFFCURVE",
"780 347 OFFCURVE",
"727 347 CURVE SMOOTH",
"35 347 LINE",
"24 238 LINE",
"711 238 LINE SMOOTH",
"829 238 OFFCURVE",
"887 291 OFFCURVE",
"887 399 CURVE SMOOTH",
"887 484 OFFCURVE",
"849 552 OFFCURVE",
"768 552 CURVE SMOOTH",
"698 552 OFFCURVE",
"648 502 OFFCURVE",
"648 419 CURVE SMOOTH",
"648 309 OFFCURVE",
"743 237 OFFCURVE",
"743 157 CURVE SMOOTH",
"743 127 OFFCURVE",
"725 103 OFFCURVE",
"674 103 CURVE",
"674 44 OFFCURVE",
"702 -12 OFFCURVE",
"776 -12 CURVE SMOOTH"
);
},
{
closed = 1;
nodes = (
"520 -12 OFFCURVE",
"614 86 OFFCURVE",
"614 223 CURVE SMOOTH",
"614 303 OFFCURVE",
"573 391 OFFCURVE",
"493 436 CURVE",
"415 416 LINE",
"416 416 LINE",
"486 416 OFFCURVE",
"541 429 OFFCURVE",
"579 459 CURVE",
"614 487 OFFCURVE",
"634 529 OFFCURVE",
"634 589 CURVE",
"634 654 OFFCURVE",
"605 723 OFFCURVE",
"548 784 CURVE",
"495 745 LINE",
"527 708 OFFCURVE",
"545 680 OFFCURVE",
"545 640 CURVE",
"545 622 OFFCURVE",
"539 606 OFFCURVE",
"528 595 CURVE",
"508 575 OFFCURVE",
"473 566 OFFCURVE",
"431 566 CURVE SMOOTH",
"88 566 LINE",
"77 416 LINE",
"174 416 LINE",
"116 372 OFFCURVE",
"77 303 OFFCURVE",
"77 220 CURVE SMOOTH",
"77 75 OFFCURVE",
"182 -12 OFFCURVE",
"346 -12 CURVE SMOOTH"
);
},
{
closed = 1;
nodes = (
"246 144 OFFCURVE",
"185 200 OFFCURVE",
"185 282 CURVE SMOOTH",
"185 368 OFFCURVE",
"246 426 OFFCURVE",
"346 426 CURVE SMOOTH",
"452 426 OFFCURVE",
"506 368 OFFCURVE",
"506 283 CURVE SMOOTH",
"506 200 OFFCURVE",
"452 144 OFFCURVE",
"345 144 CURVE SMOOTH"
);
}
);
width = 931;
},
{
anchors = (
{
name = top;
position = "{468, 547}";
}
);
layerId = "56938CB9-64C5-480A-8326-19BB97D61A51";
paths = (
{
closed = 1;
nodes = (
"833 -12 OFFCURVE",
"860 17 OFFCURVE",
"860 63 CURVE SMOOTH",
"860 167 OFFCURVE",
"720 255 OFFCURVE",
"720 371 CURVE SMOOTH",
"720 431 OFFCURVE",
"746 461 OFFCURVE",
"786 461 CURVE SMOOTH",
"822 461 OFFCURVE",
"842 437 OFFCURVE",
"842 399 CURVE SMOOTH",
"842 339 OFFCURVE",
"793 305 OFFCURVE",
"710 305 CURVE SMOOTH",
"31 305 LINE",
"24 230 LINE",
"713 230 LINE SMOOTH",
"826 230 OFFCURVE",
"886 303 OFFCURVE",
"886 395 CURVE SMOOTH",
"886 467 OFFCURVE",
"855 533 OFFCURVE",
"776 533 CURVE SMOOTH",
"711 533 OFFCURVE",
"668 482 OFFCURVE",
"668 401 CURVE SMOOTH",
"668 288 OFFCURVE",
"777 196 OFFCURVE",
"777 121 CURVE SMOOTH",
"777 87 OFFCURVE",
"760 66 OFFCURVE",
"716 64 CURVE",
"716 20 OFFCURVE",
"739 -12 OFFCURVE",
"789 -12 CURVE SMOOTH"
);
},
{
closed = 1;
nodes = (
"524 -12 OFFCURVE",
"613 102 OFFCURVE",
"613 240 CURVE SMOOTH",
"613 350 OFFCURVE",
"557 429 OFFCURVE",
"465 470 CURVE",
"409 460 LINE",
"422 460 LINE SMOOTH",
"517 460 OFFCURVE",
"551 477 OFFCURVE",
"577 503 CURVE SMOOTH",
"606 532 OFFCURVE",
"613 569 OFFCURVE",
"613 605 CURVE",
"613 666 OFFCURVE",
"587 723 OFFCURVE",
"542 771 CURVE",
"506 744 LINE",
"542 706 OFFCURVE",
"561 667 OFFCURVE",
"561 628 CURVE",
"561 602 OFFCURVE",
"553 583 OFFCURVE",
"538 570 CURVE",
"519 554 OFFCURVE",
"493 547 OFFCURVE",
"426 547 CURVE SMOOTH",
"104 547 LINE",
"97 460 LINE",
"223 460 LINE",
"145 419 OFFCURVE",
"92 345 OFFCURVE",
"92 240 CURVE SMOOTH",
"92 101 OFFCURVE",
"191 -12 OFFCURVE",
"353 -12 CURVE SMOOTH"
);
},
{
closed = 1;
nodes = (
"225 77 OFFCURVE",
"156 162 OFFCURVE",
"156 271 CURVE SMOOTH",
"156 384 OFFCURVE",
"239 462 OFFCURVE",
"354 462 CURVE SMOOTH",
"462 462 OFFCURVE",
"550 387 OFFCURVE",
"550 271 CURVE SMOOTH",
"550 162 OFFCURVE",
"481 77 OFFCURVE",
"353 77 CURVE SMOOTH"
);
}
);
width = 936;
},
{
anchors = (
{
name = top;
position = "{466, 561}";
}
);
layerId = "A6FB1343-85A8-49E5-AB18-F683E718EB6E";
paths = (
{
closed = 1;
nodes = (
"825 -12 OFFCURVE",
"861 14 OFFCURVE",
"861 69 CURVE SMOOTH",
"861 178 OFFCURVE",
"721 258 OFFCURVE",
"721 371 CURVE SMOOTH",
"721 417 OFFCURVE",
"745 443 OFFCURVE",
"783 443 CURVE SMOOTH",
"813 443 OFFCURVE",
"829 425 OFFCURVE",
"829 398 CURVE SMOOTH",
"829 354 OFFCURVE",
"785 332 OFFCURVE",
"720 332 CURVE SMOOTH",
"34 332 LINE",
"24 235 LINE",
"712 235 LINE SMOOTH",
"828 235 OFFCURVE",
"887 297 OFFCURVE",
"887 398 CURVE SMOOTH",
"887 478 OFFCURVE",
"852 546 OFFCURVE",
"771 546 CURVE SMOOTH",
"703 546 OFFCURVE",
"656 496 OFFCURVE",
"656 413 CURVE SMOOTH",
"656 302 OFFCURVE",
"754 222 OFFCURVE",
"754 145 CURVE SMOOTH",
"754 113 OFFCURVE",
"737 90 OFFCURVE",
"689 89 CURVE",
"689 35 OFFCURVE",
"714 -12 OFFCURVE",
"780 -12 CURVE SMOOTH"
);
},
{
closed = 1;
nodes = (
"522 -12 OFFCURVE",
"614 92 OFFCURVE",
"614 230 CURVE SMOOTH",
"614 322 OFFCURVE",
"567 406 OFFCURVE",
"483 449 CURVE",
"412 433 LINE",
"418 433 LINE",
"500 433 OFFCURVE",
"546 447 OFFCURVE",
"579 476 CURVE SMOOTH",
"611 505 OFFCURVE",
"626 545 OFFCURVE",
"626 596 CURVE",
"626 660 OFFCURVE",
"598 724 OFFCURVE",
"545 781 CURVE",
"498 746 LINE",
"532 707 OFFCURVE",
"550 675 OFFCURVE",
"550 637 CURVE",
"550 615 OFFCURVE",
"544 599 OFFCURVE",
"532 587 CURVE SMOOTH",
"513 568 OFFCURVE",
"481 561 OFFCURVE",
"428 561 CURVE SMOOTH",
"94 561 LINE",
"84 433 LINE",
"192 433 LINE",
"127 390 OFFCURVE",
"83 320 OFFCURVE",
"83 228 CURVE SMOOTH",
"83 85 OFFCURVE",
"186 -12 OFFCURVE",
"349 -12 CURVE SMOOTH"
);
},
{
closed = 1;
nodes = (
"239 120 OFFCURVE",
"175 187 OFFCURVE",
"175 279 CURVE SMOOTH",
"175 375 OFFCURVE",
"245 439 OFFCURVE",
"349 439 CURVE SMOOTH",
"455 439 OFFCURVE",
"522 376 OFFCURVE",
"522 280 CURVE SMOOTH",
"522 187 OFFCURVE",
"463 120 OFFCURVE",
"348 120 CURVE SMOOTH"
);
}
);
width = 933;
}
);
leftKerningGroup = KND_ii_L;
rightKerningGroup = KND_ii_R;
unicode = 0C88;
script = kannada;
category = Letter;
subCategory = Other;
},
{
glyphname = u_kannada;
layers = (
{
anchors = (
{
name = top;
position = "{522, 503}";
}
);
layerId = "59995968-E459-46B5-A8B1-181090AA0B10";
paths = (
{
closed = 1;
nodes = (
"479 175 CURVE SMOOTH",
"479 259 OFFCURVE",
"452 303 OFFCURVE",
"452 375 CURVE SMOOTH",
"452 446 OFFCURVE",
"494 488 OFFCURVE",
"559 488 CURVE SMOOTH",
"631 488 OFFCURVE",
"662 434 OFFCURVE",
"662 334 CURVE SMOOTH",
"662 270 OFFCURVE",
"660 233 OFFCURVE",
"660 165 CURVE SMOOTH",
"660 50 OFFCURVE",
"724 -10 OFFCURVE",
"818 -10 CURVE SMOOTH",
"915 -10 OFFCURVE",
"986 63 OFFCURVE",
"986 229 CURVE SMOOTH",
"986 393 OFFCURVE",
"875 513 OFFCURVE",
"808 513 CURVE SMOOTH",
"796 513 OFFCURVE",
"788 507 OFFCURVE",
"788 497 CURVE",
"909 458 OFFCURVE",
"963 348 OFFCURVE",
"963 228 CURVE SMOOTH",
"963 74 OFFCURVE",
"900 15 OFFCURVE",
"819 15 CURVE SMOOTH",
"733 15 OFFCURVE",
"682 57 OFFCURVE",
"682 167 CURVE SMOOTH",
"682 228 OFFCURVE",
"685 263 OFFCURVE",
"685 337 CURVE SMOOTH",
"685 448 OFFCURVE",
"642 513 OFFCURVE",
"558 513 CURVE SMOOTH",
"481 513 OFFCURVE",
"429 460 OFFCURVE",
"429 378 CURVE SMOOTH",
"429 301 OFFCURVE",
"457 260 OFFCURVE",
"457 178 CURVE SMOOTH",
"457 83 OFFCURVE",
"408 15 OFFCURVE",
"292 15 CURVE SMOOTH",
"147 15 OFFCURVE",
"80 131 OFFCURVE",
"80 259 CURVE SMOOTH",
"80 378 OFFCURVE",
"129 467 OFFCURVE",
"199 484 CURVE",
"195 490 LINE",
"161 468 OFFCURVE",
"144 434 OFFCURVE",
"144 394 CURVE SMOOTH",
"144 326 OFFCURVE",
"184 280 OFFCURVE",
"250 280 CURVE SMOOTH",
"315 280 OFFCURVE",
"351 326 OFFCURVE",
"351 396 CURVE SMOOTH",
"351 461 OFFCURVE",
"311 513 OFFCURVE",
"242 513 CURVE SMOOTH",
"135 513 OFFCURVE",
"58 413 OFFCURVE",
"58 262 CURVE SMOOTH",
"58 121 OFFCURVE",
"138 -10 OFFCURVE",
"293 -10 CURVE SMOOTH",
"418 -10 OFFCURVE",
"479 71 OFFCURVE"
);
},
{
closed = 1;
nodes = (
"167 396 CURVE SMOOTH",
"167 451 OFFCURVE",
"198 488 OFFCURVE",
"249 488 CURVE SMOOTH",
"298 488 OFFCURVE",
"329 449 OFFCURVE",
"329 396 CURVE SMOOTH",
"329 338 OFFCURVE",
"306 305 OFFCURVE",
"250 305 CURVE SMOOTH",
"193 305 OFFCURVE",
"167 338 OFFCURVE"
);
}
);
width = 1044;
},
{
anchors = (
{
name = top;
position = "{563, 566}";
}
);
layerId = "389B3055-E02B-410E-AE74-C99A384F2C74";
paths = (
{
closed = 1;
nodes = (
"547 189 CURVE SMOOTH",
"547 231 OFFCURVE",
"530 273 OFFCURVE",
"530 315 CURVE SMOOTH",
"530 376 OFFCURVE",
"559 406 OFFCURVE",
"611 406 CURVE SMOOTH",
"660 406 OFFCURVE",
"688 373 OFFCURVE",
"688 313 CURVE SMOOTH",
"688 276 OFFCURVE",
"685 250 OFFCURVE",
"685 198 CURVE SMOOTH",
"685 68 OFFCURVE",
"757 -12 OFFCURVE",
"882 -12 CURVE SMOOTH",
"1025 -12 OFFCURVE",
"1078 121 OFFCURVE",
"1078 271 CURVE SMOOTH",
"1078 458 OFFCURVE",
"1013 579 OFFCURVE",
"922 579 CURVE SMOOTH",
"862 579 OFFCURVE",
"834 543 OFFCURVE",
"834 481 CURVE",
"953 459 OFFCURVE",
"1010 386 OFFCURVE",
"1010 290 CURVE SMOOTH",
"1010 215 OFFCURVE",
"964 167 OFFCURVE",
"886 167 CURVE SMOOTH",
"799 167 OFFCURVE",
"758 215 OFFCURVE",
"758 303 CURVE SMOOTH",
"758 336 OFFCURVE",
"761 362 OFFCURVE",
"761 393 CURVE SMOOTH",
"761 497 OFFCURVE",
"714 579 OFFCURVE",
"604 579 CURVE SMOOTH",
"502 579 OFFCURVE",
"444 519 OFFCURVE",
"444 418 CURVE SMOOTH",
"444 371 OFFCURVE",
"465 330 OFFCURVE",
"465 282 CURVE SMOOTH",
"465 208 OFFCURVE",
"408 167 OFFCURVE",
"303 167 CURVE SMOOTH",
"183 167 OFFCURVE",
"116 226 OFFCURVE",
"116 318 CURVE SMOOTH",
"116 373 OFFCURVE",
"134 423 OFFCURVE",
"176 448 CURVE",
"152 468 LINE",
"149 458 OFFCURVE",
"145 438 OFFCURVE",
"145 420 CURVE SMOOTH",
"145 338 OFFCURVE",
"189 281 OFFCURVE",
"266 281 CURVE SMOOTH",
"349 281 OFFCURVE",
"383 340 OFFCURVE",
"383 427 CURVE SMOOTH",
"383 511 OFFCURVE",
"343 579 OFFCURVE",
"253 579 CURVE SMOOTH",
"134 579 OFFCURVE",
"48 466 OFFCURVE",
"48 325 CURVE SMOOTH",
"48 122 OFFCURVE",
"150 -12 OFFCURVE",
"331 -12 CURVE SMOOTH",
"478 -12 OFFCURVE",
"547 63 OFFCURVE"
);
},
{
closed = 1;
nodes = (
"207 430 CURVE SMOOTH",
"207 447 OFFCURVE",
"223 459 OFFCURVE",
"262 459 CURVE SMOOTH",
"304 459 OFFCURVE",
"321 447 OFFCURVE",
"321 430 CURVE SMOOTH",
"321 413 OFFCURVE",
"304 400 OFFCURVE",
"262 400 CURVE SMOOTH",
"223 400 OFFCURVE",
"207 413 OFFCURVE"
);
}
);
width = 1126;
},
{
anchors = (
{
name = top;
position = "{553, 547}";
}
);
layerId = "56938CB9-64C5-480A-8326-19BB97D61A51";
paths = (
{
closed = 1;
nodes = (
"511 188 CURVE SMOOTH",
"511 256 OFFCURVE",
"485 310 OFFCURVE",
"485 368 CURVE SMOOTH",
"485 430 OFFCURVE",
"525 469 OFFCURVE",
"583 469 CURVE SMOOTH",
"655 469 OFFCURVE",
"687 419 OFFCURVE",
"687 337 CURVE SMOOTH",
"687 293 OFFCURVE",
"684 252 OFFCURVE",
"684 207 CURVE SMOOTH",
"684 68 OFFCURVE",
"753 -11 OFFCURVE",
"870 -11 CURVE SMOOTH",
"991 -11 OFFCURVE",
"1052 82 OFFCURVE",
"1052 244 CURVE SMOOTH",
"1052 431 OFFCURVE",
"948 559 OFFCURVE",
"851 559 CURVE SMOOTH",
"819 559 OFFCURVE",
"808 540 OFFCURVE",
"808 513 CURVE",
"947 475 OFFCURVE",
"1007 378 OFFCURVE",
"1007 244 CURVE SMOOTH",
"1007 136 OFFCURVE",
"949 84 OFFCURVE",
"866 84 CURVE SMOOTH",
"790 84 OFFCURVE",
"736 129 OFFCURVE",
"736 220 CURVE SMOOTH",
"736 270 OFFCURVE",
"739 298 OFFCURVE",
"739 351 CURVE SMOOTH",
"739 484 OFFCURVE",
"688 559 OFFCURVE",
"584 559 CURVE SMOOTH",
"494 559 OFFCURVE",
"436 494 OFFCURVE",
"436 401 CURVE SMOOTH",
"436 332 OFFCURVE",
"462 279 OFFCURVE",
"462 211 CURVE SMOOTH",
"462 138 OFFCURVE",
"407 84 OFFCURVE",
"298 84 CURVE SMOOTH",
"178 84 OFFCURVE",
"99 170 OFFCURVE",
"99 292 CURVE SMOOTH",
"99 373 OFFCURVE",
"121 428 OFFCURVE",
"167 466 CURVE",
"160 469 LINE",
"152 457 OFFCURVE",
"147 437 OFFCURVE",
"147 412 CURVE SMOOTH",
"147 331 OFFCURVE",
"188 281 OFFCURVE",
"261 281 CURVE SMOOTH",
"335 281 OFFCURVE",
"374 336 OFFCURVE",
"374 419 CURVE SMOOTH",
"374 494 OFFCURVE",
"337 559 OFFCURVE",
"255 559 CURVE SMOOTH",
"115 559 OFFCURVE",
"54 416 OFFCURVE",
"54 294 CURVE SMOOTH",
"54 111 OFFCURVE",
"153 -11 OFFCURVE",
"309 -11 CURVE SMOOTH",
"433 -11 OFFCURVE",
"511 54 OFFCURVE"
);
},
{
closed = 1;
nodes = (
"188 419 CURVE SMOOTH",
"188 455 OFFCURVE",
"213 482 OFFCURVE",
"260 482 CURVE SMOOTH",
"308 482 OFFCURVE",
"330 452 OFFCURVE",
"330 419 CURVE SMOOTH",
"330 383 OFFCURVE",
"310 355 OFFCURVE",
"259 355 CURVE SMOOTH",
"213 355 OFFCURVE",
"188 380 OFFCURVE"
);
}
);
width = 1106;
},
{
anchors = (
{
name = top;
position = "{560, 561}";
}
);
layerId = "A6FB1343-85A8-49E5-AB18-F683E718EB6E";
paths = (
{
closed = 1;
nodes = (
"534 189 CURVE SMOOTH",
"534 241 OFFCURVE",
"513 288 OFFCURVE",
"513 336 CURVE SMOOTH",
"513 397 OFFCURVE",
"546 430 OFFCURVE",
"601 430 CURVE SMOOTH",
"659 430 OFFCURVE",
"688 390 OFFCURVE",
"688 323 CURVE SMOOTH",
"688 284 OFFCURVE",
"686 251 OFFCURVE",
"686 204 CURVE SMOOTH",
"686 69 OFFCURVE",
"756 -12 OFFCURVE",
"879 -12 CURVE SMOOTH",
"1015 -12 OFFCURVE",
"1070 106 OFFCURVE",
"1070 261 CURVE SMOOTH",
"1070 449 OFFCURVE",
"990 573 OFFCURVE",
"895 573 CURVE SMOOTH",
"845 573 OFFCURVE",
"824 543 OFFCURVE",
"824 495 CURVE",
"952 466 OFFCURVE",
"1010 384 OFFCURVE",
"1010 272 CURVE SMOOTH",
"1010 186 OFFCURVE",
"960 137 OFFCURVE",
"880 137 CURVE SMOOTH",
"797 137 OFFCURVE",
"751 184 OFFCURVE",
"751 272 CURVE SMOOTH",
"751 312 OFFCURVE",
"754 338 OFFCURVE",
"754 376 CURVE SMOOTH",
"754 493 OFFCURVE",
"706 573 OFFCURVE",
"597 573 CURVE SMOOTH",
"500 573 OFFCURVE",
"441 510 OFFCURVE",
"441 413 CURVE SMOOTH",
"441 356 OFFCURVE",
"463 310 OFFCURVE",
"463 255 CURVE SMOOTH",
"463 183 OFFCURVE",
"407 137 OFFCURVE",
"301 137 CURVE SMOOTH",
"182 137 OFFCURVE",
"110 206 OFFCURVE",
"110 310 CURVE SMOOTH",
"110 373 OFFCURVE",
"128 423 OFFCURVE",
"170 455 CURVE",
"153 467 LINE",
"150 457 OFFCURVE",
"146 438 OFFCURVE",
"146 417 CURVE SMOOTH",
"146 335 OFFCURVE",
"188 281 OFFCURVE",
"264 281 CURVE SMOOTH",
"344 281 OFFCURVE",
"380 339 OFFCURVE",
"380 425 CURVE SMOOTH",
"380 506 OFFCURVE",
"342 573 OFFCURVE",
"254 573 CURVE SMOOTH",
"125 573 OFFCURVE",
"50 446 OFFCURVE",
"50 314 CURVE SMOOTH",
"50 117 OFFCURVE",
"151 -12 OFFCURVE",
"322 -12 CURVE SMOOTH",
"460 -12 OFFCURVE",
"534 59 OFFCURVE"
);
},
{
closed = 1;
nodes = (
"200 427 CURVE SMOOTH",
"200 451 OFFCURVE",
"219 468 OFFCURVE",
"261 468 CURVE SMOOTH",
"306 468 OFFCURVE",
"324 449 OFFCURVE",
"324 427 CURVE SMOOTH",
"324 403 OFFCURVE",
"306 385 OFFCURVE",
"261 385 CURVE SMOOTH",
"219 385 OFFCURVE",
"200 402 OFFCURVE"
);
}
);
width = 1120;
}
);
leftKerningGroup = KND_u_L;
rightKerningGroup = KND_u_R;
unicode = 0C89;
script = kannada;
category = Letter;
subCategory = Other;
},
{
glyphname = uu_kannada;
layers = (
{
anchors = (
{
name = top;
position = "{687, 503}";
}
);
layerId = "59995968-E459-46B5-A8B1-181090AA0B10";
paths = (
{
closed = 1;
nodes = (
"479 176 CURVE SMOOTH",
"479 259 OFFCURVE",
"452 303 OFFCURVE",
"452 374 CURVE SMOOTH",
"452 444 OFFCURVE",
"493 486 OFFCURVE",
"555 486 CURVE SMOOTH",
"630 486 OFFCURVE",
"662 432 OFFCURVE",
"662 333 CURVE SMOOTH",
"662 270 OFFCURVE",
"660 234 OFFCURVE",
"660 166 CURVE SMOOTH",
"660 52 OFFCURVE",
"709 -7 OFFCURVE",
"791 -7 CURVE SMOOTH",
"865 -7 OFFCURVE",
"905 46 OFFCURVE",
"905 126 CURVE SMOOTH",
"905 182 OFFCURVE",
"885 237 OFFCURVE",
"885 294 CURVE SMOOTH",
"885 410 OFFCURVE",
"958 485 OFFCURVE",
"1084 485 CURVE SMOOTH",
"1217 485 OFFCURVE",
"1294 381 OFFCURVE",
"1294 230 CURVE SMOOTH",
"1294 119 OFFCURVE",
"1248 18 OFFCURVE",
"1141 18 CURVE SMOOTH",
"1058 18 OFFCURVE",
"1013 69 OFFCURVE",
"1013 135 CURVE SMOOTH",
"1013 196 OFFCURVE",
"1047 241 OFFCURVE",
"1086 247 CURVE",
"1074 263 LINE",
"1074 240 LINE",
"1074 222 OFFCURVE",
"1088 209 OFFCURVE",
"1107 209 CURVE SMOOTH",
"1127 209 OFFCURVE",
"1139 222 OFFCURVE",
"1139 240 CURVE SMOOTH",
"1139 260 OFFCURVE",
"1125 271 OFFCURVE",
"1102 271 CURVE SMOOTH",
"1044 271 OFFCURVE",
"991 214 OFFCURVE",
"991 134 CURVE SMOOTH",
"991 59 OFFCURVE",
"1044 -7 OFFCURVE",
"1140 -7 CURVE SMOOTH",
"1258 -7 OFFCURVE",
"1317 108 OFFCURVE",
"1317 231 CURVE SMOOTH",
"1317 391 OFFCURVE",
"1229 510 OFFCURVE",
"1084 510 CURVE SMOOTH",
"956 510 OFFCURVE",
"863 434 OFFCURVE",
"863 297 CURVE SMOOTH",
"863 240 OFFCURVE",
"882 185 OFFCURVE",
"882 128 CURVE SMOOTH",
"882 59 OFFCURVE",
"854 18 OFFCURVE",
"791 18 CURVE SMOOTH",
"723 18 OFFCURVE",
"682 60 OFFCURVE",
"682 169 CURVE SMOOTH",
"682 229 OFFCURVE",
"685 263 OFFCURVE",
"685 336 CURVE SMOOTH",
"685 446 OFFCURVE",
"640 510 OFFCURVE",
"554 510 CURVE SMOOTH",
"480 510 OFFCURVE",
"429 458 OFFCURVE",
"429 377 CURVE SMOOTH",
"429 301 OFFCURVE",
"457 261 OFFCURVE",
"457 179 CURVE SMOOTH",
"457 86 OFFCURVE",
"408 18 OFFCURVE",
"292 18 CURVE SMOOTH",
"147 18 OFFCURVE",
"80 132 OFFCURVE",
"80 258 CURVE SMOOTH",
"80 376 OFFCURVE",
"129 465 OFFCURVE",
"199 482 CURVE",
"195 487 LINE",
"161 468 OFFCURVE",
"144 434 OFFCURVE",
"144 391 CURVE SMOOTH",
"144 327 OFFCURVE",
"182 278 OFFCURVE",
"250 278 CURVE SMOOTH",
"317 278 OFFCURVE",
"351 327 OFFCURVE",
"351 394 CURVE SMOOTH",
"351 461 OFFCURVE",
"311 510 OFFCURVE",
"242 510 CURVE SMOOTH",
"135 510 OFFCURVE",
"58 411 OFFCURVE",
"58 261 CURVE SMOOTH",
"58 122 OFFCURVE",
"138 -7 OFFCURVE",
"293 -7 CURVE SMOOTH",
"418 -7 OFFCURVE",
"479 74 OFFCURVE"
);
},
{
closed = 1;
nodes = (
"167 394 CURVE SMOOTH",
"167 449 OFFCURVE",
"198 486 OFFCURVE",
"249 486 CURVE SMOOTH",
"298 486 OFFCURVE",
"329 449 OFFCURVE",
"329 394 CURVE SMOOTH",
"329 338 OFFCURVE",
"305 302 OFFCURVE",
"250 302 CURVE SMOOTH",
"194 302 OFFCURVE",
"167 338 OFFCURVE"
);
}
);
width = 1375;
},
{
anchors = (
{
name = top;
position = "{737, 566}";
}
);
layerId = "389B3055-E02B-410E-AE74-C99A384F2C74";
paths = (
{
closed = 1;
nodes = (
"547 189 CURVE SMOOTH",
"547 231 OFFCURVE",
"530 273 OFFCURVE",
"530 315 CURVE SMOOTH",
"530 376 OFFCURVE",
"559 406 OFFCURVE",
"611 406 CURVE SMOOTH",
"660 406 OFFCURVE",
"688 373 OFFCURVE",
"688 315 CURVE SMOOTH",
"688 278 OFFCURVE",
"685 251 OFFCURVE",
"685 198 CURVE SMOOTH",
"685 60 OFFCURVE",
"750 -12 OFFCURVE",
"854 -12 CURVE SMOOTH",
"944 -12 OFFCURVE",
"995 31 OFFCURVE",
"995 133 CURVE SMOOTH",
"995 157 OFFCURVE",
"993 178 OFFCURVE",
"993 198 CURVE SMOOTH",
"993 330 OFFCURVE",
"1066 403 OFFCURVE",
"1190 403 CURVE SMOOTH",
"1292 403 OFFCURVE",
"1353 344 OFFCURVE",
"1353 247 CURVE SMOOTH",
"1353 168 OFFCURVE",
"1304 119 OFFCURVE",
"1223 119 CURVE SMOOTH",
"1157 119 OFFCURVE",
"1130 145 OFFCURVE",
"1130 172 CURVE SMOOTH",
"1130 192 OFFCURVE",
"1141 207 OFFCURVE",
"1159 214 CURVE",
"1145 242 LINE",
"1145 228 LINE",
"1145 189 OFFCURVE",
"1171 162 OFFCURVE",
"1217 162 CURVE SMOOTH",
"1263 162 OFFCURVE",
"1291 189 OFFCURVE",
"1291 232 CURVE SMOOTH",
"1291 274 OFFCURVE",
"1260 309 OFFCURVE",
"1202 309 CURVE SMOOTH",
"1123 309 OFFCURVE",
"1062 250 OFFCURVE",
"1062 151 CURVE SMOOTH",
"1062 53 OFFCURVE",
"1123 -12 OFFCURVE",
"1231 -12 CURVE SMOOTH",
"1356 -12 OFFCURVE",
"1426 96 OFFCURVE",
"1426 257 CURVE SMOOTH",
"1426 431 OFFCURVE",
"1341 578 OFFCURVE",
"1155 578 CURVE SMOOTH",
"1001 578 OFFCURVE",
"909 478 OFFCURVE",
"909 307 CURVE SMOOTH",
"909 285 OFFCURVE",
"911 258 OFFCURVE",
"911 236 CURVE SMOOTH",
"911 191 OFFCURVE",
"889 167 OFFCURVE",
"845 167 CURVE SMOOTH",
"783 167 OFFCURVE",
"758 208 OFFCURVE",
"758 296 CURVE SMOOTH",
"758 334 OFFCURVE",
"761 364 OFFCURVE",
"761 399 CURVE SMOOTH",
"761 504 OFFCURVE",
"709 579 OFFCURVE",
"601 579 CURVE SMOOTH",
"501 579 OFFCURVE",
"444 521 OFFCURVE",
"444 425 CURVE SMOOTH",
"444 375 OFFCURVE",
"465 332 OFFCURVE",
"465 282 CURVE SMOOTH",
"465 208 OFFCURVE",
"408 167 OFFCURVE",
"303 167 CURVE SMOOTH",
"183 167 OFFCURVE",
"116 226 OFFCURVE",
"116 318 CURVE SMOOTH",
"116 373 OFFCURVE",
"134 423 OFFCURVE",
"176 448 CURVE",
"152 468 LINE",
"149 458 OFFCURVE",
"145 438 OFFCURVE",
"145 420 CURVE SMOOTH",
"145 338 OFFCURVE",
"189 281 OFFCURVE",
"266 281 CURVE SMOOTH",
"349 281 OFFCURVE",
"383 340 OFFCURVE",
"383 427 CURVE SMOOTH",
"383 511 OFFCURVE",
"343 579 OFFCURVE",
"253 579 CURVE SMOOTH",
"134 579 OFFCURVE",
"48 466 OFFCURVE",
"48 325 CURVE SMOOTH",
"48 122 OFFCURVE",
"150 -12 OFFCURVE",
"331 -12 CURVE SMOOTH",
"478 -12 OFFCURVE",
"547 63 OFFCURVE"
);
},
{
closed = 1;
nodes = (
"207 430 CURVE SMOOTH",
"207 447 OFFCURVE",
"223 459 OFFCURVE",
"262 459 CURVE SMOOTH",
"304 459 OFFCURVE",
"321 447 OFFCURVE",
"321 430 CURVE SMOOTH",
"321 413 OFFCURVE",
"304 400 OFFCURVE",
"262 400 CURVE SMOOTH",
"223 400 OFFCURVE",
"207 413 OFFCURVE"
);
}
);
width = 1474;
},
{
anchors = (
{
name = top;
position = "{730, 547}";
}
);
layerId = "56938CB9-64C5-480A-8326-19BB97D61A51";
paths = (
{
closed = 1;
nodes = (
"521 190 CURVE SMOOTH",
"521 257 OFFCURVE",
"495 311 OFFCURVE",
"495 368 CURVE SMOOTH",
"495 429 OFFCURVE",
"535 467 OFFCURVE",
"593 467 CURVE SMOOTH",
"665 467 OFFCURVE",
"697 418 OFFCURVE",
"697 337 CURVE SMOOTH",
"697 293 OFFCURVE",
"694 252 OFFCURVE",
"694 208 CURVE SMOOTH",
"694 68 OFFCURVE",
"754 -10 OFFCURVE",
"856 -10 CURVE SMOOTH",
"944 -10 OFFCURVE",
"988 43 OFFCURVE",
"988 132 CURVE SMOOTH",
"988 188 OFFCURVE",
"972 239 OFFCURVE",
"972 303 CURVE SMOOTH",
"972 397 OFFCURVE",
"1039 464 OFFCURVE",
"1160 464 CURVE SMOOTH",
"1289 464 OFFCURVE",
"1360 383 OFFCURVE",
"1360 254 CURVE SMOOTH",
"1360 136 OFFCURVE",
"1307 64 OFFCURVE",
"1217 64 CURVE SMOOTH",
"1148 64 OFFCURVE",
"1110 98 OFFCURVE",
"1110 150 CURVE SMOOTH",
"1110 185 OFFCURVE",
"1127 215 OFFCURVE",
"1155 227 CURVE",
"1140 240 LINE",
"1140 213 LINE",
"1140 176 OFFCURVE",
"1163 161 OFFCURVE",
"1193 161 CURVE SMOOTH",
"1231 161 OFFCURVE",
"1250 186 OFFCURVE",
"1250 216 CURVE SMOOTH",
"1250 255 OFFCURVE",
"1226 282 OFFCURVE",
"1182 282 CURVE SMOOTH",
"1121 282 OFFCURVE",
"1066 230 OFFCURVE",
"1066 145 CURVE SMOOTH",
"1066 52 OFFCURVE",
"1126 -10 OFFCURVE",
"1225 -10 CURVE SMOOTH",
"1353 -10 OFFCURVE",
"1406 109 OFFCURVE",
"1406 255 CURVE SMOOTH",
"1406 428 OFFCURVE",
"1310 557 OFFCURVE",
"1151 557 CURVE SMOOTH",
"1009 557 OFFCURVE",
"920 463 OFFCURVE",
"920 329 CURVE SMOOTH",
"920 275 OFFCURVE",
"934 229 OFFCURVE",
"934 174 CURVE SMOOTH",
"934 114 OFFCURVE",
"902 84 OFFCURVE",
"852 84 CURVE SMOOTH",
"786 84 OFFCURVE",
"746 129 OFFCURVE",
"746 220 CURVE SMOOTH",
"746 271 OFFCURVE",
"749 298 OFFCURVE",
"749 351 CURVE SMOOTH",
"749 483 OFFCURVE",
"698 557 OFFCURVE",
"594 557 CURVE SMOOTH",
"504 557 OFFCURVE",
"446 494 OFFCURVE",
"446 401 CURVE SMOOTH",
"446 333 OFFCURVE",
"472 280 OFFCURVE",
"472 214 CURVE SMOOTH",
"472 139 OFFCURVE",
"417 85 OFFCURVE",
"307 85 CURVE SMOOTH",
"181 85 OFFCURVE",
"99 158 OFFCURVE",
"99 292 CURVE SMOOTH",
"99 373 OFFCURVE",
"121 428 OFFCURVE",
"167 466 CURVE",
"160 469 LINE",
"152 457 OFFCURVE",
"147 437 OFFCURVE",
"147 411 CURVE SMOOTH",
"147 331 OFFCURVE",
"188 280 OFFCURVE",
"261 280 CURVE SMOOTH",
"336 280 OFFCURVE",
"374 336 OFFCURVE",
"374 418 CURVE SMOOTH",
"374 494 OFFCURVE",
"335 557 OFFCURVE",
"249 557 CURVE SMOOTH",
"112 557 OFFCURVE",
"54 416 OFFCURVE",
"54 294 CURVE SMOOTH",
"54 111 OFFCURVE",
"151 -10 OFFCURVE",
"317 -10 CURVE SMOOTH",
"442 -10 OFFCURVE",
"521 58 OFFCURVE"
);
},
{
closed = 1;
nodes = (
"188 418 CURVE SMOOTH",
"188 455 OFFCURVE",
"213 481 OFFCURVE",
"260 481 CURVE SMOOTH",
"308 481 OFFCURVE",
"330 451 OFFCURVE",
"330 419 CURVE SMOOTH",
"330 383 OFFCURVE",
"310 355 OFFCURVE",
"259 355 CURVE SMOOTH",
"213 355 OFFCURVE",
"188 380 OFFCURVE"
);
}
);
width = 1460;
},
{
anchors = (
{
name = top;
position = "{736, 561}";
}
);
layerId = "A6FB1343-85A8-49E5-AB18-F683E718EB6E";
paths = (
{
closed = 1;
nodes = (
"538 190 CURVE SMOOTH",
"538 242 OFFCURVE",
"518 289 OFFCURVE",
"518 336 CURVE SMOOTH",
"518 397 OFFCURVE",
"551 430 OFFCURVE",
"605 430 CURVE SMOOTH",
"663 430 OFFCURVE",
"692 391 OFFCURVE",
"692 324 CURVE SMOOTH",
"692 285 OFFCURVE",
"690 252 OFFCURVE",
"690 204 CURVE SMOOTH",
"690 63 OFFCURVE",
"753 -12 OFFCURVE",
"857 -12 CURVE SMOOTH",
"947 -12 OFFCURVE",
"996 36 OFFCURVE",
"996 133 CURVE SMOOTH",
"996 170 OFFCURVE",
"988 203 OFFCURVE",
"988 240 CURVE SMOOTH",
"988 356 OFFCURVE",
"1059 427 OFFCURVE",
"1181 427 CURVE SMOOTH",
"1293 427 OFFCURVE",
"1358 360 OFFCURVE",
"1358 251 CURVE SMOOTH",
"1358 156 OFFCURVE",
"1307 99 OFFCURVE",
"1223 99 CURVE SMOOTH",
"1157 99 OFFCURVE",
"1126 127 OFFCURVE",
"1126 164 CURVE SMOOTH",
"1126 189 OFFCURVE",
"1139 209 OFFCURVE",
"1160 218 CURVE",
"1146 240 LINE",
"1146 221 LINE",
"1146 182 OFFCURVE",
"1170 159 OFFCURVE",
"1211 159 CURVE SMOOTH",
"1254 159 OFFCURVE",
"1279 187 OFFCURVE",
"1279 225 CURVE SMOOTH",
"1279 267 OFFCURVE",
"1250 298 OFFCURVE",
"1197 298 CURVE SMOOTH",
"1125 298 OFFCURVE",
"1066 242 OFFCURVE",
"1066 149 CURVE SMOOTH",
"1066 52 OFFCURVE",
"1127 -12 OFFCURVE",
"1232 -12 CURVE SMOOTH",
"1358 -12 OFFCURVE",
"1422 102 OFFCURVE",
"1422 257 CURVE SMOOTH",
"1422 432 OFFCURVE",
"1332 572 OFFCURVE",
"1156 572 CURVE SMOOTH",
"1006 572 OFFCURVE",
"916 473 OFFCURVE",
"916 317 CURVE SMOOTH",
"916 283 OFFCURVE",
"922 248 OFFCURVE",
"922 213 CURVE SMOOTH",
"922 163 OFFCURVE",
"896 137 OFFCURVE",
"850 137 CURVE SMOOTH",
"786 137 OFFCURVE",
"756 180 OFFCURVE",
"756 268 CURVE SMOOTH",
"756 311 OFFCURVE",
"758 339 OFFCURVE",
"758 380 CURVE SMOOTH",
"758 498 OFFCURVE",
"707 572 OFFCURVE",
"600 572 CURVE SMOOTH",
"503 572 OFFCURVE",
"445 512 OFFCURVE",
"445 417 CURVE SMOOTH",
"445 359 OFFCURVE",
"468 312 OFFCURVE",
"468 256 CURVE SMOOTH",
"468 183 OFFCURVE",
"412 137 OFFCURVE",
"305 137 CURVE SMOOTH",
"183 137 OFFCURVE",
"110 200 OFFCURVE",
"110 310 CURVE SMOOTH",
"110 373 OFFCURVE",
"128 423 OFFCURVE",
"170 455 CURVE",
"153 467 LINE",
"150 457 OFFCURVE",
"146 438 OFFCURVE",
"146 417 CURVE SMOOTH",
"146 335 OFFCURVE",
"188 281 OFFCURVE",
"264 281 CURVE SMOOTH",
"344 281 OFFCURVE",
"380 339 OFFCURVE",
"380 425 CURVE SMOOTH",
"380 505 OFFCURVE",
"341 572 OFFCURVE",
"251 572 CURVE SMOOTH",
"124 572 OFFCURVE",
"50 446 OFFCURVE",
"50 314 CURVE SMOOTH",
"50 117 OFFCURVE",
"150 -12 OFFCURVE",
"326 -12 CURVE SMOOTH",
"464 -12 OFFCURVE",
"538 60 OFFCURVE"
);
},
{
closed = 1;
nodes = (
"200 427 CURVE SMOOTH",
"200 450 OFFCURVE",
"219 468 OFFCURVE",
"261 468 CURVE SMOOTH",
"306 468 OFFCURVE",
"324 449 OFFCURVE",
"324 427 CURVE SMOOTH",
"324 403 OFFCURVE",
"306 385 OFFCURVE",
"261 385 CURVE SMOOTH",
"219 385 OFFCURVE",
"200 402 OFFCURVE"
);
}
);
width = 1472;
}
);
leftKerningGroup = KND_u_L;
rightKerningGroup = KND_uuMatra_R;
unicode = 0C8A;
script = kannada;
category = Letter;
subCategory = Other;
},
{
glyphname = rVocalic_kannada;
layers = (
{
anchors = (
{
name = top;
position = "{585, 503}";
}
);
layerId = "59995968-E459-46B5-A8B1-181090AA0B10";
paths = (
{
closed = 1;
nodes = (
"357 -10 OFFCURVE",
"455 90 OFFCURVE",
"455 250 CURVE SMOOTH",
"455 411 OFFCURVE",
"363 513 OFFCURVE",
"215 513 CURVE SMOOTH",
"105 513 OFFCURVE",
"44 458 OFFCURVE",
"44 391 CURVE SMOOTH",
"44 331 OFFCURVE",
"94 288 OFFCURVE",
"156 288 CURVE SMOOTH",
"219 288 OFFCURVE",
"268 329 OFFCURVE",
"268 392 CURVE SMOOTH",
"268 450 OFFCURVE",
"228 497 OFFCURVE",
"162 497 CURVE",
"192 489 LINE",
"200 490 OFFCURVE",
"207 490 OFFCURVE",
"215 490 CURVE SMOOTH",
"350 490 OFFCURVE",
"431 401 OFFCURVE",
"431 250 CURVE SMOOTH",
"431 103 OFFCURVE",
"343 13 OFFCURVE",
"215 13 CURVE SMOOTH",
"207 13 OFFCURVE",
"200 13 OFFCURVE",
"192 14 CURVE",
"162 6 LINE",
"228 6 OFFCURVE",
"268 53 OFFCURVE",
"268 111 CURVE SMOOTH",
"268 174 OFFCURVE",
"220 215 OFFCURVE",
"157 215 CURVE SMOOTH",
"94 215 OFFCURVE",
"44 172 OFFCURVE",
"44 112 CURVE SMOOTH",
"44 44 OFFCURVE",
"105 -10 OFFCURVE",
"215 -10 CURVE SMOOTH"
);
},
{
closed = 1;
nodes = (
"104 26 OFFCURVE",
"66 65 OFFCURVE",
"66 113 CURVE SMOOTH",
"66 162 OFFCURVE",
"105 193 OFFCURVE",
"156 193 CURVE SMOOTH",
"206 193 OFFCURVE",
"245 159 OFFCURVE",
"245 110 CURVE SMOOTH",
"245 62 OFFCURVE",
"215 26 OFFCURVE",
"162 26 CURVE SMOOTH"
);
},
{
closed = 1;
nodes = (
"105 310 OFFCURVE",
"66 341 OFFCURVE",
"66 390 CURVE SMOOTH",
"66 437 OFFCURVE",
"104 477 OFFCURVE",
"162 477 CURVE SMOOTH",
"215 477 OFFCURVE",
"245 441 OFFCURVE",
"245 393 CURVE SMOOTH",
"245 344 OFFCURVE",
"206 310 OFFCURVE",
"155 310 CURVE SMOOTH"
);
},
{
closed = 1;
nodes = (
"738 -10 OFFCURVE",
"791 102 OFFCURVE",
"791 229 CURVE SMOOTH",
"791 358 OFFCURVE",
"719 456 OFFCURVE",
"606 489 CURVE SMOOTH",
"572 499 LINE",
"540 479 LINE",
"685 479 OFFCURVE",
"769 357 OFFCURVE",
"769 230 CURVE SMOOTH",
"769 115 OFFCURVE",
"726 15 OFFCURVE",
"608 15 CURVE SMOOTH",
"527 15 OFFCURVE",
"473 64 OFFCURVE",
"427 143 CURVE",
"409 131 LINE",
"459 46 OFFCURVE",
"518 -10 OFFCURVE",
"609 -10 CURVE SMOOTH"
);
},
{
closed = 1;
nodes = (
"617 479 LINE",
"676 479 OFFCURVE",
"721 490 OFFCURVE",
"751 515 CURVE",
"777 536 OFFCURVE",
"791 568 OFFCURVE",
"791 613 CURVE",
"791 660 OFFCURVE",
"770 705 OFFCURVE",
"742 739 CURVE",
"725 727 LINE",
"741 709 OFFCURVE",
"769 671 OFFCURVE",
"769 614 CURVE",
"769 578 OFFCURVE",
"757 551 OFFCURVE",
"735 534 CURVE SMOOTH",
"709 514 OFFCURVE",
"669 503 OFFCURVE",
"619 503 CURVE SMOOTH",
"509 503 LINE",
"506 479 LINE"
);
},
{
closed = 1;
nodes = (
"1053 -10 OFFCURVE",
"1112 78 OFFCURVE",
"1112 203 CURVE SMOOTH",
"1112 378 OFFCURVE",
"991 489 OFFCURVE",
"905 489 CURVE SMOOTH",
"898 489 OFFCURVE",
"895 484 OFFCURVE",
"895 476 CURVE SMOOTH",
"895 472 OFFCURVE",
"896 468 OFFCURVE",
"897 465 CURVE",
"1020 446 OFFCURVE",
"1090 342 OFFCURVE",
"1090 204 CURVE SMOOTH",
"1090 92 OFFCURVE",
"1041 15 OFFCURVE",
"949 15 CURVE SMOOTH",
"867 15 OFFCURVE",
"815 69 OFFCURVE",
"775 131 CURVE",
"757 120 LINE",
"805 44 OFFCURVE",
"866 -10 OFFCURVE",
"950 -10 CURVE SMOOTH"
);
}
);
width = 1170;
},
{
anchors = (
{
name = top;
position = "{610, 566}";
}
);
layerId = "389B3055-E02B-410E-AE74-C99A384F2C74";
paths = (
{
closed = 1;
nodes = (
"393 -12 OFFCURVE",
"523 93 OFFCURVE",
"523 278 CURVE SMOOTH",
"523 438 OFFCURVE",
"407 564 OFFCURVE",
"221 564 CURVE SMOOTH",
"100 564 OFFCURVE",
"35 507 OFFCURVE",
"35 433 CURVE SMOOTH",
"35 366 OFFCURVE",
"85 318 OFFCURVE",
"160 318 CURVE SMOOTH",
"232 318 OFFCURVE",
"276 360 OFFCURVE",
"276 420 CURVE SMOOTH",
"276 471 OFFCURVE",
"249 507 OFFCURVE",
"196 521 CURVE",
"163 504 LINE",
"176 506 OFFCURVE",
"189 507 OFFCURVE",
"203 507 CURVE SMOOTH",
"306 507 OFFCURVE",
"353 424 OFFCURVE",
"353 276 CURVE SMOOTH",
"353 128 OFFCURVE",
"296 44 OFFCURVE",
"202 44 CURVE SMOOTH",
"189 44 OFFCURVE",
"175 46 OFFCURVE",
"162 48 CURVE",
"196 30 LINE",
"249 44 OFFCURVE",
"276 81 OFFCURVE",
"276 131 CURVE SMOOTH",
"276 191 OFFCURVE",
"231 234 OFFCURVE",
"159 234 CURVE SMOOTH",
"84 234 OFFCURVE",
"34 186 OFFCURVE",
"34 119 CURVE SMOOTH",
"34 44 OFFCURVE",
"100 -12 OFFCURVE",
"220 -12 CURVE SMOOTH"
);
},
{
closed = 1;
nodes = (
"111 85 OFFCURVE",
"96 100 OFFCURVE",
"96 114 CURVE SMOOTH",
"96 130 OFFCURVE",
"109 144 OFFCURVE",
"146 144 CURVE SMOOTH",
"178 144 OFFCURVE",
"196 133 OFFCURVE",
"196 116 CURVE SMOOTH",
"196 98 OFFCURVE",
"178 85 OFFCURVE",
"146 85 CURVE SMOOTH"
);
},
{
closed = 1;
nodes = (
"110 408 OFFCURVE",
"96 421 OFFCURVE",
"96 438 CURVE SMOOTH",
"96 452 OFFCURVE",
"111 467 OFFCURVE",
"146 467 CURVE SMOOTH",
"179 467 OFFCURVE",
"196 454 OFFCURVE",
"196 436 CURVE SMOOTH",
"196 419 OFFCURVE",
"179 408 OFFCURVE",
"146 408 CURVE SMOOTH"
);
},
{
closed = 1;
nodes = (
"791 -12 OFFCURVE",
"854 85 OFFCURVE",
"854 214 CURVE SMOOTH",
"854 343 OFFCURVE",
"804 417 OFFCURVE",
"715 453 CURVE SMOOTH",
"688 464 LINE",
"572 416 LINE",
"710 416 OFFCURVE",
"775 356 OFFCURVE",
"775 275 CURVE SMOOTH",
"775 209 OFFCURVE",
"731 167 OFFCURVE",
"657 167 CURVE SMOOTH",
"582 167 OFFCURVE",
"526 202 OFFCURVE",
"489 271 CURVE",
"457 260 LINE",
"467 133 OFFCURVE",
"534 -12 OFFCURVE",
"678 -12 CURVE SMOOTH"
);
},
{
closed = 1;
nodes = (
"631 416 LINE",
"701 416 OFFCURVE",
"756 429 OFFCURVE",
"794 459 CURVE",
"829 487 OFFCURVE",
"849 529 OFFCURVE",
"849 589 CURVE",
"849 654 OFFCURVE",
"820 723 OFFCURVE",
"763 784 CURVE",
"710 745 LINE",
"742 708 OFFCURVE",
"760 680 OFFCURVE",
"760 640 CURVE",
"760 622 OFFCURVE",
"754 606 OFFCURVE",
"743 595 CURVE",
"723 575 OFFCURVE",
"688 566 OFFCURVE",
"646 566 CURVE",
"574 566 LINE",
"563 416 LINE"
);
},
{
closed = 1;
nodes = (
"1117 -12 OFFCURVE",
"1172 94 OFFCURVE",
"1172 227 CURVE SMOOTH",
"1172 398 OFFCURVE",
"1052 542 OFFCURVE",
"961 542 CURVE SMOOTH",
"928 542 OFFCURVE",
"911 514 OFFCURVE",
"911 476 CURVE SMOOTH",
"911 449 OFFCURVE",
"916 430 OFFCURVE",
"923 416 CURVE",
"1033 394 OFFCURVE",
"1099 342 OFFCURVE",
"1099 263 CURVE SMOOTH",
"1099 200 OFFCURVE",
"1052 167 OFFCURVE",
"981 167 CURVE SMOOTH",
"907 167 OFFCURVE",
"852 198 OFFCURVE",
"814 251 CURVE",
"775 234 LINE",
"818 90 OFFCURVE",
"895 -12 OFFCURVE",
"1000 -12 CURVE SMOOTH"
);
}
);
width = 1220;
},
{
anchors = (
{
name = top;
position = "{598, 547}";
}
);
layerId = "56938CB9-64C5-480A-8326-19BB97D61A51";
paths = (
{
closed = 1;
nodes = (
"369 -11 OFFCURVE",
"486 94 OFFCURVE",
"486 276 CURVE SMOOTH",
"486 435 OFFCURVE",
"384 559 OFFCURVE",
"221 559 CURVE SMOOTH",
"108 559 OFFCURVE",
"40 507 OFFCURVE",
"40 433 CURVE SMOOTH",
"40 368 OFFCURVE",
"88 325 OFFCURVE",
"158 325 CURVE SMOOTH",
"234 325 OFFCURVE",
"273 365 OFFCURVE",
"273 426 CURVE SMOOTH",
"273 475 OFFCURVE",
"246 510 OFFCURVE",
"202 523 CURVE",
"173 513 LINE",
"186 515 OFFCURVE",
"199 517 OFFCURVE",
"212 517 CURVE SMOOTH",
"324 517 OFFCURVE",
"392 424 OFFCURVE",
"392 274 CURVE SMOOTH",
"392 122 OFFCURVE",
"310 31 OFFCURVE",
"204 31 CURVE SMOOTH",
"191 31 OFFCURVE",
"178 33 OFFCURVE",
"166 34 CURVE",
"197 24 LINE",
"242 37 OFFCURVE",
"273 69 OFFCURVE",
"273 122 CURVE SMOOTH",
"273 183 OFFCURVE",
"229 223 OFFCURVE",
"159 223 CURVE SMOOTH",
"88 223 OFFCURVE",
"40 180 OFFCURVE",
"40 115 CURVE SMOOTH",
"40 44 OFFCURVE",
"101 -11 OFFCURVE",
"212 -11 CURVE SMOOTH"
);
},
{
closed = 1;
nodes = (
"105 53 OFFCURVE",
"84 84 OFFCURVE",
"84 115 CURVE SMOOTH",
"84 150 OFFCURVE",
"104 178 OFFCURVE",
"151 178 CURVE SMOOTH",
"194 178 OFFCURVE",
"219 153 OFFCURVE",
"219 117 CURVE SMOOTH",
"219 80 OFFCURVE",
"195 53 OFFCURVE",
"151 53 CURVE SMOOTH"
);
},
{
closed = 1;
nodes = (
"105 370 OFFCURVE",
"84 397 OFFCURVE",
"84 433 CURVE SMOOTH",
"84 464 OFFCURVE",
"106 495 OFFCURVE",
"155 495 CURVE SMOOTH",
"197 495 OFFCURVE",
"219 468 OFFCURVE",
"219 431 CURVE SMOOTH",
"219 395 OFFCURVE",
"195 370 OFFCURVE",
"156 370 CURVE SMOOTH"
);
},
{
closed = 1;
nodes = (
"776 -11 OFFCURVE",
"825 101 OFFCURVE",
"825 221 CURVE SMOOTH",
"825 320 OFFCURVE",
"770 429 OFFCURVE",
"664 471 CURVE",
"634 500 LINE",
"541 460 LINE",
"679 460 OFFCURVE",
"762 367 OFFCURVE",
"762 239 CURVE SMOOTH",
"762 140 OFFCURVE",
"711 84 OFFCURVE",
"629 84 CURVE SMOOTH",
"543 84 OFFCURVE",
"497 127 OFFCURVE",
"450 188 CURVE",
"412 160 LINE",
"471 64 OFFCURVE",
"536 -11 OFFCURVE",
"639 -11 CURVE SMOOTH"
);
},
{
closed = 1;
nodes = (
"632 460 LINE",
"727 460 OFFCURVE",
"761 477 OFFCURVE",
"787 503 CURVE SMOOTH",
"816 532 OFFCURVE",
"823 569 OFFCURVE",
"823 605 CURVE",
"823 666 OFFCURVE",
"797 723 OFFCURVE",
"752 771 CURVE",
"716 744 LINE",
"752 706 OFFCURVE",
"771 667 OFFCURVE",
"771 628 CURVE",
"771 602 OFFCURVE",
"763 583 OFFCURVE",
"748 570 CURVE",
"729 554 OFFCURVE",
"703 547 OFFCURVE",
"636 547 CURVE SMOOTH",
"543 547 LINE",
"537 460 LINE"
);
},
{
closed = 1;
nodes = (
"1093 -11 OFFCURVE",
"1144 92 OFFCURVE",
"1144 219 CURVE SMOOTH",
"1144 390 OFFCURVE",
"1010 521 OFFCURVE",
"944 521 CURVE SMOOTH",
"920 521 OFFCURVE",
"911 497 OFFCURVE",
"911 470 CURVE SMOOTH",
"911 457 OFFCURVE",
"913 441 OFFCURVE",
"916 433 CURVE",
"1029 396 OFFCURVE",
"1098 339 OFFCURVE",
"1098 223 CURVE SMOOTH",
"1098 151 OFFCURVE",
"1062 84 OFFCURVE",
"967 84 CURVE SMOOTH",
"882 84 OFFCURVE",
"836 131 OFFCURVE",
"799 181 CURVE",
"769 149 LINE",
"816 62 OFFCURVE",
"879 -11 OFFCURVE",
"975 -11 CURVE SMOOTH"
);
}
);
width = 1196;
},
{
anchors = (
{
name = top;
position = "{606, 561}";
}
);
layerId = "A6FB1343-85A8-49E5-AB18-F683E718EB6E";
paths = (
{
closed = 1;
nodes = (
"383 -12 OFFCURVE",
"510 93 OFFCURVE",
"510 279 CURVE SMOOTH",
"510 438 OFFCURVE",
"399 564 OFFCURVE",
"221 564 CURVE SMOOTH",
"104 564 OFFCURVE",
"37 509 OFFCURVE",
"37 435 CURVE SMOOTH",
"37 368 OFFCURVE",
"86 322 OFFCURVE",
"159 322 CURVE SMOOTH",
"233 322 OFFCURVE",
"275 364 OFFCURVE",
"275 424 CURVE SMOOTH",
"275 473 OFFCURVE",
"249 509 OFFCURVE",
"200 523 CURVE",
"166 509 LINE",
"179 511 OFFCURVE",
"193 512 OFFCURVE",
"206 512 CURVE SMOOTH",
"312 512 OFFCURVE",
"366 425 OFFCURVE",
"366 277 CURVE SMOOTH",
"366 126 OFFCURVE",
"300 40 OFFCURVE",
"202 40 CURVE SMOOTH",
"189 40 OFFCURVE",
"175 42 OFFCURVE",
"162 43 CURVE",
"198 29 LINE",
"247 42 OFFCURVE",
"275 77 OFFCURVE",
"275 128 CURVE SMOOTH",
"275 188 OFFCURVE",
"230 230 OFFCURVE",
"159 230 CURVE SMOOTH",
"85 230 OFFCURVE",
"36 184 OFFCURVE",
"36 118 CURVE SMOOTH",
"36 44 OFFCURVE",
"100 -12 OFFCURVE",
"216 -12 CURVE SMOOTH"
);
},
{
closed = 1;
nodes = (
"108 73 OFFCURVE",
"92 94 OFFCURVE",
"92 114 CURVE SMOOTH",
"92 138 OFFCURVE",
"107 156 OFFCURVE",
"147 156 CURVE SMOOTH",
"184 156 OFFCURVE",
"204 141 OFFCURVE",
"204 116 CURVE SMOOTH",
"204 92 OFFCURVE",
"184 73 OFFCURVE",
"147 73 CURVE SMOOTH"
);
},
{
closed = 1;
nodes = (
"108 396 OFFCURVE",
"92 415 OFFCURVE",
"92 438 CURVE SMOOTH",
"92 458 OFFCURVE",
"109 479 OFFCURVE",
"149 479 CURVE SMOOTH",
"185 479 OFFCURVE",
"204 460 OFFCURVE",
"204 436 CURVE SMOOTH",
"204 411 OFFCURVE",
"185 396 OFFCURVE",
"150 396 CURVE SMOOTH"
);
},
{
closed = 1;
nodes = (
"786 -12 OFFCURVE",
"843 91 OFFCURVE",
"843 216 CURVE SMOOTH",
"843 333 OFFCURVE",
"792 420 OFFCURVE",
"696 460 CURVE",
"669 478 LINE",
"560 433 LINE",
"697 433 OFFCURVE",
"770 361 OFFCURVE",
"770 261 CURVE SMOOTH",
"770 183 OFFCURVE",
"722 137 OFFCURVE",
"646 137 CURVE SMOOTH",
"567 137 OFFCURVE",
"515 174 OFFCURVE",
"474 239 CURVE",
"439 221 LINE",
"469 106 OFFCURVE",
"536 -12 OFFCURVE",
"664 -12 CURVE SMOOTH"
);
},
{
closed = 1;
nodes = (
"632 433 LINE",
"714 433 OFFCURVE",
"760 447 OFFCURVE",
"793 476 CURVE SMOOTH",
"825 505 OFFCURVE",
"840 545 OFFCURVE",
"840 596 CURVE",
"840 660 OFFCURVE",
"812 724 OFFCURVE",
"759 781 CURVE",
"712 746 LINE",
"746 707 OFFCURVE",
"764 675 OFFCURVE",
"764 637 CURVE",
"764 615 OFFCURVE",
"758 599 OFFCURVE",
"746 587 CURVE SMOOTH",
"727 568 OFFCURVE",
"695 561 OFFCURVE",
"642 561 CURVE SMOOTH",
"563 561 LINE",
"554 433 LINE"
);
},
{
closed = 1;
nodes = (
"1109 -12 OFFCURVE",
"1162 94 OFFCURVE",
"1162 225 CURVE SMOOTH",
"1162 396 OFFCURVE",
"1036 535 OFFCURVE",
"956 535 CURVE SMOOTH",
"926 535 OFFCURVE",
"911 508 OFFCURVE",
"911 473 CURVE SMOOTH",
"911 451 OFFCURVE",
"916 433 OFFCURVE",
"921 421 CURVE",
"1031 392 OFFCURVE",
"1099 340 OFFCURVE",
"1099 248 CURVE SMOOTH",
"1099 183 OFFCURVE",
"1057 137 OFFCURVE",
"977 137 CURVE SMOOTH",
"897 137 OFFCURVE",
"846 174 OFFCURVE",
"809 225 CURVE",
"773 202 LINE",
"817 80 OFFCURVE",
"889 -12 OFFCURVE",
"991 -12 CURVE SMOOTH"
);
}
);
width = 1212;
}
);
leftKerningGroup = KND_rVocalic_L;
rightKerningGroup = KND_ma_R;
unicode = 0C8B;
script = kannada;
category = Letter;
subCategory = Other;
userData = {
com.schriftgestaltung.Glyphs.ColorIndex = 1;
};
},
{
glyphname = rrVocalic_kannada;
layers = (
{
anchors = (
{
name = top;
position = "{763, 503}";
}
);
layerId = "59995968-E459-46B5-A8B1-181090AA0B10";
paths = (
{
closed = 1;
nodes = (
"1010 -6 OFFCURVE",
"1045 37 OFFCURVE",
"1045 124 CURVE SMOOTH",
"1045 165 OFFCURVE",
"1043 228 OFFCURVE",
"1043 275 CURVE SMOOTH",
"1043 348 OFFCURVE",
"1065 402 OFFCURVE",
"1101 437 CURVE SMOOTH",
"1135 470 OFFCURVE",
"1183 486 OFFCURVE",
"1236 486 CURVE SMOOTH",
"1369 486 OFFCURVE",
"1446 381 OFFCURVE",
"1446 230 CURVE SMOOTH",
"1446 120 OFFCURVE",
"1399 18 OFFCURVE",
"1292 18 CURVE SMOOTH",
"1209 18 OFFCURVE",
"1165 70 OFFCURVE",
"1165 136 CURVE SMOOTH",
"1165 196 OFFCURVE",
"1199 242 OFFCURVE",
"1238 248 CURVE",
"1225 259 LINE",
"1225 253 OFFCURVE",
"1225 247 OFFCURVE",
"1225 240 CURVE",
"1225 222 OFFCURVE",
"1239 209 OFFCURVE",
"1258 209 CURVE SMOOTH",
"1278 209 OFFCURVE",
"1290 222 OFFCURVE",
"1290 239 CURVE SMOOTH",
"1290 260 OFFCURVE",
"1276 272 OFFCURVE",
"1253 272 CURVE SMOOTH",
"1195 272 OFFCURVE",
"1142 215 OFFCURVE",
"1142 134 CURVE SMOOTH",
"1142 60 OFFCURVE",
"1196 -6 OFFCURVE",
"1291 -6 CURVE SMOOTH",
"1410 -6 OFFCURVE",
"1468 109 OFFCURVE",
"1468 232 CURVE SMOOTH",
"1468 392 OFFCURVE",
"1380 510 OFFCURVE",
"1235 510 CURVE SMOOTH",
"1111 510 OFFCURVE",
"1021 428 OFFCURVE",
"1021 278 CURVE SMOOTH",
"1021 234 OFFCURVE",
"1023 170 OFFCURVE",
"1023 126 CURVE SMOOTH",
"1023 51 OFFCURVE",
"997 18 OFFCURVE",
"942 18 CURVE SMOOTH",
"877 18 OFFCURVE",
"819 71 OFFCURVE",
"773 141 CURVE",
"760 134 LINE",
"800 58 OFFCURVE",
"870 -6 OFFCURVE",
"943 -6 CURVE SMOOTH"
);
},
{
closed = 1;
nodes = (
"104 29 OFFCURVE",
"66 68 OFFCURVE",
"66 116 CURVE SMOOTH",
"66 165 OFFCURVE",
"105 196 OFFCURVE",
"156 196 CURVE SMOOTH",
"206 196 OFFCURVE",
"245 162 OFFCURVE",
"245 113 CURVE SMOOTH",
"245 64 OFFCURVE",
"215 29 OFFCURVE",
"162 29 CURVE SMOOTH"
);
},
{
closed = 1;
nodes = (
"357 -7 OFFCURVE",
"455 92 OFFCURVE",
"455 250 CURVE SMOOTH",
"455 412 OFFCURVE",
"363 514 OFFCURVE",
"215 514 CURVE SMOOTH",
"105 514 OFFCURVE",
"44 460 OFFCURVE",
"44 393 CURVE SMOOTH",
"44 332 OFFCURVE",
"94 289 OFFCURVE",
"156 289 CURVE SMOOTH",
"219 289 OFFCURVE",
"268 330 OFFCURVE",
"268 393 CURVE SMOOTH",
"268 452 OFFCURVE",
"228 498 OFFCURVE",
"162 498 CURVE",
"192 490 LINE",
"200 491 OFFCURVE",
"207 492 OFFCURVE",
"215 492 CURVE SMOOTH",
"350 492 OFFCURVE",
"431 402 OFFCURVE",
"431 250 CURVE SMOOTH",
"431 104 OFFCURVE",
"343 16 OFFCURVE",
"215 16 CURVE SMOOTH",
"207 16 OFFCURVE",
"200 16 OFFCURVE",
"192 17 CURVE",
"162 9 LINE",
"228 9 OFFCURVE",
"268 56 OFFCURVE",
"268 114 CURVE SMOOTH",
"268 177 OFFCURVE",
"220 218 OFFCURVE",
"157 218 CURVE SMOOTH",
"94 218 OFFCURVE",
"44 175 OFFCURVE",
"44 115 CURVE SMOOTH",
"44 47 OFFCURVE",
"105 -7 OFFCURVE",
"215 -7 CURVE SMOOTH"
);
},
{
closed = 1;
nodes = (
"105 312 OFFCURVE",
"66 342 OFFCURVE",
"66 392 CURVE SMOOTH",
"66 438 OFFCURVE",
"104 478 OFFCURVE",
"162 478 CURVE SMOOTH",
"215 478 OFFCURVE",
"245 443 OFFCURVE",
"245 394 CURVE SMOOTH",
"245 345 OFFCURVE",
"206 312 OFFCURVE",
"155 312 CURVE SMOOTH"
);
},
{
closed = 1;
nodes = (
"738 -7 OFFCURVE",
"791 103 OFFCURVE",
"791 229 CURVE SMOOTH",
"791 358 OFFCURVE",
"718 453 OFFCURVE",
"606 489 CURVE",
"572 499 LINE",
"540 479 LINE",
"685 479 OFFCURVE",
"769 358 OFFCURVE",
"769 230 CURVE SMOOTH",
"769 117 OFFCURVE",
"726 18 OFFCURVE",
"608 18 CURVE SMOOTH",
"532 18 OFFCURVE",
"471 70 OFFCURVE",
"427 143 CURVE",
"412 131 LINE",
"462 48 OFFCURVE",
"524 -7 OFFCURVE",
"609 -7 CURVE SMOOTH"
);
},
{
closed = 1;
nodes = (
"617 479 LINE",
"676 479 OFFCURVE",
"721 490 OFFCURVE",
"751 515 CURVE",
"777 536 OFFCURVE",
"791 568 OFFCURVE",
"791 613 CURVE",
"791 660 OFFCURVE",
"770 705 OFFCURVE",
"742 739 CURVE",
"725 727 LINE",
"741 709 OFFCURVE",
"769 671 OFFCURVE",
"769 614 CURVE",
"769 578 OFFCURVE",
"757 551 OFFCURVE",
"735 534 CURVE SMOOTH",
"709 514 OFFCURVE",
"669 503 OFFCURVE",
"619 503 CURVE",
"509 503 LINE",
"506 479 LINE"
);
}
);
width = 1526;
},
{
anchors = (
{
name = top;
position = "{796, 566}";
}
);
layerId = "389B3055-E02B-410E-AE74-C99A384F2C74";
paths = (
{
closed = 1;
nodes = (
"1081 -12 OFFCURVE",
"1114 40 OFFCURVE",
"1114 133 CURVE SMOOTH",
"1114 157 OFFCURVE",
"1112 178 OFFCURVE",
"1112 198 CURVE SMOOTH",
"1112 263 OFFCURVE",
"1133 313 OFFCURVE",
"1170 345 CURVE SMOOTH",
"1204 374 OFFCURVE",
"1251 389 OFFCURVE",
"1310 389 CURVE SMOOTH",
"1411 389 OFFCURVE",
"1472 335 OFFCURVE",
"1472 247 CURVE SMOOTH",
"1472 168 OFFCURVE",
"1423 119 OFFCURVE",
"1342 119 CURVE SMOOTH",
"1276 119 OFFCURVE",
"1250 145 OFFCURVE",
"1250 172 CURVE SMOOTH",
"1250 192 OFFCURVE",
"1260 207 OFFCURVE",
"1278 214 CURVE",
"1264 242 LINE",
"1264 237 OFFCURVE",
"1264 232 OFFCURVE",
"1264 228 CURVE",
"1264 189 OFFCURVE",
"1290 162 OFFCURVE",
"1336 162 CURVE SMOOTH",
"1382 162 OFFCURVE",
"1410 189 OFFCURVE",
"1410 232 CURVE SMOOTH",
"1410 274 OFFCURVE",
"1379 309 OFFCURVE",
"1321 309 CURVE SMOOTH",
"1239 309 OFFCURVE",
"1176 250 OFFCURVE",
"1176 151 CURVE SMOOTH",
"1176 53 OFFCURVE",
"1239 -12 OFFCURVE",
"1350 -12 CURVE SMOOTH",
"1476 -12 OFFCURVE",
"1545 96 OFFCURVE",
"1545 257 CURVE SMOOTH",
"1545 423 OFFCURVE",
"1460 563 OFFCURVE",
"1274 563 CURVE SMOOTH",
"1120 563 OFFCURVE",
"1028 468 OFFCURVE",
"1028 307 CURVE SMOOTH",
"1028 288 OFFCURVE",
"1030 264 OFFCURVE",
"1030 246 CURVE SMOOTH",
"1030 192 OFFCURVE",
"1007 163 OFFCURVE",
"958 163 CURVE SMOOTH",
"913 163 OFFCURVE",
"874 188 OFFCURVE",
"844 254 CURVE",
"790 225 LINE",
"831 87 OFFCURVE",
"908 -12 OFFCURVE",
"1005 -12 CURVE SMOOTH"
);
},
{
closed = 1;
nodes = (
"111 85 OFFCURVE",
"96 100 OFFCURVE",
"96 114 CURVE SMOOTH",
"96 130 OFFCURVE",
"109 144 OFFCURVE",
"146 144 CURVE SMOOTH",
"178 144 OFFCURVE",
"196 133 OFFCURVE",
"196 116 CURVE SMOOTH",
"196 98 OFFCURVE",
"178 85 OFFCURVE",
"146 85 CURVE SMOOTH"
);
},
{
closed = 1;
nodes = (
"393 -12 OFFCURVE",
"523 93 OFFCURVE",
"523 278 CURVE SMOOTH",
"523 438 OFFCURVE",
"407 564 OFFCURVE",
"221 564 CURVE SMOOTH",
"100 564 OFFCURVE",
"35 507 OFFCURVE",
"35 433 CURVE SMOOTH",
"35 366 OFFCURVE",
"85 318 OFFCURVE",
"160 318 CURVE SMOOTH",
"232 318 OFFCURVE",
"276 360 OFFCURVE",
"276 420 CURVE SMOOTH",
"276 471 OFFCURVE",
"249 507 OFFCURVE",
"196 521 CURVE",
"163 504 LINE",
"176 506 OFFCURVE",
"189 507 OFFCURVE",
"203 507 CURVE SMOOTH",
"306 507 OFFCURVE",
"353 424 OFFCURVE",
"353 276 CURVE SMOOTH",
"353 128 OFFCURVE",
"296 44 OFFCURVE",
"202 44 CURVE SMOOTH",
"189 44 OFFCURVE",
"175 46 OFFCURVE",
"162 48 CURVE",
"196 30 LINE",
"249 44 OFFCURVE",
"276 81 OFFCURVE",
"276 131 CURVE SMOOTH",
"276 191 OFFCURVE",
"231 234 OFFCURVE",
"159 234 CURVE SMOOTH",
"84 234 OFFCURVE",
"34 186 OFFCURVE",
"34 119 CURVE SMOOTH",
"34 44 OFFCURVE",
"100 -12 OFFCURVE",
"220 -12 CURVE SMOOTH"
);
},
{
closed = 1;
nodes = (
"110 408 OFFCURVE",
"96 421 OFFCURVE",
"96 438 CURVE SMOOTH",
"96 452 OFFCURVE",
"111 467 OFFCURVE",
"146 467 CURVE SMOOTH",
"179 467 OFFCURVE",
"196 454 OFFCURVE",
"196 436 CURVE SMOOTH",
"196 419 OFFCURVE",
"179 408 OFFCURVE",
"146 408 CURVE SMOOTH"
);
},
{
closed = 1;
nodes = (
"797 -12 OFFCURVE",
"854 82 OFFCURVE",
"854 214 CURVE SMOOTH",
"854 344 OFFCURVE",
"804 416 OFFCURVE",
"713 455 CURVE",
"688 464 LINE",
"572 416 LINE",
"709 416 OFFCURVE",
"775 356 OFFCURVE",
"775 275 CURVE SMOOTH",
"775 209 OFFCURVE",
"731 167 OFFCURVE",
"657 167 CURVE SMOOTH",
"582 167 OFFCURVE",
"526 208 OFFCURVE",
"489 290 CURVE",
"442 265 LINE",
"453 136 OFFCURVE",
"532 -12 OFFCURVE",
"683 -12 CURVE SMOOTH"
);
},
{
closed = 1;
nodes = (
"631 416 LINE",
"701 416 OFFCURVE",
"756 429 OFFCURVE",
"794 459 CURVE",
"829 487 OFFCURVE",
"849 529 OFFCURVE",
"849 589 CURVE",
"849 654 OFFCURVE",
"820 723 OFFCURVE",
"763 784 CURVE",
"710 745 LINE",
"742 708 OFFCURVE",
"760 680 OFFCURVE",
"760 640 CURVE",
"760 622 OFFCURVE",
"754 606 OFFCURVE",
"743 595 CURVE",
"723 575 OFFCURVE",
"688 566 OFFCURVE",
"646 566 CURVE",
"574 566 LINE",
"563 416 LINE"
);
}
);
width = 1593;
},
{
anchors = (
{
name = top;
position = "{775, 547}";
}
);
layerId = "56938CB9-64C5-480A-8326-19BB97D61A51";
paths = (
{
closed = 1;
nodes = (
"1050 -12 OFFCURVE",
"1084 39 OFFCURVE",
"1084 129 CURVE SMOOTH",
"1084 171 OFFCURVE",
"1082 210 OFFCURVE",
"1082 243 CURVE SMOOTH",
"1082 322 OFFCURVE",
"1092 363 OFFCURVE",
"1113 396 CURVE SMOOTH",
"1142 443 OFFCURVE",
"1190 468 OFFCURVE",
"1260 468 CURVE SMOOTH",
"1369 468 OFFCURVE",
"1453 395 OFFCURVE",
"1453 248 CURVE SMOOTH",
"1453 133 OFFCURVE",
"1399 63 OFFCURVE",
"1309 63 CURVE SMOOTH",
"1241 63 OFFCURVE",
"1203 97 OFFCURVE",
"1203 150 CURVE SMOOTH",
"1203 186 OFFCURVE",
"1220 215 OFFCURVE",
"1247 227 CURVE",
"1232 240 LINE",
"1232 230 OFFCURVE",
"1232 222 OFFCURVE",
"1232 213 CURVE SMOOTH",
"1232 176 OFFCURVE",
"1255 161 OFFCURVE",
"1286 161 CURVE SMOOTH",
"1324 161 OFFCURVE",
"1342 186 OFFCURVE",
"1342 216 CURVE SMOOTH",
"1342 255 OFFCURVE",
"1319 282 OFFCURVE",
"1274 282 CURVE SMOOTH",
"1213 282 OFFCURVE",
"1158 230 OFFCURVE",
"1158 145 CURVE SMOOTH",
"1158 51 OFFCURVE",
"1219 -12 OFFCURVE",
"1317 -12 CURVE SMOOTH",
"1439 -12 OFFCURVE",
"1499 106 OFFCURVE",
"1499 249 CURVE SMOOTH",
"1499 441 OFFCURVE",
"1406 558 OFFCURVE",
"1257 558 CURVE SMOOTH",
"1118 558 OFFCURVE",
"1033 466 OFFCURVE",
"1033 324 CURVE SMOOTH",
"1033 268 OFFCURVE",
"1035 230 OFFCURVE",
"1035 204 CURVE SMOOTH",
"1035 142 OFFCURVE",
"1029 83 OFFCURVE",
"964 83 CURVE SMOOTH",
"909 83 OFFCURVE",
"851 117 OFFCURVE",
"796 197 CURVE",
"774 172 LINE",
"839 43 OFFCURVE",
"898 -12 OFFCURVE",
"971 -12 CURVE SMOOTH"
);
},
{
closed = 1;
nodes = (
"105 52 OFFCURVE",
"84 83 OFFCURVE",
"84 114 CURVE SMOOTH",
"84 149 OFFCURVE",
"104 176 OFFCURVE",
"151 176 CURVE SMOOTH",
"194 176 OFFCURVE",
"219 152 OFFCURVE",
"219 116 CURVE SMOOTH",
"219 79 OFFCURVE",
"195 52 OFFCURVE",
"151 52 CURVE SMOOTH"
);
},
{
closed = 1;
nodes = (
"369 -12 OFFCURVE",
"486 93 OFFCURVE",
"486 275 CURVE SMOOTH",
"486 435 OFFCURVE",
"384 559 OFFCURVE",
"221 559 CURVE SMOOTH",
"108 559 OFFCURVE",
"40 507 OFFCURVE",
"40 433 CURVE SMOOTH",
"40 368 OFFCURVE",
"88 325 OFFCURVE",
"158 325 CURVE SMOOTH",
"234 325 OFFCURVE",
"273 365 OFFCURVE",
"273 426 CURVE SMOOTH",
"273 475 OFFCURVE",
"246 510 OFFCURVE",
"202 523 CURVE",
"173 514 LINE",
"186 516 OFFCURVE",
"199 517 OFFCURVE",
"212 517 CURVE SMOOTH",
"324 517 OFFCURVE",
"392 423 OFFCURVE",
"392 274 CURVE SMOOTH",
"392 121 OFFCURVE",
"310 30 OFFCURVE",
"204 30 CURVE SMOOTH",
"191 30 OFFCURVE",
"178 32 OFFCURVE",
"166 33 CURVE",
"197 23 LINE",
"242 36 OFFCURVE",
"273 68 OFFCURVE",
"273 121 CURVE SMOOTH",
"273 182 OFFCURVE",
"229 222 OFFCURVE",
"159 222 CURVE SMOOTH",
"88 222 OFFCURVE",
"40 179 OFFCURVE",
"40 114 CURVE SMOOTH",
"40 43 OFFCURVE",
"101 -12 OFFCURVE",
"212 -12 CURVE SMOOTH"
);
},
{
closed = 1;
nodes = (
"105 371 OFFCURVE",
"84 397 OFFCURVE",
"84 433 CURVE SMOOTH",
"84 464 OFFCURVE",
"106 495 OFFCURVE",
"155 495 CURVE SMOOTH",
"197 495 OFFCURVE",
"219 468 OFFCURVE",
"219 432 CURVE SMOOTH",
"219 395 OFFCURVE",
"195 371 OFFCURVE",
"156 371 CURVE SMOOTH"
);
},
{
closed = 1;
nodes = (
"776 -10 OFFCURVE",
"825 101 OFFCURVE",
"825 221 CURVE SMOOTH",
"825 320 OFFCURVE",
"770 429 OFFCURVE",
"664 471 CURVE",
"634 500 LINE",
"541 460 LINE",
"679 460 OFFCURVE",
"762 367 OFFCURVE",
"762 239 CURVE SMOOTH",
"762 140 OFFCURVE",
"711 85 OFFCURVE",
"629 85 CURVE SMOOTH",
"543 85 OFFCURVE",
"496 127 OFFCURVE",
"450 188 CURVE",
"413 160 LINE",
"471 64 OFFCURVE",
"537 -10 OFFCURVE",
"639 -10 CURVE SMOOTH"
);
},
{
closed = 1;
nodes = (
"632 460 LINE",
"727 460 OFFCURVE",
"761 477 OFFCURVE",
"787 503 CURVE SMOOTH",
"816 532 OFFCURVE",
"823 569 OFFCURVE",
"823 605 CURVE",
"823 666 OFFCURVE",
"797 723 OFFCURVE",
"752 771 CURVE",
"716 744 LINE",
"752 706 OFFCURVE",
"771 667 OFFCURVE",
"771 628 CURVE",
"771 602 OFFCURVE",
"763 583 OFFCURVE",
"748 570 CURVE",
"729 554 OFFCURVE",
"703 547 OFFCURVE",
"636 547 CURVE",
"543 547 LINE",
"537 460 LINE"
);
}
);
width = 1551;
},
{
anchors = (
{
name = top;
position = "{789, 561}";
}
);
layerId = "A6FB1343-85A8-49E5-AB18-F683E718EB6E";
paths = (
{
closed = 1;
nodes = (
"1070 -12 OFFCURVE",
"1104 39 OFFCURVE",
"1104 132 CURVE SMOOTH",
"1104 163 OFFCURVE",
"1102 190 OFFCURVE",
"1102 215 CURVE SMOOTH",
"1102 285 OFFCURVE",
"1118 331 OFFCURVE",
"1148 363 CURVE SMOOTH",
"1179 400 OFFCURVE",
"1227 420 OFFCURVE",
"1291 420 CURVE SMOOTH",
"1394 420 OFFCURVE",
"1464 359 OFFCURVE",
"1464 248 CURVE SMOOTH",
"1464 155 OFFCURVE",
"1413 99 OFFCURVE",
"1329 99 CURVE SMOOTH",
"1263 99 OFFCURVE",
"1232 127 OFFCURVE",
"1232 164 CURVE SMOOTH",
"1232 189 OFFCURVE",
"1245 209 OFFCURVE",
"1266 218 CURVE",
"1251 240 LINE",
"1251 233 OFFCURVE",
"1251 227 OFFCURVE",
"1251 221 CURVE SMOOTH",
"1251 182 OFFCURVE",
"1276 159 OFFCURVE",
"1317 159 CURVE SMOOTH",
"1360 159 OFFCURVE",
"1385 187 OFFCURVE",
"1385 225 CURVE SMOOTH",
"1385 267 OFFCURVE",
"1357 298 OFFCURVE",
"1303 298 CURVE SMOOTH",
"1229 298 OFFCURVE",
"1169 242 OFFCURVE",
"1169 149 CURVE SMOOTH",
"1169 52 OFFCURVE",
"1231 -12 OFFCURVE",
"1338 -12 CURVE SMOOTH",
"1462 -12 OFFCURVE",
"1528 100 OFFCURVE",
"1528 254 CURVE SMOOTH",
"1528 433 OFFCURVE",
"1440 563 OFFCURVE",
"1268 563 CURVE SMOOTH",
"1119 563 OFFCURVE",
"1030 469 OFFCURVE",
"1030 315 CURVE SMOOTH",
"1030 281 OFFCURVE",
"1033 253 OFFCURVE",
"1033 232 CURVE SMOOTH",
"1033 176 OFFCURVE",
"1017 134 OFFCURVE",
"961 134 CURVE SMOOTH",
"913 134 OFFCURVE",
"866 162 OFFCURVE",
"825 234 CURVE",
"784 205 LINE",
"836 69 OFFCURVE",
"905 -12 OFFCURVE",
"993 -12 CURVE SMOOTH"
);
},
{
closed = 1;
nodes = (
"108 73 OFFCURVE",
"92 94 OFFCURVE",
"92 114 CURVE SMOOTH",
"92 137 OFFCURVE",
"107 156 OFFCURVE",
"147 156 CURVE SMOOTH",
"184 156 OFFCURVE",
"204 140 OFFCURVE",
"204 116 CURVE SMOOTH",
"204 91 OFFCURVE",
"184 73 OFFCURVE",
"147 73 CURVE SMOOTH"
);
},
{
closed = 1;
nodes = (
"383 -12 OFFCURVE",
"510 93 OFFCURVE",
"510 278 CURVE SMOOTH",
"510 438 OFFCURVE",
"399 564 OFFCURVE",
"221 564 CURVE SMOOTH",
"104 564 OFFCURVE",
"37 509 OFFCURVE",
"37 435 CURVE SMOOTH",
"37 368 OFFCURVE",
"86 322 OFFCURVE",
"159 322 CURVE SMOOTH",
"233 322 OFFCURVE",
"275 364 OFFCURVE",
"275 424 CURVE SMOOTH",
"275 473 OFFCURVE",
"249 509 OFFCURVE",
"200 523 CURVE",
"166 509 LINE",
"179 511 OFFCURVE",
"193 512 OFFCURVE",
"206 512 CURVE SMOOTH",
"312 512 OFFCURVE",
"366 425 OFFCURVE",
"366 276 CURVE SMOOTH",
"366 126 OFFCURVE",
"300 40 OFFCURVE",
"202 40 CURVE SMOOTH",
"189 40 OFFCURVE",
"175 41 OFFCURVE",
"162 43 CURVE",
"198 28 LINE",
"247 42 OFFCURVE",
"275 77 OFFCURVE",
"275 127 CURVE SMOOTH",
"275 188 OFFCURVE",
"230 229 OFFCURVE",
"159 229 CURVE SMOOTH",
"85 229 OFFCURVE",
"36 183 OFFCURVE",
"36 117 CURVE SMOOTH",
"36 43 OFFCURVE",
"100 -12 OFFCURVE",
"216 -12 CURVE SMOOTH"
);
},
{
closed = 1;
nodes = (
"108 396 OFFCURVE",
"92 415 OFFCURVE",
"92 438 CURVE SMOOTH",
"92 458 OFFCURVE",
"109 479 OFFCURVE",
"149 479 CURVE SMOOTH",
"185 479 OFFCURVE",
"204 460 OFFCURVE",
"204 436 CURVE SMOOTH",
"204 411 OFFCURVE",
"185 396 OFFCURVE",
"150 396 CURVE SMOOTH"
);
},
{
closed = 1;
nodes = (
"790 -12 OFFCURVE",
"843 89 OFFCURVE",
"843 216 CURVE SMOOTH",
"843 333 OFFCURVE",
"792 420 OFFCURVE",
"696 460 CURVE",
"669 478 LINE",
"560 433 LINE",
"697 433 OFFCURVE",
"770 361 OFFCURVE",
"770 261 CURVE SMOOTH",
"770 183 OFFCURVE",
"722 137 OFFCURVE",
"646 137 CURVE SMOOTH",
"567 137 OFFCURVE",
"515 179 OFFCURVE",
"474 251 CURVE",
"430 224 LINE",
"460 108 OFFCURVE",
"534 -12 OFFCURVE",
"667 -12 CURVE SMOOTH"
);
},
{
closed = 1;
nodes = (
"632 433 LINE",
"714 433 OFFCURVE",
"760 447 OFFCURVE",
"793 476 CURVE SMOOTH",
"825 505 OFFCURVE",
"840 545 OFFCURVE",
"840 596 CURVE",
"840 660 OFFCURVE",
"812 724 OFFCURVE",
"759 781 CURVE",
"712 746 LINE",
"746 707 OFFCURVE",
"764 675 OFFCURVE",
"764 637 CURVE",
"764 615 OFFCURVE",
"758 599 OFFCURVE",
"746 587 CURVE SMOOTH",
"727 568 OFFCURVE",
"695 561 OFFCURVE",
"642 561 CURVE",
"563 561 LINE",
"554 433 LINE"
);
}
);
width = 1578;
}
);
leftKerningGroup = KND_rVocalic_L;
rightKerningGroup = KND_uuMatra_R;
unicode = 0CE0;
script = kannada;
category = Letter;
subCategory = Other;
userData = {
com.schriftgestaltung.Glyphs.ColorIndex = 1;
};
},
{
glyphname = lVocalic_kannada;
layers = (
{
anchors = (
{
name = top;
position = "{364, 503}";
}
);
layerId = "59995968-E459-46B5-A8B1-181090AA0B10";
paths = (
{
closed = 1;
nodes = (
"610 -10 OFFCURVE",
"672 89 OFFCURVE",
"685 190 CURVE",
"663 194 LINE",
"650 101 OFFCURVE",
"597 15 OFFCURVE",
"495 15 CURVE SMOOTH",
"419 15 OFFCURVE",
"389 51 OFFCURVE",
"389 97 CURVE SMOOTH",
"389 220 OFFCURVE",
"602 223 OFFCURVE",
"602 388 CURVE SMOOTH",
"602 455 OFFCURVE",
"557 513 OFFCURVE",
"466 513 CURVE SMOOTH",
"371 513 OFFCURVE",
"326 448 OFFCURVE",
"317 383 CURVE",
"330 383 LINE",
"322 448 OFFCURVE",
"271 513 OFFCURVE",
"185 513 CURVE SMOOTH",
"99 513 OFFCURVE",
"44 452 OFFCURVE",
"44 381 CURVE SMOOTH",
"44 334 OFFCURVE",
"65 300 OFFCURVE",
"95 271 CURVE",
"110 283 LINE",
"83 312 OFFCURVE",
"66 340 OFFCURVE",
"66 379 CURVE SMOOTH",
"66 442 OFFCURVE",
"111 488 OFFCURVE",
"185 488 CURVE SMOOTH",
"268 488 OFFCURVE",
"313 423 OFFCURVE",
"313 350 CURVE",
"335 350 LINE",
"335 435 OFFCURVE",
"381 488 OFFCURVE",
"465 488 CURVE SMOOTH",
"543 488 OFFCURVE",
"579 443 OFFCURVE",
"579 390 CURVE SMOOTH",
"579 239 OFFCURVE",
"364 238 OFFCURVE",
"364 99 CURVE SMOOTH",
"364 40 OFFCURVE",
"407 -10 OFFCURVE",
"495 -10 CURVE SMOOTH"
);
}
);
width = 729;
},
{
anchors = (
{
name = top;
position = "{394, 566}";
}
);
layerId = "389B3055-E02B-410E-AE74-C99A384F2C74";
paths = (
{
closed = 1;
nodes = (
"659 -12 OFFCURVE",
"727 85 OFFCURVE",
"754 231 CURVE",
"699 240 LINE",
"680 177 OFFCURVE",
"627 137 OFFCURVE",
"560 137 CURVE SMOOTH",
"515 137 OFFCURVE",
"493 154 OFFCURVE",
"493 182 CURVE SMOOTH",
"493 251 OFFCURVE",
"658 279 OFFCURVE",
"658 427 CURVE SMOOTH",
"658 513 OFFCURVE",
"607 579 OFFCURVE",
"505 579 CURVE SMOOTH",
"408 579 OFFCURVE",
"350 514 OFFCURVE",
"343 431 CURVE",
"354 431 LINE",
"346 509 OFFCURVE",
"291 579 OFFCURVE",
"194 579 CURVE SMOOTH",
"99 579 OFFCURVE",
"34 506 OFFCURVE",
"34 421 CURVE SMOOTH",
"34 356 OFFCURVE",
"61 313 OFFCURVE",
"115 285 CURVE",
"145 316 LINE",
"135 324 OFFCURVE",
"130 334 OFFCURVE",
"130 346 CURVE SMOOTH",
"130 381 OFFCURVE",
"163 404 OFFCURVE",
"221 404 CURVE SMOOTH",
"281 404 OFFCURVE",
"313 380 OFFCURVE",
"320 342 CURVE",
"375 342 LINE",
"382 380 OFFCURVE",
"424 404 OFFCURVE",
"486 404 CURVE SMOOTH",
"542 404 OFFCURVE",
"562 386 OFFCURVE",
"562 356 CURVE SMOOTH",
"562 278 OFFCURVE",
"390 249 OFFCURVE",
"390 110 CURVE SMOOTH",
"390 34 OFFCURVE",
"451 -12 OFFCURVE",
"534 -12 CURVE SMOOTH"
);
}
);
width = 788;
},
{
anchors = (
{
name = top;
position = "{369, 547}";
}
);
layerId = "56938CB9-64C5-480A-8326-19BB97D61A51";
paths = (
{
closed = 1;
nodes = (
"628 -11 OFFCURVE",
"678 80 OFFCURVE",
"698 202 CURVE",
"656 208 LINE",
"640 134 OFFCURVE",
"604 73 OFFCURVE",
"520 73 CURVE SMOOTH",
"471 73 OFFCURVE",
"440 98 OFFCURVE",
"440 136 CURVE SMOOTH",
"440 227 OFFCURVE",
"605 251 OFFCURVE",
"605 411 CURVE SMOOTH",
"605 491 OFFCURVE",
"556 558 OFFCURVE",
"460 558 CURVE SMOOTH",
"383 558 OFFCURVE",
"330 513 OFFCURVE",
"317 431 CURVE",
"333 431 LINE",
"320 504 OFFCURVE",
"272 558 OFFCURVE",
"187 558 CURVE SMOOTH",
"101 558 OFFCURVE",
"40 500 OFFCURVE",
"40 420 CURVE SMOOTH",
"40 364 OFFCURVE",
"61 322 OFFCURVE",
"98 287 CURVE",
"126 309 LINE",
"102 334 OFFCURVE",
"91 356 OFFCURVE",
"91 387 CURVE SMOOTH",
"91 433 OFFCURVE",
"127 468 OFFCURVE",
"193 468 CURVE SMOOTH",
"262 468 OFFCURVE",
"298 427 OFFCURVE",
"298 364 CURVE",
"348 364 LINE",
"348 428 OFFCURVE",
"384 468 OFFCURVE",
"458 468 CURVE SMOOTH",
"522 468 OFFCURVE",
"554 435 OFFCURVE",
"554 391 CURVE SMOOTH",
"554 276 OFFCURVE",
"378 249 OFFCURVE",
"378 113 CURVE SMOOTH",
"378 39 OFFCURVE",
"432 -11 OFFCURVE",
"517 -11 CURVE SMOOTH"
);
}
);
width = 738;
},
{
anchors = (
{
name = top;
position = "{384, 561}";
}
);
layerId = "A6FB1343-85A8-49E5-AB18-F683E718EB6E";
paths = (
{
closed = 1;
nodes = (
"654 -12 OFFCURVE",
"714 91 OFFCURVE",
"731 204 CURVE",
"684 213 LINE",
"660 150 OFFCURVE",
"615 107 OFFCURVE",
"546 107 CURVE SMOOTH",
"501 107 OFFCURVE",
"477 128 OFFCURVE",
"477 160 CURVE SMOOTH",
"477 239 OFFCURVE",
"637 264 OFFCURVE",
"637 420 CURVE SMOOTH",
"637 505 OFFCURVE",
"586 572 OFFCURVE",
"487 572 CURVE SMOOTH",
"396 572 OFFCURVE",
"339 517 OFFCURVE",
"333 433 CURVE",
"345 433 LINE",
"335 509 OFFCURVE",
"283 572 OFFCURVE",
"191 572 CURVE SMOOTH",
"100 572 OFFCURVE",
"36 507 OFFCURVE",
"36 425 CURVE SMOOTH",
"36 362 OFFCURVE",
"61 318 OFFCURVE",
"108 286 CURVE",
"137 314 LINE",
"123 330 OFFCURVE",
"115 346 OFFCURVE",
"115 365 CURVE SMOOTH",
"115 403 OFFCURVE",
"149 429 OFFCURVE",
"210 429 CURVE SMOOTH",
"272 429 OFFCURVE",
"306 399 OFFCURVE",
"310 351 CURVE",
"365 351 LINE",
"369 399 OFFCURVE",
"408 429 OFFCURVE",
"475 429 CURVE SMOOTH",
"533 429 OFFCURVE",
"558 408 OFFCURVE",
"558 376 CURVE SMOOTH",
"558 269 OFFCURVE",
"392 252 OFFCURVE",
"392 112 CURVE SMOOTH",
"392 36 OFFCURVE",
"450 -12 OFFCURVE",
"530 -12 CURVE SMOOTH"
);
}
);
width = 769;
}
);
leftKerningGroup = KND_lVocalic_L;
rightKerningGroup = KND_lVocalic_R;
unicode = 0C8C;
script = kannada;
category = Letter;
subCategory = Other;
userData = {
com.typemytype.robofont.layerData = {
background = {
anchors = (
);
components = (
);
contours = (
{
points = (
{
segmentType = line;
smooth = 0;
x = 647;
y = 894;
},
{
smooth = 0;
x = 657;
y = 1066;
},
{
smooth = 0;
x = 775;
y = 1154;
},
{
segmentType = curve;
smooth = 1;
x = 944;
y = 1154;
},
{
smooth = 0;
x = 1138;
y = 1154;
},
{
smooth = 0;
x = 1238;
y = 1029;
},
{
segmentType = curve;
smooth = 1;
x = 1238;
y = 877;
},
{
smooth = 0;
x = 1238;
y = 719;
},
{
smooth = 0;
x = 1154;
y = 628;
},
{
segmentType = curve;
smooth = 1;
x = 974;
y = 520;
},
{
smooth = 0;
x = 779;
y = 403;
},
{
smooth = 0;
x = 716;
y = 352;
},
{
segmentType = curve;
smooth = 1;
x = 716;
y = 288;
},
{
smooth = 0;
x = 716;
y = 238;
},
{
smooth = 0;
x = 766;
y = 186;
},
{
segmentType = curve;
smooth = 1;
x = 923;
y = 186;
},
{
smooth = 0;
x = 1246;
y = 186;
},
{
smooth = 0;
x = 1401;
y = 435;
},
{
segmentType = curve;
smooth = 1;
x = 1401;
y = 719;
},
{
smooth = 0;
x = 1401;
y = 849;
},
{
smooth = 0;
x = 1366;
y = 991;
},
{
segmentType = curve;
smooth = 0;
x = 1300;
y = 1116;
},
{
segmentType = line;
smooth = 0;
x = 1375;
y = 1144;
},
{
smooth = 0;
x = 1464;
y = 994;
},
{
smooth = 0;
x = 1506;
y = 820;
},
{
segmentType = curve;
smooth = 1;
x = 1506;
y = 665;
},
{
smooth = 0;
x = 1506;
y = 316;
},
{
smooth = 0;
x = 1309;
y = -25;
},
{
segmentType = curve;
smooth = 1;
x = 952;
y = -25;
},
{
smooth = 0;
x = 701;
y = -25;
},
{
smooth = 0;
x = 556;
y = 87;
},
{
segmentType = curve;
smooth = 1;
x = 556;
y = 224;
},
{
smooth = 0;
x = 556;
y = 335;
},
{
smooth = 0;
x = 616;
y = 406;
},
{
segmentType = curve;
smooth = 1;
x = 861;
y = 556;
},
{
smooth = 0;
x = 1089;
y = 695;
},
{
smooth = 0;
x = 1126;
y = 747;
},
{
segmentType = curve;
smooth = 1;
x = 1126;
y = 823;
},
{
smooth = 0;
x = 1126;
y = 904;
},
{
smooth = 0;
x = 1067;
y = 955;
},
{
segmentType = curve;
smooth = 1;
x = 923;
y = 955;
},
{
smooth = 0;
x = 772;
y = 955;
},
{
smooth = 0;
x = 713;
y = 877;
},
{
segmentType = curve;
smooth = 0;
x = 713;
y = 749;
},
{
segmentType = line;
smooth = 0;
x = 604;
y = 749;
},
{
smooth = 0;
x = 604;
y = 877;
},
{
smooth = 0;
x = 532;
y = 955;
},
{
segmentType = curve;
smooth = 1;
x = 396;
y = 955;
},
{
smooth = 0;
x = 275;
y = 955;
},
{
smooth = 0;
x = 190;
y = 890;
},
{
segmentType = curve;
smooth = 1;
x = 190;
y = 805;
},
{
smooth = 0;
x = 190;
y = 766;
},
{
smooth = 0;
x = 202;
y = 733;
},
{
segmentType = curve;
smooth = 0;
x = 223;
y = 699;
},
{
segmentType = line;
smooth = 0;
x = 159;
y = 659;
},
{
smooth = 0;
x = 109;
y = 714;
},
{
smooth = 0;
x = 80;
y = 776;
},
{
segmentType = curve;
smooth = 1;
x = 80;
y = 861;
},
{
smooth = 0;
x = 80;
y = 1022;
},
{
smooth = 0;
x = 214;
y = 1154;
},
{
segmentType = curve;
smooth = 1;
x = 380;
y = 1154;
},
{
smooth = 0;
x = 554;
y = 1154;
},
{
smooth = 0;
x = 653;
y = 1046;
},
{
segmentType = curve;
smooth = 0;
x = 678;
y = 894;
}
);
}
);
lib = {
};
name = knvL;
unicodes = (
);
width = 1634;
};
};
};
},
{
glyphname = llVocalic_kannada;
layers = (
{
anchors = (
{
name = top;
position = "{364, 503}";
}
);
layerId = "59995968-E459-46B5-A8B1-181090AA0B10";
paths = (
{
closed = 1;
nodes = (
"610 -10 OFFCURVE",
"672 89 OFFCURVE",
"685 190 CURVE",
"663 194 LINE",
"650 101 OFFCURVE",
"597 15 OFFCURVE",
"495 15 CURVE SMOOTH",
"419 15 OFFCURVE",
"389 51 OFFCURVE",
"389 97 CURVE SMOOTH",
"389 220 OFFCURVE",
"602 223 OFFCURVE",
"602 388 CURVE SMOOTH",
"602 455 OFFCURVE",
"557 513 OFFCURVE",
"466 513 CURVE SMOOTH",
"371 513 OFFCURVE",
"326 448 OFFCURVE",
"317 383 CURVE",
"330 383 LINE",
"322 448 OFFCURVE",
"271 513 OFFCURVE",
"185 513 CURVE SMOOTH",
"99 513 OFFCURVE",
"44 452 OFFCURVE",
"44 381 CURVE SMOOTH",
"44 334 OFFCURVE",
"65 300 OFFCURVE",
"95 271 CURVE",
"110 283 LINE",
"83 312 OFFCURVE",
"66 340 OFFCURVE",
"66 379 CURVE SMOOTH",
"66 442 OFFCURVE",
"111 488 OFFCURVE",
"185 488 CURVE SMOOTH",
"268 488 OFFCURVE",
"313 423 OFFCURVE",
"313 350 CURVE",
"335 350 LINE",
"335 435 OFFCURVE",
"381 488 OFFCURVE",
"465 488 CURVE SMOOTH",
"543 488 OFFCURVE",
"579 443 OFFCURVE",
"579 390 CURVE SMOOTH",
"579 239 OFFCURVE",
"364 238 OFFCURVE",
"364 99 CURVE SMOOTH",
"364 40 OFFCURVE",
"407 -10 OFFCURVE",
"495 -10 CURVE SMOOTH"
);
},
{
closed = 1;
nodes = (
"468 8 LINE",
"421 -22 OFFCURVE",
"386 -58 OFFCURVE",
"386 -111 CURVE SMOOTH",
"386 -170 OFFCURVE",
"429 -220 OFFCURVE",
"517 -220 CURVE SMOOTH",
"632 -220 OFFCURVE",
"694 -121 OFFCURVE",
"707 -20 CURVE",
"685 -16 LINE",
"672 -109 OFFCURVE",
"619 -195 OFFCURVE",
"517 -195 CURVE SMOOTH",
"441 -195 OFFCURVE",
"411 -159 OFFCURVE",
"411 -113 CURVE SMOOTH",
"411 -63 OFFCURVE",
"446 -33 OFFCURVE",
"486 -4 CURVE"
);
}
);
width = 729;
},
{
anchors = (
{
name = top;
position = "{394, 566}";
}
);
layerId = "389B3055-E02B-410E-AE74-C99A384F2C74";
paths = (
{
closed = 1;
nodes = (
"659 -12 OFFCURVE",
"727 85 OFFCURVE",
"754 231 CURVE",
"699 240 LINE",
"680 177 OFFCURVE",
"627 137 OFFCURVE",
"560 137 CURVE SMOOTH",
"515 137 OFFCURVE",
"493 154 OFFCURVE",
"493 182 CURVE SMOOTH",
"493 251 OFFCURVE",
"658 279 OFFCURVE",
"658 427 CURVE SMOOTH",
"658 513 OFFCURVE",
"607 579 OFFCURVE",
"505 579 CURVE SMOOTH",
"408 579 OFFCURVE",
"350 514 OFFCURVE",
"343 431 CURVE",
"354 431 LINE",
"346 509 OFFCURVE",
"291 579 OFFCURVE",
"194 579 CURVE SMOOTH",
"99 579 OFFCURVE",
"34 506 OFFCURVE",
"34 421 CURVE SMOOTH",
"34 356 OFFCURVE",
"61 313 OFFCURVE",
"115 285 CURVE",
"145 316 LINE",
"135 324 OFFCURVE",
"130 334 OFFCURVE",
"130 346 CURVE SMOOTH",
"130 381 OFFCURVE",
"163 404 OFFCURVE",
"221 404 CURVE SMOOTH",
"281 404 OFFCURVE",
"313 380 OFFCURVE",
"320 342 CURVE",
"375 342 LINE",
"382 380 OFFCURVE",
"424 404 OFFCURVE",
"486 404 CURVE SMOOTH",
"542 404 OFFCURVE",
"562 386 OFFCURVE",
"562 356 CURVE SMOOTH",
"562 278 OFFCURVE",
"390 249 OFFCURVE",
"390 110 CURVE SMOOTH",
"390 34 OFFCURVE",
"451 -12 OFFCURVE",
"534 -12 CURVE SMOOTH"
);
},
{
closed = 1;
nodes = (
"520 26 LINE",
"462 -19 OFFCURVE",
"408 -61 OFFCURVE",
"408 -140 CURVE SMOOTH",
"408 -216 OFFCURVE",
"469 -262 OFFCURVE",
"552 -262 CURVE SMOOTH",
"677 -262 OFFCURVE",
"745 -165 OFFCURVE",
"772 -19 CURVE",
"717 -10 LINE",
"698 -73 OFFCURVE",
"645 -113 OFFCURVE",
"578 -113 CURVE SMOOTH",
"533 -113 OFFCURVE",
"511 -96 OFFCURVE",
"511 -68 CURVE SMOOTH",
"511 -43 OFFCURVE",
"532 -24 OFFCURVE",
"559 -3 CURVE"
);
}
);
width = 788;
},
{
anchors = (
{
name = top;
position = "{369, 547}";
}
);
layerId = "56938CB9-64C5-480A-8326-19BB97D61A51";
paths = (
{
closed = 1;
nodes = (
"628 -11 OFFCURVE",
"678 80 OFFCURVE",
"698 202 CURVE",
"656 208 LINE",
"640 134 OFFCURVE",
"604 73 OFFCURVE",
"520 73 CURVE SMOOTH",
"471 73 OFFCURVE",
"440 98 OFFCURVE",
"440 136 CURVE SMOOTH",
"440 227 OFFCURVE",
"605 251 OFFCURVE",
"605 411 CURVE SMOOTH",
"605 491 OFFCURVE",
"556 558 OFFCURVE",
"460 558 CURVE SMOOTH",
"383 558 OFFCURVE",
"330 513 OFFCURVE",
"317 431 CURVE",
"333 431 LINE",
"320 504 OFFCURVE",
"272 558 OFFCURVE",
"187 558 CURVE SMOOTH",
"101 558 OFFCURVE",
"40 500 OFFCURVE",
"40 420 CURVE SMOOTH",
"40 364 OFFCURVE",
"61 322 OFFCURVE",
"98 287 CURVE",
"126 309 LINE",
"102 334 OFFCURVE",
"91 356 OFFCURVE",
"91 387 CURVE SMOOTH",
"91 433 OFFCURVE",
"127 468 OFFCURVE",
"193 468 CURVE SMOOTH",
"262 468 OFFCURVE",
"298 427 OFFCURVE",
"298 364 CURVE",
"348 364 LINE",
"348 428 OFFCURVE",
"384 468 OFFCURVE",
"458 468 CURVE SMOOTH",
"522 468 OFFCURVE",
"554 435 OFFCURVE",
"554 391 CURVE SMOOTH",
"554 276 OFFCURVE",
"378 249 OFFCURVE",
"378 113 CURVE SMOOTH",
"378 39 OFFCURVE",
"432 -11 OFFCURVE",
"517 -11 CURVE SMOOTH"
);
},
{
closed = 1;
nodes = (
"483 33 LINE",
"440 -4 OFFCURVE",
"398 -45 OFFCURVE",
"398 -111 CURVE SMOOTH",
"398 -185 OFFCURVE",
"452 -235 OFFCURVE",
"537 -235 CURVE SMOOTH",
"648 -235 OFFCURVE",
"698 -144 OFFCURVE",
"718 -22 CURVE",
"676 -16 LINE",
"660 -90 OFFCURVE",
"624 -151 OFFCURVE",
"540 -151 CURVE SMOOTH",
"491 -151 OFFCURVE",
"460 -126 OFFCURVE",
"460 -88 CURVE SMOOTH",
"460 -51 OFFCURVE",
"487 -25 OFFCURVE",
"520 3 CURVE"
);
}
);
width = 738;
},
{
anchors = (
{
name = top;
position = "{384, 561}";
}
);
layerId = "A6FB1343-85A8-49E5-AB18-F683E718EB6E";
paths = (
{
closed = 1;
nodes = (
"654 -12 OFFCURVE",
"714 91 OFFCURVE",
"731 204 CURVE",
"684 213 LINE",
"660 150 OFFCURVE",
"615 107 OFFCURVE",
"546 107 CURVE SMOOTH",
"501 107 OFFCURVE",
"477 128 OFFCURVE",
"477 160 CURVE SMOOTH",
"477 238 OFFCURVE",
"637 263 OFFCURVE",
"637 420 CURVE SMOOTH",
"637 505 OFFCURVE",
"586 572 OFFCURVE",
"487 572 CURVE SMOOTH",
"396 572 OFFCURVE",
"339 517 OFFCURVE",
"333 433 CURVE",
"345 433 LINE",
"335 509 OFFCURVE",
"283 572 OFFCURVE",
"191 572 CURVE SMOOTH",
"100 572 OFFCURVE",
"36 507 OFFCURVE",
"36 425 CURVE SMOOTH",
"36 362 OFFCURVE",
"61 318 OFFCURVE",
"108 286 CURVE",
"137 314 LINE",
"123 330 OFFCURVE",
"115 346 OFFCURVE",
"115 365 CURVE SMOOTH",
"115 403 OFFCURVE",
"149 429 OFFCURVE",
"210 429 CURVE SMOOTH",
"272 429 OFFCURVE",
"306 399 OFFCURVE",
"310 351 CURVE",
"365 351 LINE",
"369 399 OFFCURVE",
"408 429 OFFCURVE",
"475 429 CURVE SMOOTH",
"533 429 OFFCURVE",
"558 408 OFFCURVE",
"558 376 CURVE SMOOTH",
"558 269 OFFCURVE",
"392 252 OFFCURVE",
"392 112 CURVE SMOOTH",
"392 36 OFFCURVE",
"450 -12 OFFCURVE",
"530 -12 CURVE SMOOTH"
);
},
{
closed = 1;
nodes = (
"514 41 LINE",
"465 -2 OFFCURVE",
"402 -42 OFFCURVE",
"402 -128 CURVE SMOOTH",
"402 -204 OFFCURVE",
"460 -252 OFFCURVE",
"540 -252 CURVE SMOOTH",
"664 -252 OFFCURVE",
"724 -149 OFFCURVE",
"741 -36 CURVE",
"694 -27 LINE",
"670 -90 OFFCURVE",
"625 -133 OFFCURVE",
"556 -133 CURVE SMOOTH",
"511 -133 OFFCURVE",
"487 -112 OFFCURVE",
"487 -80 CURVE SMOOTH",
"487 -45 OFFCURVE",
"518 -21 OFFCURVE",
"553 9 CURVE"
);
}
);
width = 769;
}
);
leftKerningGroup = KND_lVocalic_L;
widthMetricsKey = lVocalic_kannada;
rightKerningGroup = KND_lVocalic_R;
unicode = 0CE1;
script = kannada;
category = Letter;
subCategory = Other;
userData = {
com.typemytype.robofont.layerData = {
background = {
anchors = (
);
components = (
);
contours = (
{
points = (
{
smooth = 0;
x = 80;
y = 1022;
},
{
smooth = 0;
x = 214;
y = 1154;
},
{
segmentType = curve;
smooth = 1;
x = 380;
y = 1154;
},
{
smooth = 0;
x = 554;
y = 1154;
},
{
smooth = 0;
x = 653;
y = 1046;
},
{
segmentType = curve;
smooth = 0;
x = 678;
y = 894;
},
{
segmentType = line;
smooth = 0;
x = 647;
y = 894;
},
{
smooth = 0;
x = 657;
y = 1066;
},
{
smooth = 0;
x = 775;
y = 1154;
},
{
segmentType = curve;
smooth = 1;
x = 944;
y = 1154;
},
{
smooth = 0;
x = 1138;
y = 1154;
},
{
smooth = 0;
x = 1238;
y = 1029;
},
{
segmentType = curve;
smooth = 1;
x = 1238;
y = 877;
},
{
smooth = 0;
x = 1238;
y = 719;
},
{
smooth = 0;
x = 1156;
y = 624;
},
{
segmentType = curve;
smooth = 1;
x = 974;
y = 520;
},
{
smooth = 0;
x = 798;
y = 420;
},
{
smooth = 0;
x = 763;
y = 379;
},
{
segmentType = curve;
smooth = 1;
x = 763;
y = 324;
},
{
smooth = 0;
x = 763;
y = 267;
},
{
smooth = 0;
x = 850;
y = 186;
},
{
segmentType = curve;
smooth = 1;
x = 1087;
y = 186;
},
{
smooth = 0;
x = 1326;
y = 186;
},
{
smooth = 0;
x = 1414;
y = 273;
},
{
segmentType = curve;
smooth = 1;
x = 1414;
y = 389;
},
{
smooth = 0;
x = 1414;
y = 502;
},
{
smooth = 0;
x = 1375;
y = 635;
},
{
segmentType = curve;
smooth = 1;
x = 1375;
y = 753;
},
{
smooth = 0;
x = 1375;
y = 1015;
},
{
smooth = 0;
x = 1563;
y = 1154;
},
{
segmentType = curve;
smooth = 1;
x = 1789;
y = 1154;
},
{
smooth = 0;
x = 2117;
y = 1154;
},
{
smooth = 0;
x = 2377;
y = 895;
},
{
segmentType = curve;
smooth = 1;
x = 2377;
y = 513;
},
{
smooth = 0;
x = 2377;
y = 202;
},
{
smooth = 0;
x = 2250;
y = -25;
},
{
segmentType = curve;
smooth = 1;
x = 1986;
y = -25;
},
{
smooth = 0;
x = 1795;
y = -25;
},
{
smooth = 0;
x = 1677;
y = 114;
},
{
segmentType = curve;
smooth = 1;
x = 1677;
y = 311;
},
{
smooth = 0;
x = 1677;
y = 479;
},
{
smooth = 0;
x = 1786;
y = 580;
},
{
segmentType = curve;
smooth = 1;
x = 1907;
y = 580;
},
{
smooth = 0;
x = 2008;
y = 580;
},
{
smooth = 0;
x = 2061;
y = 521;
},
{
segmentType = curve;
smooth = 1;
x = 2061;
y = 438;
},
{
smooth = 0;
x = 2061;
y = 372;
},
{
smooth = 0;
x = 2022;
y = 318;
},
{
segmentType = curve;
smooth = 1;
x = 1940;
y = 318;
},
{
smooth = 0;
x = 1875;
y = 318;
},
{
smooth = 0;
x = 1827;
y = 351;
},
{
segmentType = curve;
smooth = 1;
x = 1827;
y = 430;
},
{
segmentType = line;
smooth = 0;
x = 1827;
y = 454;
},
{
segmentType = line;
smooth = 0;
x = 1857;
y = 460;
},
{
smooth = 0;
x = 1800;
y = 428;
},
{
smooth = 0;
x = 1772;
y = 390;
},
{
segmentType = curve;
smooth = 1;
x = 1772;
y = 333;
},
{
smooth = 0;
x = 1772;
y = 232;
},
{
smooth = 0;
x = 1841;
y = 169;
},
{
segmentType = curve;
smooth = 1;
x = 1986;
y = 169;
},
{
smooth = 0;
x = 2166;
y = 169;
},
{
smooth = 0;
x = 2277;
y = 292;
},
{
segmentType = curve;
smooth = 1;
x = 2277;
y = 511;
},
{
smooth = 0;
x = 2277;
y = 812;
},
{
smooth = 0;
x = 2035;
y = 955;
},
{
segmentType = curve;
smooth = 1;
x = 1801;
y = 955;
},
{
smooth = 0;
x = 1613;
y = 955;
},
{
smooth = 0;
x = 1469;
y = 878;
},
{
segmentType = curve;
smooth = 1;
x = 1469;
y = 703;
},
{
smooth = 0;
x = 1469;
y = 570;
},
{
smooth = 0;
x = 1516;
y = 426;
},
{
segmentType = curve;
smooth = 1;
x = 1516;
y = 309;
},
{
smooth = 0;
x = 1516;
y = 141;
},
{
smooth = 0;
x = 1405;
y = -25;
},
{
segmentType = curve;
smooth = 1;
x = 1087;
y = -25;
},
{
smooth = 0;
x = 781;
y = -25;
},
{
smooth = 0;
x = 635;
y = 133;
},
{
segmentType = curve;
smooth = 1;
x = 635;
y = 264;
},
{
smooth = 0;
x = 635;
y = 370;
},
{
smooth = 0;
x = 677;
y = 442;
},
{
segmentType = curve;
smooth = 1;
x = 861;
y = 556;
},
{
smooth = 0;
x = 1089;
y = 697;
},
{
smooth = 0;
x = 1126;
y = 747;
},
{
segmentType = curve;
smooth = 1;
x = 1126;
y = 823;
},
{
smooth = 0;
x = 1126;
y = 904;
},
{
smooth = 0;
x = 1067;
y = 955;
},
{
segmentType = curve;
smooth = 1;
x = 923;
y = 955;
},
{
smooth = 0;
x = 772;
y = 955;
},
{
smooth = 0;
x = 713;
y = 894;
},
{
segmentType = curve;
smooth = 0;
x = 713;
y = 794;
},
{
segmentType = line;
smooth = 0;
x = 604;
y = 794;
},
{
smooth = 0;
x = 604;
y = 894;
},
{
smooth = 0;
x = 532;
y = 955;
},
{
segmentType = curve;
smooth = 1;
x = 396;
y = 955;
},
{
smooth = 0;
x = 275;
y = 955;
},
{
smooth = 0;
x = 190;
y = 890;
},
{
segmentType = curve;
smooth = 1;
x = 190;
y = 805;
},
{
smooth = 0;
x = 190;
y = 766;
},
{
smooth = 0;
x = 202;
y = 733;
},
{
segmentType = curve;
smooth = 0;
x = 223;
y = 699;
},
{
segmentType = line;
smooth = 0;
x = 159;
y = 659;
},
{
smooth = 0;
x = 109;
y = 714;
},
{
smooth = 0;
x = 80;
y = 776;
},
{
segmentType = curve;
smooth = 1;
x = 80;
y = 861;
}
);
}
);
lib = {
};
name = knvLL;
unicodes = (
);
width = 2484;
};
};
};
},
{
glyphname = e_kannada;
layers = (
{
anchors = (
{
name = top;
position = "{375, 503}";
}
);
layerId = "59995968-E459-46B5-A8B1-181090AA0B10";
paths = (
{
closed = 1;
nodes = (
"392 145 CURVE",
"386 145 LINE",
"398 65 OFFCURVE",
"448 -7 OFFCURVE",
"547 -7 CURVE SMOOTH",
"659 -7 OFFCURVE",
"695 81 OFFCURVE",
"695 178 CURVE SMOOTH",
"695 377 OFFCURVE",
"538 510 OFFCURVE",
"319 510 CURVE SMOOTH",
"249 510 OFFCURVE",
"210 497 OFFCURVE",
"210 478 CURVE SMOOTH",
"210 475 OFFCURVE",
"211 471 OFFCURVE",
"213 468 CURVE",
"250 479 OFFCURVE",
"287 483 OFFCURVE",
"324 483 CURVE SMOOTH",
"530 483 OFFCURVE",
"673 371 OFFCURVE",
"673 176 CURVE SMOOTH",
"673 95 OFFCURVE",
"646 18 OFFCURVE",
"548 18 CURVE SMOOTH",
"438 18 OFFCURVE",
"406 113 OFFCURVE",
"401 195 CURVE",
"377 195 LINE",
"373 122 OFFCURVE",
"345 18 OFFCURVE",
"228 18 CURVE SMOOTH",
"130 18 OFFCURVE",
"92 84 OFFCURVE",
"92 157 CURVE SMOOTH",
"92 240 OFFCURVE",
"141 291 OFFCURVE",
"198 291 CURVE SMOOTH",
"241 291 OFFCURVE",
"268 267 OFFCURVE",
"268 229 CURVE SMOOTH",
"268 198 OFFCURVE",
"247 172 OFFCURVE",
"205 167 CURVE",
"208 146 LINE",
"258 149 OFFCURVE",
"290 182 OFFCURVE",
"290 230 CURVE SMOOTH",
"290 280 OFFCURVE",
"253 315 OFFCURVE",
"200 315 CURVE SMOOTH",
"123 315 OFFCURVE",
"70 251 OFFCURVE",
"70 155 CURVE SMOOTH",
"70 73 OFFCURVE",
"120 -7 OFFCURVE",
"229 -7 CURVE SMOOTH",
"324 -7 OFFCURVE",
"381 65 OFFCURVE"
);
}
);
width = 751;
},
{
anchors = (
{
name = top;
position = "{376, 566}";
}
);
layerId = "389B3055-E02B-410E-AE74-C99A384F2C74";
paths = (
{
closed = 1;
nodes = (
"392 152 CURVE",
"386 153 LINE",
"402 52 OFFCURVE",
"453 -12 OFFCURVE",
"549 -12 CURVE SMOOTH",
"656 -12 OFFCURVE",
"706 77 OFFCURVE",
"706 198 CURVE SMOOTH",
"706 367 OFFCURVE",
"526 563 OFFCURVE",
"329 563 CURVE SMOOTH",
"254 563 OFFCURVE",
"212 526 OFFCURVE",
"212 469 CURVE SMOOTH",
"212 447 OFFCURVE",
"218 428 OFFCURVE",
"227 409 CURVE",
"270 418 OFFCURVE",
"310 423 OFFCURVE",
"352 423 CURVE SMOOTH",
"529 423 OFFCURVE",
"600 357 OFFCURVE",
"600 250 CURVE SMOOTH",
"600 200 OFFCURVE",
"573 167 OFFCURVE",
"521 167 CURVE SMOOTH",
"464 167 OFFCURVE",
"433 197 OFFCURVE",
"415 240 CURVE",
"362 240 LINE",
"340 194 OFFCURVE",
"303 163 OFFCURVE",
"215 163 CURVE SMOOTH",
"152 163 OFFCURVE",
"121 183 OFFCURVE",
"121 221 CURVE SMOOTH",
"121 251 OFFCURVE",
"143 268 OFFCURVE",
"169 268 CURVE SMOOTH",
"189 268 OFFCURVE",
"200 260 OFFCURVE",
"200 247 CURVE SMOOTH",
"200 235 OFFCURVE",
"192 228 OFFCURVE",
"175 225 CURVE",
"190 180 LINE",
"265 191 OFFCURVE",
"305 222 OFFCURVE",
"305 278 CURVE SMOOTH",
"305 336 OFFCURVE",
"263 373 OFFCURVE",
"195 373 CURVE SMOOTH",
"96 373 OFFCURVE",
"42 291 OFFCURVE",
"42 187 CURVE SMOOTH",
"42 75 OFFCURVE",
"103 -12 OFFCURVE",
"219 -12 CURVE SMOOTH",
"320 -12 OFFCURVE",
"373 52 OFFCURVE"
);
}
);
width = 752;
},
{
anchors = (
{
name = top;
position = "{381, 547}";
}
);
layerId = "56938CB9-64C5-480A-8326-19BB97D61A51";
paths = (
{
closed = 1;
nodes = (
"376 139 CURVE",
"368 139 LINE",
"387 46 OFFCURVE",
"453 -12 OFFCURVE",
"542 -12 CURVE SMOOTH",
"640 -12 OFFCURVE",
"710 63 OFFCURVE",
"710 179 CURVE SMOOTH",
"710 353 OFFCURVE",
"548 560 OFFCURVE",
"288 560 CURVE SMOOTH",
"220 560 OFFCURVE",
"183 539 OFFCURVE",
"183 493 CURVE SMOOTH",
"183 485 OFFCURVE",
"185 470 OFFCURVE",
"194 454 CURVE",
"239 462 OFFCURVE",
"281 466 OFFCURVE",
"321 466 CURVE SMOOTH",
"509 466 OFFCURVE",
"639 378 OFFCURVE",
"639 209 CURVE SMOOTH",
"639 133 OFFCURVE",
"599 83 OFFCURVE",
"528 83 CURVE SMOOTH",
"455 83 OFFCURVE",
"405 125 OFFCURVE",
"390 200 CURVE",
"356 200 LINE",
"335 123 OFFCURVE",
"290 83 OFFCURVE",
"217 83 CURVE SMOOTH",
"137 83 OFFCURVE",
"93 116 OFFCURVE",
"93 181 CURVE SMOOTH",
"93 229 OFFCURVE",
"121 260 OFFCURVE",
"166 260 CURVE SMOOTH",
"198 260 OFFCURVE",
"214 243 OFFCURVE",
"214 219 CURVE SMOOTH",
"214 195 OFFCURVE",
"200 183 OFFCURVE",
"178 178 CURVE",
"185 141 LINE",
"241 149 OFFCURVE",
"275 178 OFFCURVE",
"275 229 CURVE SMOOTH",
"275 281 OFFCURVE",
"240 319 OFFCURVE",
"177 319 CURVE SMOOTH",
"97 319 OFFCURVE",
"48 253 OFFCURVE",
"48 167 CURVE SMOOTH",
"48 73 OFFCURVE",
"102 -12 OFFCURVE",
"206 -12 CURVE SMOOTH",
"303 -12 OFFCURVE",
"351 49 OFFCURVE"
);
}
);
width = 762;
},
{
anchors = (
{
name = top;
position = "{379, 561}";
}
);
layerId = "A6FB1343-85A8-49E5-AB18-F683E718EB6E";
paths = (
{
closed = 1;
nodes = (
"385 147 CURVE",
"378 147 LINE",
"396 49 OFFCURVE",
"454 -12 OFFCURVE",
"546 -12 CURVE SMOOTH",
"649 -12 OFFCURVE",
"708 70 OFFCURVE",
"708 190 CURVE SMOOTH",
"708 360 OFFCURVE",
"536 564 OFFCURVE",
"311 564 CURVE SMOOTH",
"240 564 OFFCURVE",
"200 533 OFFCURVE",
"200 479 CURVE SMOOTH",
"200 462 OFFCURVE",
"204 445 OFFCURVE",
"213 426 CURVE",
"257 435 OFFCURVE",
"298 439 OFFCURVE",
"340 439 CURVE SMOOTH",
"521 439 OFFCURVE",
"615 366 OFFCURVE",
"615 236 CURVE SMOOTH",
"615 175 OFFCURVE",
"582 137 OFFCURVE",
"523 137 CURVE SMOOTH",
"462 137 OFFCURVE",
"422 168 OFFCURVE",
"405 224 CURVE",
"359 224 LINE",
"337 166 OFFCURVE",
"296 134 OFFCURVE",
"216 134 CURVE SMOOTH",
"147 134 OFFCURVE",
"110 157 OFFCURVE",
"110 206 CURVE SMOOTH",
"110 242 OFFCURVE",
"134 263 OFFCURVE",
"167 263 CURVE SMOOTH",
"191 263 OFFCURVE",
"204 252 OFFCURVE",
"204 235 CURVE SMOOTH",
"204 219 OFFCURVE",
"194 210 OFFCURVE",
"175 207 CURVE",
"187 165 LINE",
"255 174 OFFCURVE",
"293 204 OFFCURVE",
"293 258 CURVE SMOOTH",
"293 314 OFFCURVE",
"253 352 OFFCURVE",
"187 352 CURVE SMOOTH",
"96 352 OFFCURVE",
"44 276 OFFCURVE",
"44 180 CURVE SMOOTH",
"44 74 OFFCURVE",
"102 -12 OFFCURVE",
"213 -12 CURVE SMOOTH",
"313 -12 OFFCURVE",
"363 50 OFFCURVE"
);
}
);
width = 758;
}
);
leftKerningGroup = KND_e_L;
rightKerningGroup = KND_e_R;
unicode = 0C8E;
script = kannada;
category = Letter;
subCategory = Other;
userData = {
com.typemytype.robofont.layerData = {
background = {
anchors = (
);
components = (
);
contours = (
{
points = (
{
smooth = 0;
x = 95;
y = 519;
},
{
smooth = 0;
x = 194;
y = 655;
},
{
segmentType = curve;
smooth = 1;
x = 360;
y = 655;
},
{
smooth = 0;
x = 491;
y = 655;
},
{
smooth = 0;
x = 563;
y = 576;
},
{
segmentType = curve;
smooth = 1;
x = 563;
y = 469;
},
{
smooth = 0;
x = 563;
y = 363;
},
{
smooth = 0;
x = 491;
y = 306;
},
{
segmentType = curve;
smooth = 0;
x = 375;
y = 288;
},
{
segmentType = line;
smooth = 0;
x = 360;
y = 367;
},
{
smooth = 0;
x = 402;
y = 376;
},
{
smooth = 0;
x = 428;
y = 398;
},
{
segmentType = curve;
smooth = 1;
x = 428;
y = 446;
},
{
smooth = 0;
x = 428;
y = 491;
},
{
smooth = 0;
x = 398;
y = 525;
},
{
segmentType = curve;
smooth = 1;
x = 334;
y = 525;
},
{
smooth = 0;
x = 246;
y = 525;
},
{
smooth = 0;
x = 192;
y = 465;
},
{
segmentType = curve;
smooth = 1;
x = 192;
y = 377;
},
{
smooth = 0;
x = 192;
y = 244;
},
{
smooth = 0;
x = 284;
y = 186;
},
{
segmentType = curve;
smooth = 1;
x = 443;
y = 186;
},
{
smooth = 0;
x = 583;
y = 186;
},
{
smooth = 0;
x = 679;
y = 252;
},
{
segmentType = curve;
smooth = 0;
x = 726;
y = 410;
},
{
segmentType = line;
smooth = 0;
x = 797;
y = 410;
},
{
smooth = 0;
x = 831;
y = 259;
},
{
smooth = 0;
x = 948;
y = 186;
},
{
segmentType = curve;
smooth = 1;
x = 1088;
y = 186;
},
{
smooth = 0;
x = 1228;
y = 186;
},
{
smooth = 0;
x = 1313;
y = 291;
},
{
segmentType = curve;
smooth = 1;
x = 1313;
y = 477;
},
{
smooth = 0;
x = 1313;
y = 724;
},
{
smooth = 0;
x = 1153;
y = 996;
},
{
segmentType = curve;
smooth = 0;
x = 476;
y = 1056;
},
{
segmentType = line;
smooth = 0;
x = 523;
y = 1154;
},
{
smooth = 0;
x = 1206;
y = 1100;
},
{
smooth = 0;
x = 1466;
y = 778;
},
{
segmentType = curve;
smooth = 1;
x = 1466;
y = 433;
},
{
smooth = 0;
x = 1466;
y = 161;
},
{
smooth = 0;
x = 1336;
y = -25;
},
{
segmentType = curve;
smooth = 1;
x = 1120;
y = -25;
},
{
smooth = 0;
x = 951;
y = -25;
},
{
smooth = 0;
x = 809;
y = 77;
},
{
segmentType = curve;
smooth = 0;
x = 759;
y = 251;
},
{
smooth = 0;
x = 702;
y = 83;
},
{
smooth = 0;
x = 606;
y = -25;
},
{
segmentType = curve;
smooth = 1;
x = 419;
y = -25;
},
{
smooth = 0;
x = 206;
y = -25;
},
{
smooth = 0;
x = 95;
y = 149;
},
{
segmentType = curve;
smooth = 1;
x = 95;
y = 346;
}
);
}
);
lib = {
};
name = knE;
unicodes = (
);
width = 1564;
};
};
};
},
{
glyphname = ee_kannada;
layers = (
{
anchors = (
{
name = top;
position = "{366, 503}";
}
);
layerId = "59995968-E459-46B5-A8B1-181090AA0B10";
paths = (
{
closed = 1;
nodes = (
"372 145 CURVE",
"366 145 LINE",
"378 63 OFFCURVE",
"428 -12 OFFCURVE",
"527 -12 CURVE SMOOTH",
"638 -12 OFFCURVE",
"675 76 OFFCURVE",
"675 173 CURVE SMOOTH",
"675 331 OFFCURVE",
"562 471 OFFCURVE",
"405 510 CURVE",
"388 439 OFFCURVE",
"361 402 OFFCURVE",
"296 402 CURVE SMOOTH",
"232 402 OFFCURVE",
"200 447 OFFCURVE",
"182 510 CURVE",
"161 503 LINE",
"180 430 OFFCURVE",
"227 378 OFFCURVE",
"298 378 CURVE SMOOTH",
"372 378 OFFCURVE",
"409 429 OFFCURVE",
"423 497 CURVE",
"412 489 LINE",
"551 446 OFFCURVE",
"653 323 OFFCURVE",
"653 171 CURVE SMOOTH",
"653 90 OFFCURVE",
"626 12 OFFCURVE",
"528 12 CURVE SMOOTH",
"418 12 OFFCURVE",
"386 112 OFFCURVE",
"381 195 CURVE",
"357 195 LINE",
"353 119 OFFCURVE",
"325 12 OFFCURVE",
"208 12 CURVE SMOOTH",
"110 12 OFFCURVE",
"72 82 OFFCURVE",
"72 157 CURVE SMOOTH",
"72 240 OFFCURVE",
"121 291 OFFCURVE",
"178 291 CURVE SMOOTH",
"221 291 OFFCURVE",
"248 267 OFFCURVE",
"248 229 CURVE SMOOTH",
"248 198 OFFCURVE",
"227 172 OFFCURVE",
"185 167 CURVE",
"188 146 LINE",
"238 149 OFFCURVE",
"270 182 OFFCURVE",
"270 230 CURVE SMOOTH",
"270 280 OFFCURVE",
"233 315 OFFCURVE",
"180 315 CURVE SMOOTH",
"103 315 OFFCURVE",
"50 251 OFFCURVE",
"50 155 CURVE SMOOTH",
"50 70 OFFCURVE",
"100 -12 OFFCURVE",
"209 -12 CURVE SMOOTH",
"304 -12 OFFCURVE",
"361 63 OFFCURVE"
);
}
);
width = 733;
},
{
anchors = (
{
name = top;
position = "{376, 566}";
}
);
layerId = "389B3055-E02B-410E-AE74-C99A384F2C74";
paths = (
{
closed = 1;
nodes = (
"392 152 CURVE",
"386 153 LINE",
"402 52 OFFCURVE",
"453 -12 OFFCURVE",
"549 -12 CURVE SMOOTH",
"656 -12 OFFCURVE",
"706 72 OFFCURVE",
"706 195 CURVE SMOOTH",
"706 378 OFFCURVE",
"610 509 OFFCURVE",
"406 563 CURVE",
"390 527 OFFCURVE",
"362 508 OFFCURVE",
"304 508 CURVE SMOOTH",
"246 508 OFFCURVE",
"219 526 OFFCURVE",
"204 563 CURVE",
"160 548 LINE",
"175 437 OFFCURVE",
"230 386 OFFCURVE",
"307 386 CURVE SMOOTH",
"381 386 OFFCURVE",
"423 432 OFFCURVE",
"437 515 CURVE",
"400 494 LINE",
"526 459 OFFCURVE",
"600 372 OFFCURVE",
"600 272 CURVE SMOOTH",
"600 209 OFFCURVE",
"573 167 OFFCURVE",
"517 167 CURVE SMOOTH",
"462 167 OFFCURVE",
"433 197 OFFCURVE",
"415 240 CURVE",
"362 240 LINE",
"340 194 OFFCURVE",
"303 163 OFFCURVE",
"215 163 CURVE SMOOTH",
"152 163 OFFCURVE",
"121 183 OFFCURVE",
"121 221 CURVE SMOOTH",
"121 251 OFFCURVE",
"143 268 OFFCURVE",
"169 268 CURVE SMOOTH",
"189 268 OFFCURVE",
"200 260 OFFCURVE",
"200 247 CURVE SMOOTH",
"200 235 OFFCURVE",
"192 228 OFFCURVE",
"175 225 CURVE",
"190 180 LINE",
"265 191 OFFCURVE",
"305 222 OFFCURVE",
"305 278 CURVE SMOOTH",
"305 336 OFFCURVE",
"263 373 OFFCURVE",
"195 373 CURVE SMOOTH",
"96 373 OFFCURVE",
"42 291 OFFCURVE",
"42 187 CURVE SMOOTH",
"42 75 OFFCURVE",
"103 -12 OFFCURVE",
"219 -12 CURVE SMOOTH",
"320 -12 OFFCURVE",
"373 52 OFFCURVE"
);
}
);
width = 752;
},
{
anchors = (
{
name = top;
position = "{382, 547}";
}
);
layerId = "56938CB9-64C5-480A-8326-19BB97D61A51";
paths = (
{
closed = 1;
nodes = (
"376 139 CURVE",
"368 139 LINE",
"387 46 OFFCURVE",
"458 -12 OFFCURVE",
"546 -12 CURVE SMOOTH",
"654 -12 OFFCURVE",
"713 83 OFFCURVE",
"713 216 CURVE SMOOTH",
"713 370 OFFCURVE",
"616 510 OFFCURVE",
"399 557 CURVE",
"386 490 OFFCURVE",
"355 462 OFFCURVE",
"296 462 CURVE SMOOTH",
"237 462 OFFCURVE",
"209 494 OFFCURVE",
"195 556 CURVE",
"153 540 LINE",
"168 426 OFFCURVE",
"223 372 OFFCURVE",
"298 372 CURVE SMOOTH",
"367 372 OFFCURVE",
"414 430 OFFCURVE",
"428 513 CURVE",
"407 501 LINE",
"575 458 OFFCURVE",
"644 345 OFFCURVE",
"644 220 CURVE SMOOTH",
"644 134 OFFCURVE",
"602 83 OFFCURVE",
"532 83 CURVE SMOOTH",
"459 83 OFFCURVE",
"405 125 OFFCURVE",
"390 200 CURVE",
"356 200 LINE",
"335 123 OFFCURVE",
"290 83 OFFCURVE",
"217 83 CURVE SMOOTH",
"137 83 OFFCURVE",
"93 115 OFFCURVE",
"93 181 CURVE SMOOTH",
"93 229 OFFCURVE",
"121 260 OFFCURVE",
"166 260 CURVE SMOOTH",
"198 260 OFFCURVE",
"214 243 OFFCURVE",
"214 219 CURVE SMOOTH",
"214 195 OFFCURVE",
"200 183 OFFCURVE",
"178 178 CURVE",
"185 141 LINE",
"241 149 OFFCURVE",
"275 178 OFFCURVE",
"275 229 CURVE SMOOTH",
"275 281 OFFCURVE",
"240 319 OFFCURVE",
"177 319 CURVE SMOOTH",
"97 319 OFFCURVE",
"48 253 OFFCURVE",
"48 167 CURVE SMOOTH",
"48 73 OFFCURVE",
"102 -12 OFFCURVE",
"206 -12 CURVE SMOOTH",
"303 -12 OFFCURVE",
"351 49 OFFCURVE"
);
}
);
width = 765;
},
{
anchors = (
{
name = top;
position = "{379, 561}";
}
);
layerId = "A6FB1343-85A8-49E5-AB18-F683E718EB6E";
paths = (
{
closed = 1;
nodes = (
"385 147 CURVE",
"378 147 LINE",
"396 49 OFFCURVE",
"456 -12 OFFCURVE",
"548 -12 CURVE SMOOTH",
"655 -12 OFFCURVE",
"709 76 OFFCURVE",
"709 206 CURVE SMOOTH",
"709 376 OFFCURVE",
"614 511 OFFCURVE",
"403 563 CURVE",
"388 515 OFFCURVE",
"359 492 OFFCURVE",
"300 492 CURVE SMOOTH",
"242 492 OFFCURVE",
"215 515 OFFCURVE",
"200 563 CURVE",
"156 546 LINE",
"171 433 OFFCURVE",
"227 380 OFFCURVE",
"303 380 CURVE SMOOTH",
"375 380 OFFCURVE",
"419 431 OFFCURVE",
"433 515 CURVE",
"402 498 LINE",
"546 459 OFFCURVE",
"617 362 OFFCURVE",
"617 253 CURVE SMOOTH",
"617 181 OFFCURVE",
"583 137 OFFCURVE",
"522 137 CURVE SMOOTH",
"462 137 OFFCURVE",
"422 168 OFFCURVE",
"405 224 CURVE",
"359 224 LINE",
"337 166 OFFCURVE",
"296 134 OFFCURVE",
"216 134 CURVE SMOOTH",
"147 134 OFFCURVE",
"110 157 OFFCURVE",
"110 206 CURVE SMOOTH",
"110 242 OFFCURVE",
"134 263 OFFCURVE",
"167 263 CURVE SMOOTH",
"191 263 OFFCURVE",
"204 252 OFFCURVE",
"204 235 CURVE SMOOTH",
"204 219 OFFCURVE",
"194 210 OFFCURVE",
"175 207 CURVE",
"187 165 LINE",
"255 174 OFFCURVE",
"293 204 OFFCURVE",
"293 258 CURVE SMOOTH",
"293 314 OFFCURVE",
"253 352 OFFCURVE",
"187 352 CURVE SMOOTH",
"96 352 OFFCURVE",
"44 276 OFFCURVE",
"44 180 CURVE SMOOTH",
"44 74 OFFCURVE",
"102 -12 OFFCURVE",
"213 -12 CURVE SMOOTH",
"313 -12 OFFCURVE",
"363 50 OFFCURVE"
);
}
);
width = 759;
}
);
leftKerningGroup = KND_e_L;
rightKerningGroup = KND_ee_R;
unicode = 0C8F;
script = kannada;
category = Letter;
subCategory = Other;
},
{
glyphname = ai_kannada;
layers = (
{
anchors = (
{
name = top;
position = "{370, 503}";
}
);
layerId = "59995968-E459-46B5-A8B1-181090AA0B10";
paths = (
{
closed = 1;
nodes = (
"380 145 CURVE",
"374 145 LINE",
"385 63 OFFCURVE",
"432 -12 OFFCURVE",
"525 -12 CURVE SMOOTH",
"635 -12 OFFCURVE",
"683 121 OFFCURVE",
"683 249 CURVE SMOOTH",
"683 377 OFFCURVE",
"631 510 OFFCURVE",
"511 510 CURVE SMOOTH",
"427 510 OFFCURVE",
"384 450 OFFCURVE",
"374 382 CURVE",
"380 382 LINE",
"371 450 OFFCURVE",
"311 510 OFFCURVE",
"236 510 CURVE SMOOTH",
"141 510 OFFCURVE",
"97 428 OFFCURVE",
"84 352 CURVE",
"106 345 LINE",
"121 415 OFFCURVE",
"152 486 OFFCURVE",
"235 486 CURVE SMOOTH",
"326 486 OFFCURVE",
"360 403 OFFCURVE",
"365 332 CURVE",
"389 332 LINE",
"393 402 OFFCURVE",
"420 486 OFFCURVE",
"512 486 CURVE SMOOTH",
"619 486 OFFCURVE",
"661 360 OFFCURVE",
"661 249 CURVE SMOOTH",
"661 138 OFFCURVE",
"623 12 OFFCURVE",
"526 12 CURVE SMOOTH",
"424 12 OFFCURVE",
"394 112 OFFCURVE",
"389 195 CURVE",
"365 195 LINE",
"361 119 OFFCURVE",
"333 12 OFFCURVE",
"216 12 CURVE SMOOTH",
"118 12 OFFCURVE",
"80 82 OFFCURVE",
"80 157 CURVE SMOOTH",
"80 240 OFFCURVE",
"129 291 OFFCURVE",
"186 291 CURVE SMOOTH",
"229 291 OFFCURVE",
"255 267 OFFCURVE",
"255 229 CURVE SMOOTH",
"255 198 OFFCURVE",
"234 172 OFFCURVE",
"192 167 CURVE",
"196 146 LINE",
"246 149 OFFCURVE",
"278 182 OFFCURVE",
"278 230 CURVE SMOOTH",
"278 280 OFFCURVE",
"241 315 OFFCURVE",
"188 315 CURVE SMOOTH",
"111 315 OFFCURVE",
"58 251 OFFCURVE",
"58 155 CURVE SMOOTH",
"58 70 OFFCURVE",
"107 -12 OFFCURVE",
"217 -12 CURVE SMOOTH",
"312 -12 OFFCURVE",
"369 63 OFFCURVE"
);
}
);
width = 741;
},
{
anchors = (
{
name = top;
position = "{379, 566}";
}
);
layerId = "389B3055-E02B-410E-AE74-C99A384F2C74";
paths = (
{
closed = 1;
nodes = (
"398 152 CURVE",
"392 153 LINE",
"408 52 OFFCURVE",
"459 -12 OFFCURVE",
"555 -12 CURVE SMOOTH",
"669 -12 OFFCURVE",
"711 129 OFFCURVE",
"711 273 CURVE SMOOTH",
"711 418 OFFCURVE",
"648 559 OFFCURVE",
"536 559 CURVE SMOOTH",
"451 559 OFFCURVE",
"406 495 OFFCURVE",
"392 394 CURVE",
"398 395 LINE",
"380 495 OFFCURVE",
"333 559 OFFCURVE",
"237 559 CURVE SMOOTH",
"144 559 OFFCURVE",
"92 483 OFFCURVE",
"75 385 CURVE",
"126 367 LINE",
"152 394 OFFCURVE",
"188 410 OFFCURVE",
"235 410 CURVE SMOOTH",
"312 410 OFFCURVE",
"348 368 OFFCURVE",
"368 307 CURVE",
"421 307 LINE",
"438 350 OFFCURVE",
"472 379 OFFCURVE",
"531 379 CURVE SMOOTH",
"595 379 OFFCURVE",
"643 337 OFFCURVE",
"643 273 CURVE SMOOTH",
"643 209 OFFCURVE",
"595 167 OFFCURVE",
"531 167 CURVE SMOOTH",
"472 167 OFFCURVE",
"438 197 OFFCURVE",
"421 240 CURVE",
"368 240 LINE",
"345 173 OFFCURVE",
"299 128 OFFCURVE",
"213 128 CURVE SMOOTH",
"163 128 OFFCURVE",
"127 148 OFFCURVE",
"127 188 CURVE SMOOTH",
"127 220 OFFCURVE",
"149 237 OFFCURVE",
"175 237 CURVE SMOOTH",
"195 237 OFFCURVE",
"206 229 OFFCURVE",
"206 216 CURVE SMOOTH",
"206 205 OFFCURVE",
"198 197 OFFCURVE",
"181 194 CURVE",
"196 149 LINE",
"271 160 OFFCURVE",
"311 191 OFFCURVE",
"311 247 CURVE SMOOTH",
"311 306 OFFCURVE",
"270 342 OFFCURVE",
"203 342 CURVE SMOOTH",
"103 342 OFFCURVE",
"48 264 OFFCURVE",
"48 167 CURVE SMOOTH",
"48 66 OFFCURVE",
"108 -12 OFFCURVE",
"225 -12 CURVE SMOOTH",
"326 -12 OFFCURVE",
"379 52 OFFCURVE"
);
}
);
width = 759;
},
{
anchors = (
{
name = top;
position = "{375, 547}";
}
);
layerId = "56938CB9-64C5-480A-8326-19BB97D61A51";
paths = (
{
closed = 1;
nodes = (
"381 141 CURVE",
"372 142 LINE",
"394 47 OFFCURVE",
"440 -11 OFFCURVE",
"529 -11 CURVE SMOOTH",
"642 -11 OFFCURVE",
"697 121 OFFCURVE",
"697 264 CURVE SMOOTH",
"697 414 OFFCURVE",
"636 557 OFFCURVE",
"512 557 CURVE SMOOTH",
"432 557 OFFCURVE",
"385 500 OFFCURVE",
"370 425 CURVE",
"384 425 LINE",
"363 500 OFFCURVE",
"311 557 OFFCURVE",
"235 557 CURVE SMOOTH",
"147 557 OFFCURVE",
"94 478 OFFCURVE",
"80 388 CURVE",
"116 375 LINE",
"131 435 OFFCURVE",
"179 467 OFFCURVE",
"240 467 CURVE SMOOTH",
"302 467 OFFCURVE",
"347 424 OFFCURVE",
"365 361 CURVE",
"392 361 LINE",
"408 426 OFFCURVE",
"443 467 OFFCURVE",
"514 467 CURVE SMOOTH",
"589 467 OFFCURVE",
"644 394 OFFCURVE",
"644 266 CURVE SMOOTH",
"644 145 OFFCURVE",
"594 84 OFFCURVE",
"520 84 CURVE SMOOTH",
"445 84 OFFCURVE",
"416 131 OFFCURVE",
"396 201 CURVE",
"362 201 LINE",
"339 124 OFFCURVE",
"292 84 OFFCURVE",
"214 84 CURVE SMOOTH",
"141 84 OFFCURVE",
"99 119 OFFCURVE",
"99 179 CURVE SMOOTH",
"99 228 OFFCURVE",
"127 261 OFFCURVE",
"171 261 CURVE SMOOTH",
"204 261 OFFCURVE",
"220 244 OFFCURVE",
"220 220 CURVE SMOOTH",
"220 196 OFFCURVE",
"206 184 OFFCURVE",
"184 179 CURVE",
"190 143 LINE",
"247 151 OFFCURVE",
"281 179 OFFCURVE",
"281 230 CURVE SMOOTH",
"281 282 OFFCURVE",
"246 321 OFFCURVE",
"183 321 CURVE SMOOTH",
"103 321 OFFCURVE",
"54 254 OFFCURVE",
"54 169 CURVE SMOOTH",
"54 74 OFFCURVE",
"107 -11 OFFCURVE",
"212 -11 CURVE SMOOTH",
"309 -11 OFFCURVE",
"355 50 OFFCURVE"
);
}
);
width = 751;
},
{
anchors = (
{
name = top;
position = "{378, 561}";
}
);
layerId = "A6FB1343-85A8-49E5-AB18-F683E718EB6E";
paths = (
{
closed = 1;
nodes = (
"391 147 CURVE",
"384 148 LINE",
"402 50 OFFCURVE",
"452 -12 OFFCURVE",
"545 -12 CURVE SMOOTH",
"659 -12 OFFCURVE",
"706 125 OFFCURVE",
"706 270 CURVE SMOOTH",
"706 418 OFFCURVE",
"644 561 OFFCURVE",
"526 561 CURVE SMOOTH",
"444 561 OFFCURVE",
"397 499 OFFCURVE",
"383 409 CURVE",
"393 409 LINE",
"373 499 OFFCURVE",
"324 561 OFFCURVE",
"236 561 CURVE SMOOTH",
"146 561 OFFCURVE",
"93 483 OFFCURVE",
"77 388 CURVE",
"123 372 LINE",
"144 411 OFFCURVE",
"185 432 OFFCURVE",
"237 432 CURVE SMOOTH",
"307 432 OFFCURVE",
"347 392 OFFCURVE",
"367 330 CURVE",
"410 330 LINE",
"426 381 OFFCURVE",
"461 414 OFFCURVE",
"524 414 CURVE SMOOTH",
"591 414 OFFCURVE",
"643 362 OFFCURVE",
"643 271 CURVE SMOOTH",
"643 184 OFFCURVE",
"593 137 OFFCURVE",
"526 137 CURVE SMOOTH",
"462 137 OFFCURVE",
"430 171 OFFCURVE",
"411 225 CURVE",
"365 225 LINE",
"342 154 OFFCURVE",
"294 114 OFFCURVE",
"213 114 CURVE SMOOTH",
"155 114 OFFCURVE",
"116 138 OFFCURVE",
"116 185 CURVE SMOOTH",
"116 223 OFFCURVE",
"140 246 OFFCURVE",
"173 246 CURVE SMOOTH",
"198 246 OFFCURVE",
"210 234 OFFCURVE",
"210 217 CURVE SMOOTH",
"210 201 OFFCURVE",
"200 192 OFFCURVE",
"182 188 CURVE",
"193 146 LINE",
"261 156 OFFCURVE",
"299 186 OFFCURVE",
"299 240 CURVE SMOOTH",
"299 296 OFFCURVE",
"260 334 OFFCURVE",
"195 334 CURVE SMOOTH",
"103 334 OFFCURVE",
"50 260 OFFCURVE",
"50 168 CURVE SMOOTH",
"50 69 OFFCURVE",
"108 -12 OFFCURVE",
"219 -12 CURVE SMOOTH",
"319 -12 OFFCURVE",
"369 51 OFFCURVE"
);
}
);
width = 756;
}
);
leftKerningGroup = KND_e_L;
rightKerningGroup = KND_ai_R;
unicode = 0C90;
script = kannada;
category = Letter;
subCategory = Other;
},
{
glyphname = o_kannada;
layers = (
{
anchors = (
{
name = top;
position = "{357, 503}";
}
);
layerId = "59995968-E459-46B5-A8B1-181090AA0B10";
paths = (
{
closed = 1;
nodes = (
"659 153 CURVE SMOOTH",
"659 235 OFFCURVE",
"620 326 OFFCURVE",
"589 326 CURVE SMOOTH",
"580 326 OFFCURVE",
"575 321 OFFCURVE",
"570 313 CURVE",
"610 275 OFFCURVE",
"636 229 OFFCURVE",
"636 155 CURVE SMOOTH",
"636 76 OFFCURVE",
"602 15 OFFCURVE",
"524 15 CURVE SMOOTH",
"419 15 OFFCURVE",
"388 112 OFFCURVE",
"383 192 CURVE",
"359 192 LINE",
"355 119 OFFCURVE",
"327 15 OFFCURVE",
"210 15 CURVE SMOOTH",
"146 15 OFFCURVE",
"95 57 OFFCURVE",
"95 120 CURVE SMOOTH",
"95 177 OFFCURVE",
"131 210 OFFCURVE",
"179 254 CURVE SMOOTH",
"244 313 OFFCURVE",
"270 341 OFFCURVE",
"270 398 CURVE SMOOTH",
"270 467 OFFCURVE",
"226 513 OFFCURVE",
"157 513 CURVE SMOOTH",
"83 513 OFFCURVE",
"38 462 OFFCURVE",
"38 402 CURVE SMOOTH",
"38 363 OFFCURVE",
"50 333 OFFCURVE",
"75 305 CURVE",
"91 317 LINE",
"71 342 OFFCURVE",
"61 363 OFFCURVE",
"61 400 CURVE SMOOTH",
"61 449 OFFCURVE",
"97 488 OFFCURVE",
"156 488 CURVE SMOOTH",
"212 488 OFFCURVE",
"248 457 OFFCURVE",
"248 400 CURVE SMOOTH",
"248 346 OFFCURVE",
"222 320 OFFCURVE",
"166 269 CURVE SMOOTH",
"110 218 OFFCURVE",
"72 183 OFFCURVE",
"72 118 CURVE SMOOTH",
"72 44 OFFCURVE",
"128 -10 OFFCURVE",
"209 -10 CURVE SMOOTH",
"310 -10 OFFCURVE",
"363 63 OFFCURVE",
"374 142 CURVE",
"368 142 LINE",
"379 63 OFFCURVE",
"428 -10 OFFCURVE",
"524 -10 CURVE SMOOTH",
"613 -10 OFFCURVE",
"659 62 OFFCURVE"
);
}
);
width = 715;
},
{
anchors = (
{
name = top;
position = "{376, 566}";
}
);
layerId = "389B3055-E02B-410E-AE74-C99A384F2C74";
paths = (
{
closed = 1;
nodes = (
"704 188 CURVE SMOOTH",
"704 300 OFFCURVE",
"681 378 OFFCURVE",
"622 378 CURVE SMOOTH",
"588 378 OFFCURVE",
"566 356 OFFCURVE",
"555 315 CURVE",
"602 305 OFFCURVE",
"631 277 OFFCURVE",
"631 236 CURVE SMOOTH",
"631 194 OFFCURVE",
"598 167 OFFCURVE",
"539 167 CURVE SMOOTH",
"473 167 OFFCURVE",
"437 194 OFFCURVE",
"421 235 CURVE",
"369 235 LINE",
"349 194 OFFCURVE",
"313 167 OFFCURVE",
"260 167 CURVE SMOOTH",
"213 167 OFFCURVE",
"188 187 OFFCURVE",
"188 219 CURVE SMOOTH",
"188 259 OFFCURVE",
"234 293 OFFCURVE",
"271 336 CURVE SMOOTH",
"298 368 OFFCURVE",
"321 403 OFFCURVE",
"321 449 CURVE SMOOTH",
"321 520 OFFCURVE",
"271 579 OFFCURVE",
"174 579 CURVE SMOOTH",
"80 579 OFFCURVE",
"28 520 OFFCURVE",
"28 448 CURVE SMOOTH",
"28 405 OFFCURVE",
"48 371 OFFCURVE",
"72 346 CURVE",
"117 371 LINE",
"113 378 OFFCURVE",
"109 387 OFFCURVE",
"109 398 CURVE SMOOTH",
"109 420 OFFCURVE",
"127 435 OFFCURVE",
"163 435 CURVE SMOOTH",
"200 435 OFFCURVE",
"214 418 OFFCURVE",
"214 396 CURVE SMOOTH",
"214 363 OFFCURVE",
"184 332 OFFCURVE",
"150 295 CURVE SMOOTH",
"108 250 OFFCURVE",
"63 198 OFFCURVE",
"63 126 CURVE SMOOTH",
"63 42 OFFCURVE",
"125 -12 OFFCURVE",
"211 -12 CURVE SMOOTH",
"311 -12 OFFCURVE",
"369 54 OFFCURVE",
"398 147 CURVE",
"392 147 LINE",
"415 57 OFFCURVE",
"466 -12 OFFCURVE",
"560 -12 CURVE SMOOTH",
"664 -12 OFFCURVE",
"704 81 OFFCURVE"
);
}
);
width = 752;
},
{
anchors = (
{
name = top;
position = "{368, 547}";
}
);
layerId = "56938CB9-64C5-480A-8326-19BB97D61A51";
paths = (
{
closed = 1;
nodes = (
"684 176 CURVE SMOOTH",
"684 251 OFFCURVE",
"663 326 OFFCURVE",
"622 326 CURVE SMOOTH",
"604 326 OFFCURVE",
"589 312 OFFCURVE",
"582 291 CURVE",
"619 261 OFFCURVE",
"638 228 OFFCURVE",
"638 185 CURVE SMOOTH",
"638 133 OFFCURVE",
"608 84 OFFCURVE",
"527 84 CURVE SMOOTH",
"446 84 OFFCURVE",
"417 133 OFFCURVE",
"397 201 CURVE",
"364 201 LINE",
"340 125 OFFCURVE",
"293 84 OFFCURVE",
"221 84 CURVE SMOOTH",
"168 84 OFFCURVE",
"136 110 OFFCURVE",
"136 155 CURVE SMOOTH",
"136 195 OFFCURVE",
"167 230 OFFCURVE",
"217 278 CURVE SMOOTH",
"273 332 OFFCURVE",
"300 373 OFFCURVE",
"300 427 CURVE SMOOTH",
"300 500 OFFCURVE",
"260 558 OFFCURVE",
"168 558 CURVE SMOOTH",
"78 558 OFFCURVE",
"34 501 OFFCURVE",
"34 439 CURVE SMOOTH",
"34 393 OFFCURVE",
"52 357 OFFCURVE",
"76 329 CURVE",
"105 348 LINE",
"95 366 OFFCURVE",
"87 382 OFFCURVE",
"87 407 CURVE SMOOTH",
"87 450 OFFCURVE",
"116 475 OFFCURVE",
"164 475 CURVE SMOOTH",
"216 475 OFFCURVE",
"239 442 OFFCURVE",
"239 405 CURVE SMOOTH",
"239 361 OFFCURVE",
"213 334 OFFCURVE",
"162 287 CURVE SMOOTH",
"100 229 OFFCURVE",
"68 184 OFFCURVE",
"68 125 CURVE SMOOTH",
"68 47 OFFCURVE",
"126 -11 OFFCURVE",
"212 -11 CURVE SMOOTH",
"302 -11 OFFCURVE",
"353 42 OFFCURVE",
"384 142 CURVE",
"374 140 LINE",
"396 51 OFFCURVE",
"448 -11 OFFCURVE",
"540 -11 CURVE SMOOTH",
"657 -11 OFFCURVE",
"684 100 OFFCURVE"
);
}
);
width = 736;
},
{
anchors = (
{
name = top;
position = "{373, 561}";
}
);
layerId = "A6FB1343-85A8-49E5-AB18-F683E718EB6E";
paths = (
{
closed = 1;
nodes = (
"697 185 CURVE SMOOTH",
"697 281 OFFCURVE",
"675 357 OFFCURVE",
"623 357 CURVE SMOOTH",
"595 357 OFFCURVE",
"576 338 OFFCURVE",
"566 305 CURVE",
"609 287 OFFCURVE",
"634 257 OFFCURVE",
"634 217 CURVE SMOOTH",
"634 172 OFFCURVE",
"602 137 OFFCURVE",
"534 137 CURVE SMOOTH",
"463 137 OFFCURVE",
"430 170 OFFCURVE",
"412 222 CURVE",
"367 222 LINE",
"345 167 OFFCURVE",
"304 137 OFFCURVE",
"245 137 CURVE SMOOTH",
"196 137 OFFCURVE",
"169 159 OFFCURVE",
"169 195 CURVE SMOOTH",
"169 234 OFFCURVE",
"208 269 OFFCURVE",
"251 314 CURVE SMOOTH",
"289 354 OFFCURVE",
"314 392 OFFCURVE",
"314 442 CURVE SMOOTH",
"314 513 OFFCURVE",
"269 572 OFFCURVE",
"172 572 CURVE SMOOTH",
"79 572 OFFCURVE",
"30 514 OFFCURVE",
"30 446 CURVE SMOOTH",
"30 401 OFFCURVE",
"49 366 OFFCURVE",
"73 340 CURVE",
"113 363 LINE",
"106 374 OFFCURVE",
"101 386 OFFCURVE",
"101 402 CURVE SMOOTH",
"101 432 OFFCURVE",
"124 451 OFFCURVE",
"164 451 CURVE SMOOTH",
"207 451 OFFCURVE",
"224 427 OFFCURVE",
"224 400 CURVE SMOOTH",
"224 363 OFFCURVE",
"195 333 OFFCURVE",
"154 292 CURVE SMOOTH",
"104 243 OFFCURVE",
"64 192 OFFCURVE",
"64 126 CURVE SMOOTH",
"64 44 OFFCURVE",
"125 -12 OFFCURVE",
"211 -12 CURVE SMOOTH",
"307 -12 OFFCURVE",
"362 48 OFFCURVE",
"393 145 CURVE",
"385 145 LINE",
"408 54 OFFCURVE",
"459 -12 OFFCURVE",
"552 -12 CURVE SMOOTH",
"663 -12 OFFCURVE",
"697 90 OFFCURVE"
);
}
);
width = 747;
}
);
leftKerningGroup = KND_o_L;
rightKerningGroup = KND_o_R;
unicode = 0C92;
script = kannada;
category = Letter;
subCategory = Other;
},
{
glyphname = oo_kannada;
layers = (
{
anchors = (
{
name = top;
position = "{357, 503}";
}
);
layerId = "59995968-E459-46B5-A8B1-181090AA0B10";
paths = (
{
closed = 1;
nodes = (
"310 -10 OFFCURVE",
"363 63 OFFCURVE",
"374 143 CURVE",
"368 143 LINE",
"379 63 OFFCURVE",
"428 -10 OFFCURVE",
"524 -10 CURVE SMOOTH",
"613 -10 OFFCURVE",
"659 61 OFFCURVE",
"659 150 CURVE SMOOTH",
"659 233 OFFCURVE",
"620 326 OFFCURVE",
"589 326 CURVE SMOOTH",
"580 326 OFFCURVE",
"575 321 OFFCURVE",
"570 313 CURVE",
"611 274 OFFCURVE",
"637 227 OFFCURVE",
"637 152 CURVE SMOOTH",
"637 73 OFFCURVE",
"602 15 OFFCURVE",
"524 15 CURVE SMOOTH",
"419 15 OFFCURVE",
"388 112 OFFCURVE",
"383 193 CURVE",
"359 193 LINE",
"355 119 OFFCURVE",
"327 15 OFFCURVE",
"210 15 CURVE SMOOTH",
"146 15 OFFCURVE",
"95 56 OFFCURVE",
"95 116 CURVE SMOOTH",
"95 175 OFFCURVE",
"130 210 OFFCURVE",
"179 254 CURVE SMOOTH",
"241 310 OFFCURVE",
"270 342 OFFCURVE",
"270 398 CURVE SMOOTH",
"270 446 OFFCURVE",
"250 475 OFFCURVE",
"212 500 CURVE SMOOTH",
"174 525 OFFCURVE",
"135 555 OFFCURVE",
"135 615 CURVE SMOOTH",
"135 679 OFFCURVE",
"190 719 OFFCURVE",
"264 725 CURVE",
"260 746 LINE",
"171 738 OFFCURVE",
"111 689 OFFCURVE",
"111 615 CURVE SMOOTH",
"111 550 OFFCURVE",
"156 512 OFFCURVE",
"195 490 CURVE",
"199 504 LINE",
"186 510 OFFCURVE",
"172 513 OFFCURVE",
"157 513 CURVE SMOOTH",
"83 513 OFFCURVE",
"38 462 OFFCURVE",
"38 402 CURVE SMOOTH",
"38 363 OFFCURVE",
"50 333 OFFCURVE",
"75 305 CURVE",
"91 317 LINE",
"71 342 OFFCURVE",
"61 363 OFFCURVE",
"61 400 CURVE SMOOTH",
"61 449 OFFCURVE",
"97 488 OFFCURVE",
"156 488 CURVE SMOOTH",
"212 488 OFFCURVE",
"248 457 OFFCURVE",
"248 400 CURVE SMOOTH",
"248 346 OFFCURVE",
"222 321 OFFCURVE",
"166 269 CURVE SMOOTH",
"111 218 OFFCURVE",
"72 181 OFFCURVE",
"72 114 CURVE SMOOTH",
"72 43 OFFCURVE",
"128 -10 OFFCURVE",
"209 -10 CURVE SMOOTH"
);
}
);
width = 715;
},
{
anchors = (
{
name = top;
position = "{376, 566}";
}
);
layerId = "389B3055-E02B-410E-AE74-C99A384F2C74";
paths = (
{
closed = 1;
nodes = (
"313 -12 OFFCURVE",
"368 52 OFFCURVE",
"398 147 CURVE",
"392 147 LINE",
"415 52 OFFCURVE",
"465 -12 OFFCURVE",
"560 -12 CURVE SMOOTH",
"664 -12 OFFCURVE",
"704 81 OFFCURVE",
"704 188 CURVE SMOOTH",
"704 300 OFFCURVE",
"681 378 OFFCURVE",
"622 378 CURVE SMOOTH",
"588 378 OFFCURVE",
"566 356 OFFCURVE",
"555 315 CURVE",
"602 305 OFFCURVE",
"631 277 OFFCURVE",
"631 236 CURVE SMOOTH",
"631 194 OFFCURVE",
"598 167 OFFCURVE",
"539 167 CURVE SMOOTH",
"473 167 OFFCURVE",
"437 194 OFFCURVE",
"421 235 CURVE",
"369 235 LINE",
"349 194 OFFCURVE",
"313 167 OFFCURVE",
"260 167 CURVE SMOOTH",
"213 167 OFFCURVE",
"188 187 OFFCURVE",
"188 219 CURVE SMOOTH",
"188 259 OFFCURVE",
"234 293 OFFCURVE",
"271 336 CURVE SMOOTH",
"298 367 OFFCURVE",
"321 403 OFFCURVE",
"321 449 CURVE SMOOTH",
"321 496 OFFCURVE",
"301 526 OFFCURVE",
"281 555 CURVE SMOOTH",
"263 581 OFFCURVE",
"245 607 OFFCURVE",
"245 644 CURVE SMOOTH",
"245 690 OFFCURVE",
"273 721 OFFCURVE",
"327 730 CURVE",
"315 785 LINE",
"182 785 OFFCURVE",
"115 739 OFFCURVE",
"115 671 CURVE SMOOTH",
"115 611 OFFCURVE",
"180 573 OFFCURVE",
"235 553 CURVE",
"235 565 LINE",
"219 574 OFFCURVE",
"198 579 OFFCURVE",
"174 579 CURVE SMOOTH",
"80 579 OFFCURVE",
"28 520 OFFCURVE",
"28 448 CURVE SMOOTH",
"28 405 OFFCURVE",
"48 371 OFFCURVE",
"72 346 CURVE",
"117 371 LINE",
"113 378 OFFCURVE",
"109 387 OFFCURVE",
"109 398 CURVE SMOOTH",
"109 420 OFFCURVE",
"127 435 OFFCURVE",
"163 435 CURVE SMOOTH",
"200 435 OFFCURVE",
"214 418 OFFCURVE",
"214 396 CURVE SMOOTH",
"214 363 OFFCURVE",
"184 332 OFFCURVE",
"150 295 CURVE SMOOTH",
"109 250 OFFCURVE",
"63 198 OFFCURVE",
"63 126 CURVE SMOOTH",
"63 42 OFFCURVE",
"125 -12 OFFCURVE",
"211 -12 CURVE SMOOTH"
);
}
);
width = 752;
},
{
anchors = (
{
name = top;
position = "{368, 547}";
}
);
layerId = "56938CB9-64C5-480A-8326-19BB97D61A51";
paths = (
{
closed = 1;
nodes = (
"302 -11 OFFCURVE",
"353 42 OFFCURVE",
"384 142 CURVE",
"374 141 LINE",
"396 51 OFFCURVE",
"448 -11 OFFCURVE",
"540 -11 CURVE SMOOTH",
"657 -11 OFFCURVE",
"684 99 OFFCURVE",
"684 176 CURVE SMOOTH",
"684 251 OFFCURVE",
"663 326 OFFCURVE",
"622 326 CURVE SMOOTH",
"604 326 OFFCURVE",
"589 312 OFFCURVE",
"582 291 CURVE",
"619 261 OFFCURVE",
"638 228 OFFCURVE",
"638 185 CURVE SMOOTH",
"638 133 OFFCURVE",
"608 84 OFFCURVE",
"527 84 CURVE SMOOTH",
"446 84 OFFCURVE",
"417 133 OFFCURVE",
"397 201 CURVE",
"364 201 LINE",
"340 125 OFFCURVE",
"293 84 OFFCURVE",
"221 84 CURVE SMOOTH",
"168 84 OFFCURVE",
"136 110 OFFCURVE",
"136 154 CURVE SMOOTH",
"136 195 OFFCURVE",
"168 229 OFFCURVE",
"217 278 CURVE SMOOTH",
"272 334 OFFCURVE",
"300 378 OFFCURVE",
"300 436 CURVE SMOOTH",
"300 487 OFFCURVE",
"274 516 OFFCURVE",
"247 546 CURVE SMOOTH",
"221 575 OFFCURVE",
"195 603 OFFCURVE",
"195 652 CURVE SMOOTH",
"195 698 OFFCURVE",
"232 732 OFFCURVE",
"287 742 CURVE",
"279 782 LINE",
"170 781 OFFCURVE",
"112 729 OFFCURVE",
"112 665 CURVE SMOOTH",
"112 595 OFFCURVE",
"173 556 OFFCURVE",
"237 535 CURVE",
"209 553 LINE",
"197 556 OFFCURVE",
"183 558 OFFCURVE",
"168 558 CURVE SMOOTH",
"78 558 OFFCURVE",
"34 501 OFFCURVE",
"34 438 CURVE SMOOTH",
"34 393 OFFCURVE",
"52 357 OFFCURVE",
"76 329 CURVE",
"105 348 LINE",
"95 366 OFFCURVE",
"87 382 OFFCURVE",
"87 408 CURVE SMOOTH",
"87 451 OFFCURVE",
"116 476 OFFCURVE",
"164 476 CURVE SMOOTH",
"216 476 OFFCURVE",
"239 443 OFFCURVE",
"239 406 CURVE SMOOTH",
"239 361 OFFCURVE",
"212 335 OFFCURVE",
"162 287 CURVE SMOOTH",
"101 229 OFFCURVE",
"68 183 OFFCURVE",
"68 125 CURVE SMOOTH",
"68 47 OFFCURVE",
"126 -11 OFFCURVE",
"212 -11 CURVE SMOOTH"
);
}
);
width = 736;
},
{
anchors = (
{
name = top;
position = "{373, 561}";
}
);
layerId = "A6FB1343-85A8-49E5-AB18-F683E718EB6E";
paths = (
{
closed = 1;
nodes = (
"308 -12 OFFCURVE",
"361 47 OFFCURVE",
"393 145 CURVE",
"385 145 LINE",
"408 51 OFFCURVE",
"459 -12 OFFCURVE",
"552 -12 CURVE SMOOTH",
"663 -12 OFFCURVE",
"697 90 OFFCURVE",
"697 185 CURVE SMOOTH",
"697 281 OFFCURVE",
"675 357 OFFCURVE",
"623 357 CURVE SMOOTH",
"595 357 OFFCURVE",
"576 338 OFFCURVE",
"566 305 CURVE",
"609 287 OFFCURVE",
"634 257 OFFCURVE",
"634 217 CURVE SMOOTH",
"634 172 OFFCURVE",
"602 137 OFFCURVE",
"534 137 CURVE SMOOTH",
"463 137 OFFCURVE",
"430 170 OFFCURVE",
"412 222 CURVE",
"367 222 LINE",
"345 167 OFFCURVE",
"304 137 OFFCURVE",
"245 137 CURVE SMOOTH",
"196 137 OFFCURVE",
"169 159 OFFCURVE",
"169 195 CURVE SMOOTH",
"169 234 OFFCURVE",
"209 269 OFFCURVE",
"251 314 CURVE SMOOTH",
"289 355 OFFCURVE",
"314 395 OFFCURVE",
"314 446 CURVE SMOOTH",
"314 497 OFFCURVE",
"290 526 OFFCURVE",
"267 554 CURVE SMOOTH",
"246 580 OFFCURVE",
"227 604 OFFCURVE",
"227 643 CURVE SMOOTH",
"227 687 OFFCURVE",
"257 720 OFFCURVE",
"312 729 CURVE",
"301 779 LINE",
"177 779 OFFCURVE",
"114 732 OFFCURVE",
"114 668 CURVE SMOOTH",
"114 608 OFFCURVE",
"164 574 OFFCURVE",
"230 551 CURVE",
"223 562 LINE",
"208 568 OFFCURVE",
"191 572 OFFCURVE",
"172 572 CURVE SMOOTH",
"79 572 OFFCURVE",
"30 514 OFFCURVE",
"30 446 CURVE SMOOTH",
"30 401 OFFCURVE",
"49 366 OFFCURVE",
"73 340 CURVE",
"113 363 LINE",
"106 374 OFFCURVE",
"101 386 OFFCURVE",
"101 402 CURVE SMOOTH",
"101 433 OFFCURVE",
"124 451 OFFCURVE",
"164 451 CURVE SMOOTH",
"207 451 OFFCURVE",
"224 428 OFFCURVE",
"224 400 CURVE SMOOTH",
"224 363 OFFCURVE",
"195 333 OFFCURVE",
"154 292 CURVE SMOOTH",
"105 242 OFFCURVE",
"64 192 OFFCURVE",
"64 126 CURVE SMOOTH",
"64 44 OFFCURVE",
"125 -12 OFFCURVE",
"211 -12 CURVE SMOOTH"
);
}
);
width = 747;
}
);
leftKerningGroup = KND_o_L;
rightKerningGroup = KND_o_R;
unicode = 0C93;
script = kannada;
category = Letter;
subCategory = Other;
},
{
glyphname = au_kannada;
layers = (
{
anchors = (
{
name = top;
position = "{360, 503}";
}
);
layerId = "59995968-E459-46B5-A8B1-181090AA0B10";
paths = (
{
closed = 1;
nodes = (
"659 143 CURVE SMOOTH",
"659 220 OFFCURVE",
"620 307 OFFCURVE",
"589 307 CURVE SMOOTH",
"580 307 OFFCURVE",
"575 302 OFFCURVE",
"570 293 CURVE",
"611 258 OFFCURVE",
"637 214 OFFCURVE",
"637 145 CURVE SMOOTH",
"637 72 OFFCURVE",
"602 18 OFFCURVE",
"524 18 CURVE SMOOTH",
"419 18 OFFCURVE",
"388 115 OFFCURVE",
"383 196 CURVE",
"359 196 LINE",
"355 122 OFFCURVE",
"327 18 OFFCURVE",
"210 18 CURVE SMOOTH",
"146 18 OFFCURVE",
"95 59 OFFCURVE",
"95 118 CURVE SMOOTH",
"95 176 OFFCURVE",
"131 210 OFFCURVE",
"179 254 CURVE SMOOTH",
"244 313 OFFCURVE",
"270 340 OFFCURVE",
"270 397 CURVE SMOOTH",
"270 465 OFFCURVE",
"226 510 OFFCURVE",
"157 510 CURVE SMOOTH",
"83 510 OFFCURVE",
"38 460 OFFCURVE",
"38 401 CURVE SMOOTH",
"38 362 OFFCURVE",
"50 333 OFFCURVE",
"75 305 CURVE",
"91 317 LINE",
"71 342 OFFCURVE",
"61 363 OFFCURVE",
"61 399 CURVE SMOOTH",
"61 447 OFFCURVE",
"97 486 OFFCURVE",
"156 486 CURVE SMOOTH",
"212 486 OFFCURVE",
"248 455 OFFCURVE",
"248 399 CURVE SMOOTH",
"248 345 OFFCURVE",
"222 320 OFFCURVE",
"166 269 CURVE SMOOTH",
"111 218 OFFCURVE",
"72 182 OFFCURVE",
"72 116 CURVE SMOOTH",
"72 46 OFFCURVE",
"128 -6 OFFCURVE",
"209 -6 CURVE SMOOTH",
"310 -6 OFFCURVE",
"363 66 OFFCURVE",
"374 146 CURVE",
"368 146 LINE",
"379 65 OFFCURVE",
"428 -7 OFFCURVE",
"524 -7 CURVE SMOOTH",
"613 -7 OFFCURVE",
"659 59 OFFCURVE"
);
},
{
closed = 1;
nodes = (
"167 502 LINE SMOOTH",
"226 502 OFFCURVE",
"269 534 OFFCURVE",
"269 585 CURVE SMOOTH",
"269 622 OFFCURVE",
"245 650 OFFCURVE",
"223 667 CURVE",
"202 663 LINE",
"230 644 OFFCURVE",
"247 618 OFFCURVE",
"247 587 CURVE SMOOTH",
"247 549 OFFCURVE",
"216 525 OFFCURVE",
"164 525 CURVE SMOOTH",
"61 525 LINE",
"58 502 LINE"
);
},
{
closed = 1;
nodes = (
"659 493 CURVE SMOOTH",
"659 599 OFFCURVE",
"587 674 OFFCURVE",
"458 674 CURVE SMOOTH",
"47 674 LINE",
"46 650 LINE",
"458 650 LINE SMOOTH",
"574 650 OFFCURVE",
"636 588 OFFCURVE",
"636 494 CURVE SMOOTH",
"636 422 OFFCURVE",
"592 364 OFFCURVE",
"510 364 CURVE SMOOTH",
"436 364 OFFCURVE",
"398 396 OFFCURVE",
"398 448 CURVE SMOOTH",
"398 494 OFFCURVE",
"427 521 OFFCURVE",
"460 525 CURVE",
"447 541 LINE",
"447 518 LINE",
"447 500 OFFCURVE",
"461 487 OFFCURVE",
"480 487 CURVE SMOOTH",
"500 487 OFFCURVE",
"512 500 OFFCURVE",
"512 519 CURVE SMOOTH",
"512 538 OFFCURVE",
"499 550 OFFCURVE",
"475 550 CURVE SMOOTH",
"425 550 OFFCURVE",
"375 509 OFFCURVE",
"375 447 CURVE SMOOTH",
"375 388 OFFCURVE",
"422 339 OFFCURVE",
"510 339 CURVE SMOOTH",
"605 339 OFFCURVE",
"659 411 OFFCURVE"
);
}
);
width = 721;
},
{
anchors = (
{
name = top;
position = "{374, 566}";
}
);
layerId = "389B3055-E02B-410E-AE74-C99A384F2C74";
paths = (
{
closed = 1;
nodes = (
"699 174 CURVE SMOOTH",
"699 252 OFFCURVE",
"681 331 OFFCURVE",
"624 331 CURVE SMOOTH",
"591 331 OFFCURVE",
"570 308 OFFCURVE",
"562 271 CURVE",
"601 263 OFFCURVE",
"626 248 OFFCURVE",
"626 218 CURVE SMOOTH",
"626 187 OFFCURVE",
"591 167 OFFCURVE",
"535 167 CURVE SMOOTH",
"468 167 OFFCURVE",
"432 194 OFFCURVE",
"417 235 CURVE",
"364 235 LINE",
"344 194 OFFCURVE",
"309 167 OFFCURVE",
"255 167 CURVE SMOOTH",
"209 167 OFFCURVE",
"184 188 OFFCURVE",
"184 220 CURVE SMOOTH",
"184 260 OFFCURVE",
"219 283 OFFCURVE",
"251 322 CURVE SMOOTH",
"283 361 OFFCURVE",
"306 386 OFFCURVE",
"306 434 CURVE SMOOTH",
"306 492 OFFCURVE",
"263 549 OFFCURVE",
"168 549 CURVE SMOOTH",
"80 549 OFFCURVE",
"28 488 OFFCURVE",
"28 423 CURVE SMOOTH",
"28 385 OFFCURVE",
"48 354 OFFCURVE",
"72 331 CURVE",
"117 356 LINE",
"113 363 OFFCURVE",
"109 372 OFFCURVE",
"109 383 CURVE SMOOTH",
"109 405 OFFCURVE",
"125 420 OFFCURVE",
"156 420 CURVE SMOOTH",
"187 420 OFFCURVE",
"200 403 OFFCURVE",
"200 381 CURVE SMOOTH",
"200 354 OFFCURVE",
"171 323 OFFCURVE",
"127 279 CURVE SMOOTH",
"86 238 OFFCURVE",
"58 191 OFFCURVE",
"58 132 CURVE SMOOTH",
"58 45 OFFCURVE",
"120 -12 OFFCURVE",
"207 -12 CURVE SMOOTH",
"308 -12 OFFCURVE",
"364 52 OFFCURVE",
"394 147 CURVE",
"387 147 LINE",
"410 52 OFFCURVE",
"462 -12 OFFCURVE",
"560 -12 CURVE SMOOTH",
"657 -12 OFFCURVE",
"699 74 OFFCURVE"
);
},
{
closed = 1;
nodes = (
"184 522 LINE SMOOTH",
"273 522 OFFCURVE",
"328 558 OFFCURVE",
"328 624 CURVE SMOOTH",
"328 672 OFFCURVE",
"308 706 OFFCURVE",
"263 738 CURVE",
"237 711 LINE",
"251 696 OFFCURVE",
"259 680 OFFCURVE",
"259 661 CURVE SMOOTH",
"259 625 OFFCURVE",
"234 607 OFFCURVE",
"186 607 CURVE SMOOTH",
"59 607 LINE",
"48 522 LINE"
);
},
{
closed = 1;
nodes = (
"701 558 CURVE SMOOTH",
"701 707 OFFCURVE",
"617 811 OFFCURVE",
"434 811 CURVE SMOOTH",
"47 811 LINE",
"36 685 LINE",
"458 685 LINE SMOOTH",
"570 685 OFFCURVE",
"633 644 OFFCURVE",
"633 562 CURVE SMOOTH",
"633 500 OFFCURVE",
"584 460 OFFCURVE",
"516 460 CURVE SMOOTH",
"455 460 OFFCURVE",
"422 484 OFFCURVE",
"422 520 CURVE SMOOTH",
"422 547 OFFCURVE",
"441 566 OFFCURVE",
"470 569 CURVE",
"447 570 LINE",
"447 559 LINE",
"447 528 OFFCURVE",
"468 506 OFFCURVE",
"507 506 CURVE SMOOTH",
"548 506 OFFCURVE",
"573 531 OFFCURVE",
"573 569 CURVE SMOOTH",
"573 606 OFFCURVE",
"547 634 OFFCURVE",
"496 634 CURVE SMOOTH",
"417 634 OFFCURVE",
"364 574 OFFCURVE",
"364 496 CURVE SMOOTH",
"364 403 OFFCURVE",
"431 344 OFFCURVE",
"529 344 CURVE SMOOTH",
"635 344 OFFCURVE",
"701 431 OFFCURVE"
);
}
);
width = 749;
},
{
anchors = (
{
name = top;
position = "{370, 547}";
}
);
layerId = "56938CB9-64C5-480A-8326-19BB97D61A51";
paths = (
{
closed = 1;
nodes = (
"684 174 CURVE SMOOTH",
"684 249 OFFCURVE",
"663 324 OFFCURVE",
"622 324 CURVE SMOOTH",
"604 324 OFFCURVE",
"589 310 OFFCURVE",
"582 289 CURVE",
"619 259 OFFCURVE",
"638 226 OFFCURVE",
"638 183 CURVE SMOOTH",
"638 131 OFFCURVE",
"608 83 OFFCURVE",
"527 83 CURVE SMOOTH",
"446 83 OFFCURVE",
"417 132 OFFCURVE",
"397 200 CURVE",
"364 200 LINE",
"340 125 OFFCURVE",
"293 83 OFFCURVE",
"221 83 CURVE SMOOTH",
"168 83 OFFCURVE",
"136 109 OFFCURVE",
"136 154 CURVE SMOOTH",
"136 195 OFFCURVE",
"167 230 OFFCURVE",
"217 278 CURVE SMOOTH",
"273 332 OFFCURVE",
"300 373 OFFCURVE",
"300 428 CURVE SMOOTH",
"300 500 OFFCURVE",
"260 558 OFFCURVE",
"168 558 CURVE SMOOTH",
"78 558 OFFCURVE",
"34 502 OFFCURVE",
"34 439 CURVE SMOOTH",
"34 393 OFFCURVE",
"52 357 OFFCURVE",
"76 329 CURVE",
"105 348 LINE",
"95 366 OFFCURVE",
"87 383 OFFCURVE",
"87 410 CURVE SMOOTH",
"87 454 OFFCURVE",
"116 480 OFFCURVE",
"164 480 CURVE SMOOTH",
"216 480 OFFCURVE",
"239 447 OFFCURVE",
"239 408 CURVE SMOOTH",
"239 363 OFFCURVE",
"213 336 OFFCURVE",
"162 287 CURVE SMOOTH",
"101 229 OFFCURVE",
"68 183 OFFCURVE",
"68 124 CURVE SMOOTH",
"68 46 OFFCURVE",
"126 -12 OFFCURVE",
"212 -12 CURVE SMOOTH",
"302 -12 OFFCURVE",
"353 41 OFFCURVE",
"384 141 CURVE",
"373 140 LINE",
"398 50 OFFCURVE",
"450 -12 OFFCURVE",
"540 -12 CURVE SMOOTH",
"657 -12 OFFCURVE",
"684 98 OFFCURVE"
);
},
{
closed = 1;
nodes = (
"177 544 LINE SMOOTH",
"251 544 OFFCURVE",
"299 580 OFFCURVE",
"299 645 CURVE SMOOTH",
"299 688 OFFCURVE",
"274 728 OFFCURVE",
"229 764 CURVE",
"202 747 LINE",
"238 717 OFFCURVE",
"256 690 OFFCURVE",
"256 660 CURVE SMOOTH",
"256 625 OFFCURVE",
"228 611 OFFCURVE",
"183 611 CURVE SMOOTH",
"61 611 LINE",
"54 544 LINE"
);
},
{
closed = 1;
nodes = (
"683 567 CURVE SMOOTH",
"683 694 OFFCURVE",
"611 782 OFFCURVE",
"448 782 CURVE SMOOTH",
"49 782 LINE",
"42 695 LINE",
"465 695 LINE SMOOTH",
"590 695 OFFCURVE",
"636 646 OFFCURVE",
"636 567 CURVE SMOOTH",
"636 500 OFFCURVE",
"588 453 OFFCURVE",
"518 453 CURVE SMOOTH",
"457 453 OFFCURVE",
"418 477 OFFCURVE",
"418 521 CURVE SMOOTH",
"418 553 OFFCURVE",
"434 566 OFFCURVE",
"445 573 CURVE",
"442 576 LINE",
"442 567 LINE SMOOTH",
"442 537 OFFCURVE",
"464 522 OFFCURVE",
"489 522 CURVE SMOOTH",
"522 522 OFFCURVE",
"540 545 OFFCURVE",
"540 574 CURVE SMOOTH",
"540 608 OFFCURVE",
"522 630 OFFCURVE",
"475 630 CURVE SMOOTH",
"437 630 OFFCURVE",
"374 601 OFFCURVE",
"374 509 CURVE SMOOTH",
"374 432 OFFCURVE",
"424 370 OFFCURVE",
"513 370 CURVE SMOOTH",
"621 370 OFFCURVE",
"683 450 OFFCURVE"
);
}
);
width = 740;
},
{
anchors = (
{
name = top;
position = "{373, 561}";
}
);
layerId = "A6FB1343-85A8-49E5-AB18-F683E718EB6E";
paths = (
{
closed = 1;
nodes = (
"694 176 CURVE SMOOTH",
"694 252 OFFCURVE",
"675 329 OFFCURVE",
"624 329 CURVE SMOOTH",
"597 329 OFFCURVE",
"578 309 OFFCURVE",
"570 278 CURVE",
"608 261 OFFCURVE",
"631 239 OFFCURVE",
"631 206 CURVE SMOOTH",
"631 167 OFFCURVE",
"598 137 OFFCURVE",
"531 137 CURVE SMOOTH",
"460 137 OFFCURVE",
"427 170 OFFCURVE",
"409 221 CURVE",
"364 221 LINE",
"342 166 OFFCURVE",
"301 137 OFFCURVE",
"242 137 CURVE SMOOTH",
"194 137 OFFCURVE",
"166 158 OFFCURVE",
"166 195 CURVE SMOOTH",
"166 234 OFFCURVE",
"199 263 OFFCURVE",
"239 305 CURVE SMOOTH",
"281 350 OFFCURVE",
"305 382 OFFCURVE",
"305 433 CURVE SMOOTH",
"305 497 OFFCURVE",
"263 555 OFFCURVE",
"168 555 CURVE SMOOTH",
"79 555 OFFCURVE",
"30 496 OFFCURVE",
"30 431 CURVE SMOOTH",
"30 390 OFFCURVE",
"49 356 OFFCURVE",
"73 331 CURVE",
"113 354 LINE",
"106 365 OFFCURVE",
"101 377 OFFCURVE",
"101 394 CURVE SMOOTH",
"101 425 OFFCURVE",
"122 444 OFFCURVE",
"159 444 CURVE SMOOTH",
"199 444 OFFCURVE",
"215 420 OFFCURVE",
"215 392 CURVE SMOOTH",
"215 358 OFFCURVE",
"188 329 OFFCURVE",
"141 283 CURVE SMOOTH",
"91 235 OFFCURVE",
"62 188 OFFCURVE",
"62 129 CURVE SMOOTH",
"62 45 OFFCURVE",
"122 -12 OFFCURVE",
"208 -12 CURVE SMOOTH",
"305 -12 OFFCURVE",
"359 46 OFFCURVE",
"390 145 CURVE",
"381 145 LINE",
"406 50 OFFCURVE",
"458 -12 OFFCURVE",
"552 -12 CURVE SMOOTH",
"659 -12 OFFCURVE",
"694 85 OFFCURVE"
);
},
{
closed = 1;
nodes = (
"181 533 LINE SMOOTH",
"266 533 OFFCURVE",
"317 569 OFFCURVE",
"317 635 CURVE SMOOTH",
"317 682 OFFCURVE",
"295 718 OFFCURVE",
"250 753 CURVE",
"223 729 LINE",
"246 708 OFFCURVE",
"258 687 OFFCURVE",
"258 664 CURVE SMOOTH",
"258 628 OFFCURVE",
"232 613 OFFCURVE",
"186 613 CURVE SMOOTH",
"60 613 LINE",
"50 533 LINE"
);
},
{
closed = 1;
nodes = (
"694 565 CURVE SMOOTH",
"694 706 OFFCURVE",
"615 804 OFFCURVE",
"439 804 CURVE SMOOTH",
"47 804 LINE",
"38 691 LINE",
"461 691 LINE SMOOTH",
"579 691 OFFCURVE",
"634 647 OFFCURVE",
"634 567 CURVE SMOOTH",
"634 503 OFFCURVE",
"585 461 OFFCURVE",
"517 461 CURVE SMOOTH",
"456 461 OFFCURVE",
"421 484 OFFCURVE",
"421 524 CURVE SMOOTH",
"421 552 OFFCURVE",
"438 568 OFFCURVE",
"459 573 CURVE",
"444 574 LINE",
"444 564 LINE SMOOTH",
"444 533 OFFCURVE",
"466 514 OFFCURVE",
"500 514 CURVE SMOOTH",
"539 514 OFFCURVE",
"561 539 OFFCURVE",
"561 573 CURVE SMOOTH",
"561 610 OFFCURVE",
"538 636 OFFCURVE",
"487 636 CURVE SMOOTH",
"425 636 OFFCURVE",
"368 589 OFFCURVE",
"368 504 CURVE SMOOTH",
"368 417 OFFCURVE",
"428 356 OFFCURVE",
"522 356 CURVE SMOOTH",
"630 356 OFFCURVE",
"694 440 OFFCURVE"
);
}
);
width = 746;
}
);
leftKerningGroup = KND_o_L;
rightKerningGroup = KND_au_R;
unicode = 0C94;
script = kannada;
category = Letter;
subCategory = Other;
},
{
glyphname = ka_kannada;
layers = (
{
anchors = (
{
name = bottom;
position = "{284, 0}";
},
{
name = top;
position = "{284, 503}";
}
);
layerId = "59995968-E459-46B5-A8B1-181090AA0B10";
paths = (
{
closed = 1;
nodes = (
"382 -7 OFFCURVE",
"457 61 OFFCURVE",
"457 156 CURVE SMOOTH",
"457 226 OFFCURVE",
"413 284 OFFCURVE",
"347 305 CURVE",
"346 299 LINE",
"391 299 OFFCURVE",
"436 299 OFFCURVE",
"481 299 CURVE",
"501 299 LINE",
"501 322 LINE",
"289 322 LINE",
"309 339 OFFCURVE",
"330 369 OFFCURVE",
"330 410 CURVE SMOOTH",
"330 438 OFFCURVE",
"319 465 OFFCURVE",
"307 484 CURVE",
"281 484 LINE",
"297 467 OFFCURVE",
"308 439 OFFCURVE",
"308 412 CURVE SMOOTH",
"308 372 OFFCURVE",
"289 346 OFFCURVE",
"254 322 CURVE",
"64 322 LINE",
"62 299 LINE",
"89 299 LINE",
"130 299 OFFCURVE",
"171 299 OFFCURVE",
"213 299 CURVE",
"211 305 LINE",
"146 284 OFFCURVE",
"102 226 OFFCURVE",
"102 156 CURVE SMOOTH",
"102 61 OFFCURVE",
"177 -7 OFFCURVE",
"279 -7 CURVE SMOOTH"
);
},
{
closed = 1;
nodes = (
"193 18 OFFCURVE",
"124 72 OFFCURVE",
"124 158 CURVE SMOOTH",
"124 234 OFFCURVE",
"188 301 OFFCURVE",
"279 301 CURVE SMOOTH",
"374 301 OFFCURVE",
"435 234 OFFCURVE",
"435 158 CURVE SMOOTH",
"435 72 OFFCURVE",
"365 18 OFFCURVE",
"279 18 CURVE SMOOTH"
);
},
{
closed = 1;
nodes = (
"332 479 LINE",
"391 479 OFFCURVE",
"436 490 OFFCURVE",
"466 515 CURVE SMOOTH",
"492 536 OFFCURVE",
"506 568 OFFCURVE",
"506 613 CURVE",
"506 660 OFFCURVE",
"485 705 OFFCURVE",
"457 739 CURVE",
"440 727 LINE",
"456 709 OFFCURVE",
"484 671 OFFCURVE",
"484 614 CURVE",
"484 578 OFFCURVE",
"472 551 OFFCURVE",
"450 534 CURVE SMOOTH",
"424 514 OFFCURVE",
"384 503 OFFCURVE",
"334 503 CURVE",
"64 503 LINE",
"62 479 LINE"
);
}
);
width = 568;
},
{
anchors = (
{
name = bottom;
position = "{299, 0}";
},
{
name = top;
position = "{300, 566}";
}
);
layerId = "389B3055-E02B-410E-AE74-C99A384F2C74";
paths = (
{
closed = 1;
nodes = (
"419 -12 OFFCURVE",
"491 54 OFFCURVE",
"491 140 CURVE SMOOTH",
"491 202 OFFCURVE",
"457 249 OFFCURVE",
"411 270 CURVE",
"419 256 LINE",
"441 253 OFFCURVE",
"473 251 OFFCURVE",
"498 251 CURVE SMOOTH",
"530 251 LINE",
"530 364 LINE",
"338 364 LINE",
"341 373 OFFCURVE",
"343 383 OFFCURVE",
"343 394 CURVE SMOOTH",
"343 404 OFFCURVE",
"342 412 OFFCURVE",
"339 422 CURVE",
"257 422 LINE",
"262 415 OFFCURVE",
"265 407 OFFCURVE",
"265 397 CURVE SMOOTH",
"265 382 OFFCURVE",
"257 372 OFFCURVE",
"248 364 CURVE",
"63 364 LINE",
"53 251 LINE",
"86 251 LINE SMOOTH",
"110 251 OFFCURVE",
"142 253 OFFCURVE",
"164 256 CURVE",
"176 270 LINE",
"130 249 OFFCURVE",
"96 202 OFFCURVE",
"96 140 CURVE SMOOTH",
"96 54 OFFCURVE",
"168 -12 OFFCURVE",
"293 -12 CURVE SMOOTH"
);
},
{
closed = 1;
nodes = (
"227 152 OFFCURVE",
"194 168 OFFCURVE",
"194 204 CURVE SMOOTH",
"194 240 OFFCURVE",
"227 261 OFFCURVE",
"294 261 CURVE SMOOTH",
"362 261 OFFCURVE",
"394 240 OFFCURVE",
"394 204 CURVE SMOOTH",
"394 168 OFFCURVE",
"362 152 OFFCURVE",
"294 152 CURVE SMOOTH"
);
},
{
closed = 1;
nodes = (
"330 416 LINE",
"400 416 OFFCURVE",
"455 429 OFFCURVE",
"493 459 CURVE SMOOTH",
"528 487 OFFCURVE",
"548 529 OFFCURVE",
"548 589 CURVE",
"548 654 OFFCURVE",
"519 723 OFFCURVE",
"462 784 CURVE",
"409 745 LINE",
"441 708 OFFCURVE",
"459 680 OFFCURVE",
"459 640 CURVE",
"459 622 OFFCURVE",
"453 606 OFFCURVE",
"442 595 CURVE",
"422 575 OFFCURVE",
"387 566 OFFCURVE",
"345 566 CURVE",
"63 566 LINE",
"52 416 LINE"
);
}
);
width = 600;
},
{
anchors = (
{
name = bottom;
position = "{290, 0}";
},
{
name = top;
position = "{289, 547}";
}
);
layerId = "56938CB9-64C5-480A-8326-19BB97D61A51";
paths = (
{
closed = 1;
nodes = (
"397 -10 OFFCURVE",
"472 62 OFFCURVE",
"472 155 CURVE SMOOTH",
"472 223 OFFCURVE",
"437 273 OFFCURVE",
"383 303 CURVE",
"384 297 LINE",
"417 294 OFFCURVE",
"443 294 OFFCURVE",
"496 294 CURVE SMOOTH",
"517 294 LINE",
"517 361 LINE",
"326 361 LINE",
"333 375 OFFCURVE",
"338 394 OFFCURVE",
"338 414 CURVE SMOOTH",
"338 432 OFFCURVE",
"333 449 OFFCURVE",
"325 466 CURVE",
"268 466 LINE",
"276 455 OFFCURVE",
"283 437 OFFCURVE",
"283 417 CURVE SMOOTH",
"283 391 OFFCURVE",
"272 375 OFFCURVE",
"255 361 CURVE",
"63 361 LINE",
"59 294 LINE",
"86 294 LINE SMOOTH",
"132 294 OFFCURVE",
"158 294 OFFCURVE",
"192 297 CURVE",
"192 303 LINE",
"140 273 OFFCURVE",
"104 223 OFFCURVE",
"104 155 CURVE SMOOTH",
"104 62 OFFCURVE",
"178 -10 OFFCURVE",
"287 -10 CURVE SMOOTH"
);
},
{
closed = 1;
nodes = (
"209 80 OFFCURVE",
"167 121 OFFCURVE",
"167 183 CURVE SMOOTH",
"167 249 OFFCURVE",
"211 295 OFFCURVE",
"288 295 CURVE SMOOTH",
"360 295 OFFCURVE",
"409 251 OFFCURVE",
"409 183 CURVE SMOOTH",
"409 127 OFFCURVE",
"373 80 OFFCURVE",
"287 80 CURVE SMOOTH"
);
},
{
closed = 1;
nodes = (
"331 460 LINE",
"426 460 OFFCURVE",
"460 477 OFFCURVE",
"486 503 CURVE SMOOTH",
"515 532 OFFCURVE",
"522 569 OFFCURVE",
"522 605 CURVE",
"522 666 OFFCURVE",
"496 723 OFFCURVE",
"451 771 CURVE",
"415 744 LINE",
"451 706 OFFCURVE",
"470 667 OFFCURVE",
"470 628 CURVE",
"470 602 OFFCURVE",
"462 583 OFFCURVE",
"447 570 CURVE SMOOTH",
"428 554 OFFCURVE",
"402 547 OFFCURVE",
"335 547 CURVE",
"64 547 LINE",
"58 460 LINE"
);
}
);
width = 578;
},
{
anchors = (
{
name = bottom;
position = "{295, 0}";
},
{
name = top;
position = "{296, 561}";
}
);
layerId = "A6FB1343-85A8-49E5-AB18-F683E718EB6E";
paths = (
{
closed = 1;
nodes = (
"411 -12 OFFCURVE",
"484 57 OFFCURVE",
"484 146 CURVE SMOOTH",
"484 210 OFFCURVE",
"449 258 OFFCURVE",
"401 283 CURVE",
"407 272 LINE",
"433 270 OFFCURVE",
"461 268 OFFCURVE",
"498 268 CURVE SMOOTH",
"525 268 LINE",
"525 365 LINE",
"334 365 LINE",
"339 375 OFFCURVE",
"341 389 OFFCURVE",
"341 402 CURVE SMOOTH",
"341 415 OFFCURVE",
"339 426 OFFCURVE",
"334 439 CURVE",
"261 439 LINE",
"267 431 OFFCURVE",
"271 419 OFFCURVE",
"271 405 CURVE SMOOTH",
"271 387 OFFCURVE",
"262 375 OFFCURVE",
"250 365 CURVE",
"63 365 LINE",
"55 268 LINE",
"86 268 LINE SMOOTH",
"119 268 OFFCURVE",
"148 270 OFFCURVE",
"174 272 CURVE",
"182 283 LINE",
"134 258 OFFCURVE",
"99 210 OFFCURVE",
"99 146 CURVE SMOOTH",
"99 57 OFFCURVE",
"172 -12 OFFCURVE",
"291 -12 CURVE SMOOTH"
);
},
{
closed = 1;
nodes = (
"220 126 OFFCURVE",
"185 151 OFFCURVE",
"185 196 CURVE SMOOTH",
"185 244 OFFCURVE",
"221 274 OFFCURVE",
"292 274 CURVE SMOOTH",
"361 274 OFFCURVE",
"398 246 OFFCURVE",
"398 196 CURVE SMOOTH",
"398 154 OFFCURVE",
"367 126 OFFCURVE",
"292 126 CURVE SMOOTH"
);
},
{
closed = 1;
nodes = (
"330 433 LINE",
"412 433 OFFCURVE",
"458 447 OFFCURVE",
"491 476 CURVE SMOOTH",
"523 505 OFFCURVE",
"538 545 OFFCURVE",
"538 596 CURVE",
"538 660 OFFCURVE",
"510 724 OFFCURVE",
"457 781 CURVE",
"410 746 LINE",
"444 707 OFFCURVE",
"462 675 OFFCURVE",
"462 637 CURVE",
"462 615 OFFCURVE",
"456 599 OFFCURVE",
"444 587 CURVE SMOOTH",
"425 568 OFFCURVE",
"393 561 OFFCURVE",
"340 561 CURVE",
"63 561 LINE",
"54 433 LINE"
);
}
);
width = 592;
}
);
leftKerningGroup = KND_ka_L;
rightKerningGroup = KND_ka_R;
unicode = 0C95;
script = kannada;
category = Letter;
subCategory = Other;
},
{
glyphname = kha_kannada;
layers = (
{
anchors = (
{
name = bottom;
position = "{401, 0}";
},
{
name = top;
position = "{407, 503}";
}
);
layerId = "59995968-E459-46B5-A8B1-181090AA0B10";
paths = (
{
closed = 1;
nodes = (
"273 -10 OFFCURVE",
"336 33 OFFCURVE",
"376 101 CURVE SMOOTH",
"408 155 OFFCURVE",
"425 226 OFFCURVE",
"425 303 CURVE SMOOTH",
"425 423 OFFCURVE",
"360 513 OFFCURVE",
"252 513 CURVE SMOOTH",
"169 513 OFFCURVE",
"122 462 OFFCURVE",
"122 395 CURVE SMOOTH",
"122 329 OFFCURVE",
"175 288 OFFCURVE",
"230 288 CURVE SMOOTH",
"255 288 OFFCURVE",
"270 300 OFFCURVE",
"270 320 CURVE SMOOTH",
"270 339 OFFCURVE",
"257 352 OFFCURVE",
"237 352 CURVE SMOOTH",
"218 352 OFFCURVE",
"205 339 OFFCURVE",
"205 323 CURVE SMOOTH",
"205 312 OFFCURVE",
"209 303 OFFCURVE",
"219 299 CURVE",
"236 308 LINE",
"186 308 OFFCURVE",
"145 336 OFFCURVE",
"145 396 CURVE SMOOTH",
"145 452 OFFCURVE",
"186 488 OFFCURVE",
"251 488 CURVE SMOOTH",
"349 488 OFFCURVE",
"402 410 OFFCURVE",
"402 304 CURVE SMOOTH",
"402 144 OFFCURVE",
"331 15 OFFCURVE",
"189 15 CURVE SMOOTH",
"110 15 OFFCURVE",
"66 56 OFFCURVE",
"66 118 CURVE SMOOTH",
"66 172 OFFCURVE",
"108 212 OFFCURVE",
"169 212 CURVE SMOOTH",
"251 212 OFFCURVE",
"309 149 OFFCURVE",
"373 91 CURVE SMOOTH",
"430 39 OFFCURVE",
"493 -10 OFFCURVE",
"585 -10 CURVE SMOOTH",
"699 -10 OFFCURVE",
"759 79 OFFCURVE",
"759 201 CURVE SMOOTH",
"759 440 OFFCURVE",
"558 579 OFFCURVE",
"480 579 CURVE SMOOTH",
"472 579 OFFCURVE",
"468 574 OFFCURVE",
"468 565 CURVE SMOOTH",
"468 561 OFFCURVE",
"468 558 OFFCURVE",
"469 554 CURVE",
"641 508 OFFCURVE",
"736 362 OFFCURVE",
"736 203 CURVE SMOOTH",
"736 94 OFFCURVE",
"688 15 OFFCURVE",
"583 15 CURVE SMOOTH",
"499 15 OFFCURVE",
"439 58 OFFCURVE",
"386 107 CURVE SMOOTH",
"320 167 OFFCURVE",
"261 234 OFFCURVE",
"169 234 CURVE SMOOTH",
"95 234 OFFCURVE",
"44 183 OFFCURVE",
"44 116 CURVE SMOOTH",
"44 46 OFFCURVE",
"98 -10 OFFCURVE",
"188 -10 CURVE SMOOTH"
);
}
);
width = 815;
},
{
anchors = (
{
name = bottom;
position = "{419, 0}";
},
{
name = top;
position = "{426, 566}";
}
);
layerId = "389B3055-E02B-410E-AE74-C99A384F2C74";
paths = (
{
closed = 1;
nodes = (
"289 -12 OFFCURVE",
"357 40 OFFCURVE",
"400 115 CURVE SMOOTH",
"436 178 OFFCURVE",
"454 257 OFFCURVE",
"454 337 CURVE SMOOTH",
"454 462 OFFCURVE",
"403 579 OFFCURVE",
"277 579 CURVE SMOOTH",
"173 579 OFFCURVE",
"119 510 OFFCURVE",
"119 428 CURVE SMOOTH",
"119 347 OFFCURVE",
"174 291 OFFCURVE",
"250 291 CURVE SMOOTH",
"305 291 OFFCURVE",
"328 319 OFFCURVE",
"328 356 CURVE SMOOTH",
"328 394 OFFCURVE",
"306 422 OFFCURVE",
"261 422 CURVE SMOOTH",
"220 422 OFFCURVE",
"197 399 OFFCURVE",
"197 369 CURVE SMOOTH",
"197 351 OFFCURVE",
"207 334 OFFCURVE",
"223 328 CURVE",
"227 353 LINE",
"206 362 OFFCURVE",
"195 375 OFFCURVE",
"195 397 CURVE SMOOTH",
"195 429 OFFCURVE",
"223 455 OFFCURVE",
"276 455 CURVE SMOOTH",
"349 455 OFFCURVE",
"386 405 OFFCURVE",
"386 336 CURVE SMOOTH",
"386 227 OFFCURVE",
"294 129 OFFCURVE",
"190 129 CURVE SMOOTH",
"153 129 OFFCURVE",
"127 137 OFFCURVE",
"127 159 CURVE SMOOTH",
"127 181 OFFCURVE",
"151 193 OFFCURVE",
"185 193 CURVE SMOOTH",
"243 193 OFFCURVE",
"301 157 OFFCURVE",
"353 110 CURVE SMOOTH",
"434 38 OFFCURVE",
"505 -12 OFFCURVE",
"601 -12 CURVE SMOOTH",
"737 -12 OFFCURVE",
"804 88 OFFCURVE",
"804 245 CURVE SMOOTH",
"804 495 OFFCURVE",
"622 651 OFFCURVE",
"532 651 CURVE SMOOTH",
"499 651 OFFCURVE",
"481 623 OFFCURVE",
"481 584 CURVE SMOOTH",
"481 558 OFFCURVE",
"486 539 OFFCURVE",
"493 525 CURVE",
"640 497 OFFCURVE",
"726 418 OFFCURVE",
"726 304 CURVE SMOOTH",
"726 214 OFFCURVE",
"666 167 OFFCURVE",
"571 167 CURVE SMOOTH",
"488 167 OFFCURVE",
"434 184 OFFCURVE",
"363 221 CURVE SMOOTH",
"305 250 OFFCURVE",
"254 273 OFFCURVE",
"190 273 CURVE SMOOTH",
"92 273 OFFCURVE",
"34 214 OFFCURVE",
"34 132 CURVE SMOOTH",
"34 47 OFFCURVE",
"102 -12 OFFCURVE",
"197 -12 CURVE SMOOTH"
);
}
);
width = 852;
},
{
anchors = (
{
name = bottom;
position = "{407, 0}";
},
{
name = top;
position = "{413, 547}";
}
);
layerId = "56938CB9-64C5-480A-8326-19BB97D61A51";
paths = (
{
closed = 1;
nodes = (
"279 -11 OFFCURVE",
"344 36 OFFCURVE",
"388 117 CURVE SMOOTH",
"416 170 OFFCURVE",
"432 235 OFFCURVE",
"432 303 CURVE SMOOTH",
"432 439 OFFCURVE",
"379 558 OFFCURVE",
"259 558 CURVE SMOOTH",
"170 558 OFFCURVE",
"120 496 OFFCURVE",
"120 418 CURVE SMOOTH",
"120 326 OFFCURVE",
"187 297 OFFCURVE",
"227 297 CURVE SMOOTH",
"271 297 OFFCURVE",
"287 319 OFFCURVE",
"287 353 CURVE SMOOTH",
"287 382 OFFCURVE",
"270 405 OFFCURVE",
"236 405 CURVE SMOOTH",
"211 405 OFFCURVE",
"189 391 OFFCURVE",
"189 360 CURVE SMOOTH",
"189 349 OFFCURVE",
"194 336 OFFCURVE",
"208 330 CURVE",
"195 354 LINE",
"181 360 OFFCURVE",
"165 374 OFFCURVE",
"165 407 CURVE SMOOTH",
"165 451 OFFCURVE",
"201 475 OFFCURVE",
"252 475 CURVE SMOOTH",
"331 475 OFFCURVE",
"384 421 OFFCURVE",
"384 303 CURVE SMOOTH",
"384 185 OFFCURVE",
"326 76 OFFCURVE",
"192 76 CURVE SMOOTH",
"131 76 OFFCURVE",
"103 102 OFFCURVE",
"103 139 CURVE SMOOTH",
"103 172 OFFCURVE",
"124 199 OFFCURVE",
"174 199 CURVE SMOOTH",
"228 199 OFFCURVE",
"276 167 OFFCURVE",
"344 106 CURVE SMOOTH",
"436 28 OFFCURVE",
"495 -11 OFFCURVE",
"582 -11 CURVE SMOOTH",
"713 -11 OFFCURVE",
"774 85 OFFCURVE",
"774 241 CURVE SMOOTH",
"774 495 OFFCURVE",
"570 624 OFFCURVE",
"489 624 CURVE SMOOTH",
"468 624 OFFCURVE",
"455 607 OFFCURVE",
"455 580 CURVE SMOOTH",
"455 570 OFFCURVE",
"457 562 OFFCURVE",
"460 552 CURVE",
"624 512 OFFCURVE",
"728 398 OFFCURVE",
"728 245 CURVE SMOOTH",
"728 133 OFFCURVE",
"665 86 OFFCURVE",
"574 86 CURVE SMOOTH",
"501 86 OFFCURVE",
"451 105 OFFCURVE",
"367 162 CURVE SMOOTH",
"301 208 OFFCURVE",
"248 243 OFFCURVE",
"174 243 CURVE SMOOTH",
"88 243 OFFCURVE",
"40 190 OFFCURVE",
"40 123 CURVE SMOOTH",
"40 39 OFFCURVE",
"98 -11 OFFCURVE",
"190 -11 CURVE SMOOTH"
);
}
);
width = 826;
},
{
anchors = (
{
name = bottom;
position = "{414, 0}";
},
{
name = top;
position = "{421, 561}";
}
);
layerId = "A6FB1343-85A8-49E5-AB18-F683E718EB6E";
paths = (
{
closed = 1;
nodes = (
"285 -12 OFFCURVE",
"352 38 OFFCURVE",
"396 117 CURVE SMOOTH",
"428 175 OFFCURVE",
"445 249 OFFCURVE",
"445 324 CURVE SMOOTH",
"445 454 OFFCURVE",
"394 572 OFFCURVE",
"270 572 CURVE SMOOTH",
"172 572 OFFCURVE",
"119 506 OFFCURVE",
"119 425 CURVE SMOOTH",
"119 338 OFFCURVE",
"180 293 OFFCURVE",
"241 293 CURVE SMOOTH",
"292 293 OFFCURVE",
"312 320 OFFCURVE",
"312 356 CURVE SMOOTH",
"312 391 OFFCURVE",
"292 417 OFFCURVE",
"251 417 CURVE SMOOTH",
"216 417 OFFCURVE",
"193 398 OFFCURVE",
"193 367 CURVE SMOOTH",
"193 352 OFFCURVE",
"201 336 OFFCURVE",
"216 330 CURVE",
"212 355 LINE",
"195 364 OFFCURVE",
"183 376 OFFCURVE",
"183 401 CURVE SMOOTH",
"183 438 OFFCURVE",
"214 462 OFFCURVE",
"266 462 CURVE SMOOTH",
"341 462 OFFCURVE",
"384 412 OFFCURVE",
"384 323 CURVE SMOOTH",
"384 212 OFFCURVE",
"307 111 OFFCURVE",
"191 111 CURVE SMOOTH",
"145 111 OFFCURVE",
"119 125 OFFCURVE",
"119 152 CURVE SMOOTH",
"119 177 OFFCURVE",
"141 195 OFFCURVE",
"181 195 CURVE SMOOTH",
"236 195 OFFCURVE",
"289 162 OFFCURVE",
"348 109 CURVE SMOOTH",
"435 33 OFFCURVE",
"501 -12 OFFCURVE",
"593 -12 CURVE SMOOTH",
"728 -12 OFFCURVE",
"792 87 OFFCURVE",
"792 245 CURVE SMOOTH",
"792 497 OFFCURVE",
"601 642 OFFCURVE",
"515 642 CURVE SMOOTH",
"486 642 OFFCURVE",
"470 618 OFFCURVE",
"470 583 CURVE SMOOTH",
"470 563 OFFCURVE",
"474 548 OFFCURVE",
"479 536 CURVE",
"633 503 OFFCURVE",
"726 412 OFFCURVE",
"726 282 CURVE SMOOTH",
"726 184 OFFCURVE",
"664 138 OFFCURVE",
"572 138 CURVE SMOOTH",
"493 138 OFFCURVE",
"440 155 OFFCURVE",
"363 200 CURVE SMOOTH",
"303 235 OFFCURVE",
"251 261 OFFCURVE",
"184 261 CURVE SMOOTH",
"90 261 OFFCURVE",
"36 205 OFFCURVE",
"36 128 CURVE SMOOTH",
"36 43 OFFCURVE",
"100 -12 OFFCURVE",
"194 -12 CURVE SMOOTH"
);
}
);
width = 842;
}
);
leftKerningGroup = KND_kha_L;
rightKerningGroup = KND_kha_R;
unicode = 0C96;
script = kannada;
category = Letter;
subCategory = Other;
},
{
glyphname = ga_kannada;
layers = (
{
anchors = (
{
name = bottom;
position = "{299, 0}";
},
{
name = top;
position = "{298, 503}";
}
);
layerId = "59995968-E459-46B5-A8B1-181090AA0B10";
paths = (
{
closed = 1;
nodes = (
"91 0 LINE",
"91 104 LINE SMOOTH",
"91 169 OFFCURVE",
"98 240 OFFCURVE",
"117 304 CURVE SMOOTH",
"150 417 OFFCURVE",
"222 479 OFFCURVE",
"299 479 CURVE SMOOTH",
"376 479 OFFCURVE",
"447 417 OFFCURVE",
"480 304 CURVE SMOOTH",
"499 240 OFFCURVE",
"507 169 OFFCURVE",
"507 104 CURVE SMOOTH",
"507 0 LINE",
"533 0 LINE",
"533 107 LINE SMOOTH",
"533 202 OFFCURVE",
"518 277 OFFCURVE",
"491 343 CURVE SMOOTH",
"457 426 OFFCURVE",
"409 479 OFFCURVE",
"334 495 CURVE",
"342 479 LINE",
"359 479 LINE",
"418 479 OFFCURVE",
"463 490 OFFCURVE",
"493 515 CURVE",
"519 536 OFFCURVE",
"533 568 OFFCURVE",
"533 613 CURVE",
"533 660 OFFCURVE",
"512 705 OFFCURVE",
"484 739 CURVE",
"467 727 LINE",
"483 709 OFFCURVE",
"511 671 OFFCURVE",
"511 614 CURVE",
"511 578 OFFCURVE",
"499 552 OFFCURVE",
"477 534 CURVE SMOOTH",
"451 512 OFFCURVE",
"411 503 OFFCURVE",
"361 503 CURVE",
"66 503 LINE",
"64 479 LINE",
"263 479 LINE",
"263 495 LINE",
"189 479 OFFCURVE",
"140 426 OFFCURVE",
"106 343 CURVE SMOOTH",
"79 278 OFFCURVE",
"64 202 OFFCURVE",
"64 107 CURVE SMOOTH",
"64 0 LINE"
);
}
);
width = 597;
},
{
anchors = (
{
name = bottom;
position = "{328, 0}";
},
{
name = top;
position = "{328, 566}";
}
);
layerId = "389B3055-E02B-410E-AE74-C99A384F2C74";
paths = (
{
closed = 1;
nodes = (
"234 0 LINE",
"234 132 LINE SMOOTH",
"234 237 OFFCURVE",
"239 281 OFFCURVE",
"248 323 CURVE SMOOTH",
"259 374 OFFCURVE",
"285 422 OFFCURVE",
"328 422 CURVE SMOOTH",
"371 422 OFFCURVE",
"397 374 OFFCURVE",
"408 323 CURVE SMOOTH",
"417 281 OFFCURVE",
"421 237 OFFCURVE",
"421 132 CURVE SMOOTH",
"421 0 LINE",
"602 0 LINE",
"602 93 LINE SMOOTH",
"602 201 OFFCURVE",
"578 298 OFFCURVE",
"511 366 CURVE SMOOTH",
"487 391 OFFCURVE",
"458 412 OFFCURVE",
"422 428 CURVE",
"376 416 LINE",
"384 416 LINE",
"454 416 OFFCURVE",
"509 429 OFFCURVE",
"547 459 CURVE",
"582 487 OFFCURVE",
"602 529 OFFCURVE",
"602 589 CURVE",
"602 654 OFFCURVE",
"573 723 OFFCURVE",
"516 784 CURVE",
"463 745 LINE",
"495 708 OFFCURVE",
"513 680 OFFCURVE",
"513 640 CURVE",
"513 622 OFFCURVE",
"507 606 OFFCURVE",
"496 595 CURVE",
"476 575 OFFCURVE",
"441 566 OFFCURVE",
"399 566 CURVE",
"64 566 LINE",
"54 416 LINE",
"260 416 LINE",
"243 426 LINE",
"203 413 OFFCURVE",
"172 390 OFFCURVE",
"145 364 CURVE SMOOTH",
"79 299 OFFCURVE",
"54 200 OFFCURVE",
"54 96 CURVE SMOOTH",
"54 0 LINE"
);
}
);
width = 656;
},
{
anchors = (
{
name = bottom;
position = "{311, 0}";
},
{
name = top;
position = "{310, 547}";
}
);
layerId = "56938CB9-64C5-480A-8326-19BB97D61A51";
paths = (
{
closed = 1;
nodes = (
"154 0 LINE",
"154 111 LINE SMOOTH",
"154 207 OFFCURVE",
"161 271 OFFCURVE",
"173 318 CURVE SMOOTH",
"194 399 OFFCURVE",
"240 460 OFFCURVE",
"312 460 CURVE SMOOTH",
"374 460 OFFCURVE",
"423 408 OFFCURVE",
"446 328 CURVE SMOOTH",
"460 279 OFFCURVE",
"467 213 OFFCURVE",
"467 104 CURVE SMOOTH",
"467 0 LINE",
"562 0 LINE",
"562 117 LINE SMOOTH",
"562 211 OFFCURVE",
"542 306 OFFCURVE",
"492 377 CURVE SMOOTH",
"464 416 OFFCURVE",
"431 449 OFFCURVE",
"387 469 CURVE",
"365 460 LINE",
"371 460 LINE",
"466 460 OFFCURVE",
"500 477 OFFCURVE",
"526 503 CURVE SMOOTH",
"555 532 OFFCURVE",
"562 569 OFFCURVE",
"562 605 CURVE",
"562 666 OFFCURVE",
"536 723 OFFCURVE",
"491 771 CURVE",
"455 744 LINE",
"491 706 OFFCURVE",
"510 667 OFFCURVE",
"510 628 CURVE",
"510 602 OFFCURVE",
"502 583 OFFCURVE",
"487 570 CURVE",
"468 554 OFFCURVE",
"442 547 OFFCURVE",
"375 547 CURVE",
"66 547 LINE",
"60 460 LINE",
"243 460 LINE",
"234 469 LINE",
"187 445 OFFCURVE",
"151 408 OFFCURVE",
"123 364 CURVE SMOOTH",
"80 295 OFFCURVE",
"60 209 OFFCURVE",
"60 114 CURVE SMOOTH",
"60 0 LINE"
);
}
);
width = 620;
},
{
anchors = (
{
name = bottom;
position = "{322, 0}";
},
{
name = top;
position = "{321, 561}";
}
);
layerId = "A6FB1343-85A8-49E5-AB18-F683E718EB6E";
paths = (
{
closed = 1;
nodes = (
"205 0 LINE",
"205 124 LINE SMOOTH",
"205 227 OFFCURVE",
"210 278 OFFCURVE",
"220 321 CURVE SMOOTH",
"235 383 OFFCURVE",
"268 437 OFFCURVE",
"322 437 CURVE SMOOTH",
"372 437 OFFCURVE",
"405 387 OFFCURVE",
"421 326 CURVE SMOOTH",
"433 282 OFFCURVE",
"438 229 OFFCURVE",
"438 121 CURVE SMOOTH",
"438 0 LINE",
"587 0 LINE",
"587 103 LINE SMOOTH",
"587 206 OFFCURVE",
"564 302 OFFCURVE",
"503 372 CURVE SMOOTH",
"478 400 OFFCURVE",
"448 425 OFFCURVE",
"411 443 CURVE",
"373 433 LINE",
"379 433 LINE",
"461 433 OFFCURVE",
"507 447 OFFCURVE",
"540 476 CURVE SMOOTH",
"572 505 OFFCURVE",
"587 545 OFFCURVE",
"587 596 CURVE",
"587 660 OFFCURVE",
"559 724 OFFCURVE",
"506 781 CURVE",
"459 746 LINE",
"493 707 OFFCURVE",
"511 675 OFFCURVE",
"511 637 CURVE",
"511 615 OFFCURVE",
"506 598 OFFCURVE",
"493 587 CURVE SMOOTH",
"473 569 OFFCURVE",
"442 561 OFFCURVE",
"389 561 CURVE",
"65 561 LINE",
"56 433 LINE",
"252 433 LINE",
"238 442 LINE",
"196 424 OFFCURVE",
"163 397 OFFCURVE",
"136 365 CURVE SMOOTH",
"79 298 OFFCURVE",
"56 204 OFFCURVE",
"56 104 CURVE SMOOTH",
"56 0 LINE"
);
}
);
width = 643;
}
);
leftKerningGroup = KND_ga_L;
rightKerningGroup = KND_ga_R;
unicode = 0C97;
script = kannada;
category = Letter;
subCategory = Other;
},
{
glyphname = gha_kannada;
layers = (
{
anchors = (
{
name = bottom;
position = "{378, 0}";
},
{
name = top;
position = "{439, 503}";
}
);
layerId = "59995968-E459-46B5-A8B1-181090AA0B10";
paths = (
{
closed = 1;
nodes = (
"314 -10 OFFCURVE",
"371 64 OFFCURVE",
"382 146 CURVE",
"376 146 LINE",
"387 64 OFFCURVE",
"436 -10 OFFCURVE",
"532 -10 CURVE SMOOTH",
"640 -10 OFFCURVE",
"685 78 OFFCURVE",
"685 161 CURVE SMOOTH",
"685 247 OFFCURVE",
"647 318 OFFCURVE",
"609 361 CURVE",
"600 354 LINE",
"641 304 OFFCURVE",
"680 278 OFFCURVE",
"732 278 CURVE SMOOTH",
"793 278 OFFCURVE",
"831 319 OFFCURVE",
"831 380 CURVE SMOOTH",
"831 439 OFFCURVE",
"798 491 OFFCURVE",
"761 491 CURVE SMOOTH",
"747 491 OFFCURVE",
"739 483 OFFCURVE",
"737 474 CURVE",
"784 464 OFFCURVE",
"809 432 OFFCURVE",
"809 382 CURVE SMOOTH",
"809 334 OFFCURVE",
"782 302 OFFCURVE",
"731 302 CURVE SMOOTH",
"676 302 OFFCURVE",
"636 341 OFFCURVE",
"592 396 CURVE",
"573 381 LINE",
"612 330 OFFCURVE",
"663 261 OFFCURVE",
"663 163 CURVE SMOOTH",
"663 92 OFFCURVE",
"630 15 OFFCURVE",
"533 15 CURVE SMOOTH",
"428 15 OFFCURVE",
"396 114 OFFCURVE",
"391 196 CURVE",
"367 196 LINE",
"363 121 OFFCURVE",
"335 15 OFFCURVE",
"218 15 CURVE SMOOTH",
"120 15 OFFCURVE",
"82 83 OFFCURVE",
"82 158 CURVE SMOOTH",
"82 240 OFFCURVE",
"131 291 OFFCURVE",
"188 291 CURVE SMOOTH",
"230 291 OFFCURVE",
"257 267 OFFCURVE",
"257 229 CURVE SMOOTH",
"257 198 OFFCURVE",
"236 172 OFFCURVE",
"194 167 CURVE",
"198 146 LINE",
"248 149 OFFCURVE",
"280 182 OFFCURVE",
"280 230 CURVE SMOOTH",
"280 280 OFFCURVE",
"243 315 OFFCURVE",
"190 315 CURVE SMOOTH",
"113 315 OFFCURVE",
"60 252 OFFCURVE",
"60 156 CURVE SMOOTH",
"60 72 OFFCURVE",
"109 -10 OFFCURVE",
"219 -10 CURVE SMOOTH"
);
},
{
closed = 1;
nodes = (
"393 -166 OFFCURVE",
"397 -156 OFFCURVE",
"397 -141 CURVE SMOOTH",
"397 -120 OFFCURVE",
"393 -49 OFFCURVE",
"386 -9 CURVE",
"371 -9 LINE",
"363 -50 OFFCURVE",
"358 -119 OFFCURVE",
"358 -140 CURVE SMOOTH",
"358 -155 OFFCURVE",
"360 -166 OFFCURVE",
"378 -166 CURVE SMOOTH"
);
},
{
closed = 1;
nodes = (
"397 331 OFFCURVE",
"409 343 OFFCURVE",
"409 360 CURVE SMOOTH",
"409 376 OFFCURVE",
"397 390 OFFCURVE",
"378 390 CURVE SMOOTH",
"361 390 OFFCURVE",
"349 376 OFFCURVE",
"349 360 CURVE SMOOTH",
"349 343 OFFCURVE",
"360 331 OFFCURVE",
"378 331 CURVE SMOOTH"
);
},
{
closed = 1;
nodes = (
"511 479 LINE",
"570 479 OFFCURVE",
"615 490 OFFCURVE",
"645 515 CURVE",
"671 536 OFFCURVE",
"685 568 OFFCURVE",
"685 613 CURVE",
"685 660 OFFCURVE",
"664 705 OFFCURVE",
"636 739 CURVE",
"619 727 LINE",
"635 709 OFFCURVE",
"663 671 OFFCURVE",
"663 614 CURVE",
"663 578 OFFCURVE",
"650 552 OFFCURVE",
"629 534 CURVE SMOOTH",
"603 512 OFFCURVE",
"563 503 OFFCURVE",
"513 503 CURVE",
"82 503 LINE",
"80 479 LINE"
);
}
);
width = 879;
},
{
anchors = (
{
name = bottom;
position = "{397, 0}";
},
{
name = top;
position = "{462, 566}";
}
);
layerId = "389B3055-E02B-410E-AE74-C99A384F2C74";
paths = (
{
closed = 1;
nodes = (
"328 -12 OFFCURVE",
"381 62 OFFCURVE",
"400 152 CURVE",
"394 153 LINE",
"412 62 OFFCURVE",
"462 -12 OFFCURVE",
"561 -12 CURVE SMOOTH",
"665 -12 OFFCURVE",
"713 81 OFFCURVE",
"713 189 CURVE SMOOTH",
"713 262 OFFCURVE",
"698 310 OFFCURVE",
"677 344 CURVE",
"651 274 LINE",
"682 237 OFFCURVE",
"722 203 OFFCURVE",
"772 203 CURVE SMOOTH",
"846 203 OFFCURVE",
"884 256 OFFCURVE",
"884 329 CURVE SMOOTH",
"884 404 OFFCURVE",
"838 475 OFFCURVE",
"789 475 CURVE SMOOTH",
"752 475 OFFCURVE",
"740 445 OFFCURVE",
"735 411 CURVE",
"779 408 OFFCURVE",
"816 393 OFFCURVE",
"816 356 CURVE SMOOTH",
"816 331 OFFCURVE",
"797 316 OFFCURVE",
"770 316 CURVE SMOOTH",
"722 316 OFFCURVE",
"687 350 OFFCURVE",
"639 396 CURVE",
"589 352 LINE",
"627 311 OFFCURVE",
"645 284 OFFCURVE",
"645 243 CURVE SMOOTH",
"645 191 OFFCURVE",
"606 163 OFFCURVE",
"549 163 CURVE SMOOTH",
"485 163 OFFCURVE",
"444 192 OFFCURVE",
"423 235 CURVE",
"370 235 LINE",
"347 186 OFFCURVE",
"304 153 OFFCURVE",
"217 153 CURVE SMOOTH",
"155 153 OFFCURVE",
"118 175 OFFCURVE",
"118 217 CURVE SMOOTH",
"118 249 OFFCURVE",
"140 268 OFFCURVE",
"169 268 CURVE SMOOTH",
"191 268 OFFCURVE",
"203 259 OFFCURVE",
"203 245 CURVE SMOOTH",
"203 233 OFFCURVE",
"195 225 OFFCURVE",
"178 222 CURVE",
"193 177 LINE",
"268 188 OFFCURVE",
"308 222 OFFCURVE",
"308 279 CURVE SMOOTH",
"308 333 OFFCURVE",
"267 370 OFFCURVE",
"201 370 CURVE SMOOTH",
"104 370 OFFCURVE",
"50 289 OFFCURVE",
"50 187 CURVE SMOOTH",
"50 79 OFFCURVE",
"114 -12 OFFCURVE",
"229 -12 CURVE SMOOTH"
);
},
{
closed = 1;
nodes = (
"435 -188 OFFCURVE",
"469 -168 OFFCURVE",
"469 -125 CURVE SMOOTH",
"469 -86 OFFCURVE",
"444 -34 OFFCURVE",
"416 15 CURVE",
"377 15 LINE",
"349 -34 OFFCURVE",
"324 -86 OFFCURVE",
"324 -123 CURVE SMOOTH",
"324 -168 OFFCURVE",
"356 -188 OFFCURVE",
"397 -188 CURVE SMOOTH"
);
},
{
closed = 1;
nodes = (
"441 267 OFFCURVE",
"466 292 OFFCURVE",
"466 326 CURVE SMOOTH",
"466 360 OFFCURVE",
"440 386 OFFCURVE",
"401 386 CURVE SMOOTH",
"363 386 OFFCURVE",
"337 360 OFFCURVE",
"337 326 CURVE SMOOTH",
"337 292 OFFCURVE",
"362 267 OFFCURVE",
"401 267 CURVE SMOOTH"
);
},
{
closed = 1;
nodes = (
"496 416 LINE",
"566 416 OFFCURVE",
"621 429 OFFCURVE",
"659 459 CURVE",
"694 487 OFFCURVE",
"714 529 OFFCURVE",
"714 589 CURVE",
"714 654 OFFCURVE",
"685 723 OFFCURVE",
"628 784 CURVE",
"575 745 LINE",
"607 708 OFFCURVE",
"625 680 OFFCURVE",
"625 640 CURVE",
"625 622 OFFCURVE",
"619 606 OFFCURVE",
"608 595 CURVE",
"588 575 OFFCURVE",
"553 566 OFFCURVE",
"511 566 CURVE",
"75 566 LINE",
"64 416 LINE"
);
}
);
width = 924;
},
{
anchors = (
{
name = bottom;
position = "{376, 0}";
},
{
name = top;
position = "{448, 547}";
}
);
layerId = "56938CB9-64C5-480A-8326-19BB97D61A51";
paths = (
{
closed = 1;
nodes = (
"309 -11 OFFCURVE",
"355 50 OFFCURVE",
"381 139 CURVE",
"372 139 LINE",
"395 51 OFFCURVE",
"446 -11 OFFCURVE",
"534 -11 CURVE SMOOTH",
"656 -11 OFFCURVE",
"685 115 OFFCURVE",
"685 205 CURVE SMOOTH",
"685 228 OFFCURVE",
"680 247 OFFCURVE",
"674 270 CURVE",
"662 260 LINE",
"688 243 OFFCURVE",
"718 235 OFFCURVE",
"743 235 CURVE SMOOTH",
"811 235 OFFCURVE",
"852 284 OFFCURVE",
"852 359 CURVE SMOOTH",
"852 434 OFFCURVE",
"806 501 OFFCURVE",
"762 501 CURVE SMOOTH",
"741 501 OFFCURVE",
"728 481 OFFCURVE",
"724 456 CURVE",
"779 449 OFFCURVE",
"808 419 OFFCURVE",
"808 371 CURVE SMOOTH",
"808 333 OFFCURVE",
"784 307 OFFCURVE",
"741 307 CURVE SMOOTH",
"687 307 OFFCURVE",
"650 342 OFFCURVE",
"604 397 CURVE",
"565 363 LINE",
"613 308 OFFCURVE",
"638 271 OFFCURVE",
"638 206 CURVE SMOOTH",
"638 134 OFFCURVE",
"602 84 OFFCURVE",
"529 84 CURVE SMOOTH",
"448 84 OFFCURVE",
"416 133 OFFCURVE",
"396 200 CURVE",
"362 200 LINE",
"341 124 OFFCURVE",
"296 84 OFFCURVE",
"223 84 CURVE SMOOTH",
"143 84 OFFCURVE",
"99 117 OFFCURVE",
"99 182 CURVE SMOOTH",
"99 229 OFFCURVE",
"127 260 OFFCURVE",
"171 260 CURVE SMOOTH",
"204 260 OFFCURVE",
"220 243 OFFCURVE",
"220 219 CURVE SMOOTH",
"220 195 OFFCURVE",
"207 183 OFFCURVE",
"184 178 CURVE",
"190 141 LINE",
"247 149 OFFCURVE",
"281 178 OFFCURVE",
"281 229 CURVE SMOOTH",
"281 281 OFFCURVE",
"246 319 OFFCURVE",
"183 319 CURVE SMOOTH",
"103 319 OFFCURVE",
"54 253 OFFCURVE",
"54 168 CURVE SMOOTH",
"54 74 OFFCURVE",
"107 -11 OFFCURVE",
"212 -11 CURVE SMOOTH"
);
},
{
closed = 1;
nodes = (
"407 -196 OFFCURVE",
"425 -185 OFFCURVE",
"425 -156 CURVE SMOOTH",
"425 -122 OFFCURVE",
"407 -56 OFFCURVE",
"390 -9 CURVE",
"362 -9 LINE",
"346 -58 OFFCURVE",
"327 -126 OFFCURVE",
"327 -156 CURVE SMOOTH",
"327 -185 OFFCURVE",
"345 -196 OFFCURVE",
"376 -196 CURVE SMOOTH"
);
},
{
closed = 1;
nodes = (
"415 304 OFFCURVE",
"438 328 OFFCURVE",
"438 360 CURVE SMOOTH",
"438 392 OFFCURVE",
"415 416 OFFCURVE",
"381 416 CURVE SMOOTH",
"347 416 OFFCURVE",
"324 392 OFFCURVE",
"324 360 CURVE SMOOTH",
"324 328 OFFCURVE",
"347 304 OFFCURVE",
"381 304 CURVE SMOOTH"
);
},
{
closed = 1;
nodes = (
"494 460 LINE",
"589 460 OFFCURVE",
"623 478 OFFCURVE",
"649 503 CURVE SMOOTH",
"679 531 OFFCURVE",
"685 569 OFFCURVE",
"685 605 CURVE",
"685 666 OFFCURVE",
"659 723 OFFCURVE",
"614 771 CURVE",
"578 744 LINE",
"614 706 OFFCURVE",
"633 667 OFFCURVE",
"633 628 CURVE",
"633 602 OFFCURVE",
"625 583 OFFCURVE",
"610 570 CURVE",
"591 554 OFFCURVE",
"565 547 OFFCURVE",
"498 547 CURVE",
"67 547 LINE",
"60 460 LINE"
);
}
);
width = 896;
},
{
anchors = (
{
name = bottom;
position = "{389, 0}";
},
{
name = top;
position = "{457, 561}";
}
);
layerId = "A6FB1343-85A8-49E5-AB18-F683E718EB6E";
paths = (
{
closed = 1;
nodes = (
"321 -12 OFFCURVE",
"371 56 OFFCURVE",
"393 147 CURVE",
"385 147 LINE",
"406 57 OFFCURVE",
"457 -12 OFFCURVE",
"551 -12 CURVE SMOOTH",
"663 -12 OFFCURVE",
"703 96 OFFCURVE",
"703 197 CURVE SMOOTH",
"703 248 OFFCURVE",
"693 281 OFFCURVE",
"680 310 CURVE",
"659 264 LINE",
"687 236 OFFCURVE",
"723 214 OFFCURVE",
"761 214 CURVE SMOOTH",
"834 214 OFFCURVE",
"873 266 OFFCURVE",
"873 340 CURVE SMOOTH",
"873 416 OFFCURVE",
"827 486 OFFCURVE",
"778 486 CURVE SMOOTH",
"749 486 OFFCURVE",
"735 460 OFFCURVE",
"730 428 CURVE",
"779 424 OFFCURVE",
"814 403 OFFCURVE",
"814 362 CURVE SMOOTH",
"814 332 OFFCURVE",
"793 313 OFFCURVE",
"759 313 CURVE SMOOTH",
"709 313 OFFCURVE",
"673 347 OFFCURVE",
"626 397 CURVE",
"580 355 LINE",
"623 309 OFFCURVE",
"642 279 OFFCURVE",
"642 230 CURVE SMOOTH",
"642 170 OFFCURVE",
"604 134 OFFCURVE",
"542 134 CURVE SMOOTH",
"472 134 OFFCURVE",
"435 169 OFFCURVE",
"413 221 CURVE",
"367 221 LINE",
"344 161 OFFCURVE",
"299 128 OFFCURVE",
"220 128 CURVE SMOOTH",
"152 128 OFFCURVE",
"112 153 OFFCURVE",
"112 204 CURVE SMOOTH",
"112 240 OFFCURVE",
"135 263 OFFCURVE",
"170 263 CURVE SMOOTH",
"196 263 OFFCURVE",
"209 251 OFFCURVE",
"209 234 CURVE SMOOTH",
"209 217 OFFCURVE",
"199 208 OFFCURVE",
"181 205 CURVE",
"192 163 LINE",
"260 173 OFFCURVE",
"298 204 OFFCURVE",
"298 259 CURVE SMOOTH",
"298 313 OFFCURVE",
"259 350 OFFCURVE",
"194 350 CURVE SMOOTH",
"104 350 OFFCURVE",
"52 274 OFFCURVE",
"52 180 CURVE SMOOTH",
"52 77 OFFCURVE",
"112 -12 OFFCURVE",
"222 -12 CURVE SMOOTH"
);
},
{
closed = 1;
nodes = (
"425 -193 OFFCURVE",
"453 -176 OFFCURVE",
"453 -138 CURVE SMOOTH",
"453 -101 OFFCURVE",
"431 -43 OFFCURVE",
"406 5 CURVE",
"371 5 LINE",
"347 -44 OFFCURVE",
"324 -103 OFFCURVE",
"324 -137 CURVE SMOOTH",
"324 -176 OFFCURVE",
"352 -193 OFFCURVE",
"389 -193 CURVE SMOOTH"
);
},
{
closed = 1;
nodes = (
"432 280 OFFCURVE",
"457 306 OFFCURVE",
"457 340 CURVE SMOOTH",
"457 373 OFFCURVE",
"432 399 OFFCURVE",
"394 399 CURVE SMOOTH",
"356 399 OFFCURVE",
"332 373 OFFCURVE",
"332 340 CURVE SMOOTH",
"332 306 OFFCURVE",
"356 280 OFFCURVE",
"394 280 CURVE SMOOTH"
);
},
{
closed = 1;
nodes = (
"495 433 LINE",
"577 433 OFFCURVE",
"624 448 OFFCURVE",
"656 476 CURVE SMOOTH",
"689 504 OFFCURVE",
"703 545 OFFCURVE",
"703 596 CURVE",
"703 660 OFFCURVE",
"675 724 OFFCURVE",
"622 781 CURVE",
"575 746 LINE",
"609 707 OFFCURVE",
"627 675 OFFCURVE",
"627 637 CURVE",
"627 615 OFFCURVE",
"622 598 OFFCURVE",
"609 587 CURVE SMOOTH",
"589 569 OFFCURVE",
"558 561 OFFCURVE",
"505 561 CURVE",
"72 561 LINE",
"63 433 LINE"
);
}
);
width = 915;
}
);
leftKerningGroup = KND_gha_L;
rightKerningGroup = KND_gha_R;
unicode = 0C98;
script = kannada;
category = Letter;
subCategory = Other;
},
